{
	"asset":{
		"generator":"Khronos glTF Blender I/O v3.5.30",
		"version":"2.0"
	},
	"scene":0,
	"scenes":[
		{
			"name":"Scene",
			"nodes":[
				0
			]
		}
	],
	"nodes":[
		{
			"mesh":0,
			"name":"\u5bf8\u6cd5\u78ba\u8a8d\u7528\u4eba\u9593",
			"scale":[
				0.05000000074505806,
				0.06562308967113495,
				0.05000000074505806
			],
			"translation":[
				0,
				0.06739813089370728,
				0
			]
		}
	],
	"meshes":[
		{
			"name":"\u5186\u9310.001",
			"primitives":[
				{
					"attributes":{
						"POSITION":0,
						"TEXCOORD_0":1,
						"NORMAL":2
					},
					"indices":3
				}
			]
		}
	],
	"accessors":[
		{
			"bufferView":0,
			"componentType":5126,
			"count":2112,
			"max":[
				1,
				1.5905516147613525,
				1
			],
			"min":[
				-1,
				-1,
				-1
			],
			"type":"VEC3"
		},
		{
			"bufferView":1,
			"componentType":5126,
			"count":2112,
			"type":"VEC2"
		},
		{
			"bufferView":2,
			"componentType":5126,
			"count":2112,
			"type":"VEC3"
		},
		{
			"bufferView":3,
			"componentType":5123,
			"count":3066,
			"type":"SCALAR"
		}
	],
	"bufferViews":[
		{
			"buffer":0,
			"byteLength":25344,
			"byteOffset":0,
			"target":34962
		},
		{
			"buffer":0,
			"byteLength":16896,
			"byteOffset":25344,
			"target":34962
		},
		{
			"buffer":0,
			"byteLength":25344,
			"byteOffset":42240,
			"target":34962
		},
		{
			"buffer":0,
			"byteLength":6132,
			"byteOffset":67584,
			"target":34963
		}
	],
	"buffers":[
		{
			"byteLength":73716,
			"uri":"17cmHuman.bin"
		}
	]
}
