{
	"asset":{
		"generator":"Khronos glTF Blender I/O v4.0.43",
		"version":"2.0"
	},
	"scene":0,
	"scenes":[
		{
			"name":"Scene",
			"nodes":[
				3
			]
		}
	],
	"nodes":[
		{
			"name":"Node_1",
			"rotation":[
				-8.557136332854043e-09,
				1.7114272665708086e-08,
				-2.928983286277023e-16,
				1
			]
		},
		{
			"name":"Node_2",
			"rotation":[
				-8.557136332854043e-09,
				1.7114272665708086e-08,
				-2.928983286277023e-16,
				1
			],
			"translation":[
				0,
				0.9999998807907104,
				-3.4228538225988814e-08
			]
		},
		{
			"mesh":0,
			"name":"Mesh_0",
			"skin":0
		},
		{
			"children":[
				2,
				0,
				1
			],
			"name":"Armature"
		}
	],
	"animations":[
		{
			"channels":[
				{
					"sampler":0,
					"target":{
						"node":0,
						"path":"translation"
					}
				},
				{
					"sampler":1,
					"target":{
						"node":0,
						"path":"rotation"
					}
				},
				{
					"sampler":2,
					"target":{
						"node":0,
						"path":"scale"
					}
				},
				{
					"sampler":3,
					"target":{
						"node":1,
						"path":"translation"
					}
				},
				{
					"sampler":4,
					"target":{
						"node":1,
						"path":"rotation"
					}
				},
				{
					"sampler":5,
					"target":{
						"node":1,
						"path":"scale"
					}
				}
			],
			"name":"Anim_0",
			"samplers":[
				{
					"input":7,
					"interpolation":"STEP",
					"output":8
				},
				{
					"input":7,
					"interpolation":"STEP",
					"output":9
				},
				{
					"input":7,
					"interpolation":"STEP",
					"output":10
				},
				{
					"input":7,
					"interpolation":"STEP",
					"output":11
				},
				{
					"input":12,
					"interpolation":"LINEAR",
					"output":13
				},
				{
					"input":7,
					"interpolation":"STEP",
					"output":14
				}
			]
		}
	],
	"materials":[
		{
			"doubleSided":true,
			"name":"Material",
			"pbrMetallicRoughness":{
				"baseColorTexture":{
					"index":0
				},
				"metallicFactor":0,
				"roughnessFactor":0.5
			}
		}
	],
	"meshes":[
		{
			"name":"Mesh_0",
			"primitives":[
				{
					"attributes":{
						"POSITION":0,
						"NORMAL":1,
						"TEXCOORD_0":2,
						"JOINTS_0":3,
						"WEIGHTS_0":4
					},
					"indices":5,
					"material":0
				}
			]
		}
	],
	"textures":[
		{
			"sampler":0,
			"source":0
		}
	],
	"images":[
		{
			"mimeType":"image/png",
			"name":"uvChecker.png",
			"uri":"uvChecker.png"
		}
	],
	"skins":[
		{
			"inverseBindMatrices":6,
			"joints":[
				0,
				1
			],
			"name":"Armature"
		}
	],
	"accessors":[
		{
			"bufferView":0,
			"componentType":5126,
			"count":10,
			"max":[
				0.5,
				2,
				0
			],
			"min":[
				-0.5,
				0,
				0
			],
			"type":"VEC3"
		},
		{
			"bufferView":1,
			"componentType":5126,
			"count":10,
			"type":"VEC3"
		},
		{
			"bufferView":2,
			"componentType":5126,
			"count":10,
			"type":"VEC2"
		},
		{
			"bufferView":3,
			"componentType":5121,
			"count":10,
			"type":"VEC4"
		},
		{
			"bufferView":4,
			"componentType":5126,
			"count":10,
			"type":"VEC4"
		},
		{
			"bufferView":5,
			"componentType":5123,
			"count":24,
			"type":"SCALAR"
		},
		{
			"bufferView":6,
			"componentType":5126,
			"count":2,
			"type":"MAT4"
		},
		{
			"bufferView":7,
			"componentType":5126,
			"count":2,
			"max":[
				5.5
			],
			"min":[
				0
			],
			"type":"SCALAR"
		},
		{
			"bufferView":8,
			"componentType":5126,
			"count":2,
			"type":"VEC3"
		},
		{
			"bufferView":9,
			"componentType":5126,
			"count":2,
			"type":"VEC4"
		},
		{
			"bufferView":10,
			"componentType":5126,
			"count":2,
			"type":"VEC3"
		},
		{
			"bufferView":11,
			"componentType":5126,
			"count":2,
			"type":"VEC3"
		},
		{
			"bufferView":12,
			"componentType":5126,
			"count":133,
			"max":[
				5.5
			],
			"min":[
				0
			],
			"type":"SCALAR"
		},
		{
			"bufferView":13,
			"componentType":5126,
			"count":133,
			"type":"VEC4"
		},
		{
			"bufferView":14,
			"componentType":5126,
			"count":2,
			"type":"VEC3"
		}
	],
	"bufferViews":[
		{
			"buffer":0,
			"byteLength":120,
			"byteOffset":0,
			"target":34962
		},
		{
			"buffer":0,
			"byteLength":120,
			"byteOffset":120,
			"target":34962
		},
		{
			"buffer":0,
			"byteLength":80,
			"byteOffset":240,
			"target":34962
		},
		{
			"buffer":0,
			"byteLength":40,
			"byteOffset":320,
			"target":34962
		},
		{
			"buffer":0,
			"byteLength":160,
			"byteOffset":360,
			"target":34962
		},
		{
			"buffer":0,
			"byteLength":48,
			"byteOffset":520,
			"target":34963
		},
		{
			"buffer":0,
			"byteLength":128,
			"byteOffset":568
		},
		{
			"buffer":0,
			"byteLength":8,
			"byteOffset":696
		},
		{
			"buffer":0,
			"byteLength":24,
			"byteOffset":704
		},
		{
			"buffer":0,
			"byteLength":32,
			"byteOffset":728
		},
		{
			"buffer":0,
			"byteLength":24,
			"byteOffset":760
		},
		{
			"buffer":0,
			"byteLength":24,
			"byteOffset":784
		},
		{
			"buffer":0,
			"byteLength":532,
			"byteOffset":808
		},
		{
			"buffer":0,
			"byteLength":2128,
			"byteOffset":1340
		},
		{
			"buffer":0,
			"byteLength":24,
			"byteOffset":3468
		}
	],
	"samplers":[
		{
			"magFilter":9729,
			"minFilter":9987
		}
	],
	"buffers":[
		{
			"byteLength":3492,
			"uri":"simpleSkin.bin"
		}
	]
}
