{
	"asset":{
		"generator":"Khronos glTF Blender I/O v3.5.30",
		"version":"2.0"
	},
	"scene":0,
	"scenes":[
		{
			"name":"Scene",
			"nodes":[
				0,
				1,
				2,
				3
			]
		}
	],
	"nodes":[
		{
			"mesh":0,
			"name":"SportsCar_BackWheels_Cylinder.004",
			"rotation":[
				0.7071068286895752,
				0,
				0,
				0.7071068286895752
			]
		},
		{
			"mesh":1,
			"name":"SportsCar_Cube.005",
			"rotation":[
				0.7071068286895752,
				0,
				0,
				0.7071068286895752
			]
		},
		{
			"mesh":2,
			"name":"SportsCar_FrontLeftWheel_Cylinder.013",
			"rotation":[
				0.7071068286895752,
				0,
				0,
				0.7071068286895752
			]
		},
		{
			"mesh":3,
			"name":"SportsCar_FrontRightWheel_Cylinder.014",
			"rotation":[
				0.7071068286895752,
				0,
				0,
				0.7071068286895752
			]
		}
	],
	"materials":[
		{
			"doubleSided":true,
			"name":"Black",
			"pbrMetallicRoughness":{
				"baseColorFactor":[
					0.010962000116705894,
					0.010962000116705894,
					0.010962000116705894,
					1
				],
				"metallicFactor":0,
				"roughnessFactor":0.6900347471237183
			}
		},
		{
			"doubleSided":true,
			"name":"Grey",
			"pbrMetallicRoughness":{
				"baseColorFactor":[
					0.16124500334262848,
					0.16124500334262848,
					0.16124500334262848,
					1
				],
				"metallicFactor":0,
				"roughnessFactor":0.6900347471237183
			}
		},
		{
			"doubleSided":true,
			"name":"Orange",
			"pbrMetallicRoughness":{
				"baseColorFactor":[
					0.6392819881439209,
					0.2659609913825989,
					0.08561799675226212,
					1
				],
				"metallicFactor":0,
				"roughnessFactor":0.6900347471237183
			}
		},
		{
			"doubleSided":true,
			"name":"DarkOrange",
			"pbrMetallicRoughness":{
				"baseColorFactor":[
					0.5585470199584961,
					0.23323799669742584,
					0.07563500106334686,
					1
				],
				"metallicFactor":0,
				"roughnessFactor":0.6900347471237183
			}
		},
		{
			"doubleSided":true,
			"name":"Windows",
			"pbrMetallicRoughness":{
				"baseColorFactor":[
					0.028480999171733856,
					0.028480999171733856,
					0.028480999171733856,
					1
				],
				"metallicFactor":0,
				"roughnessFactor":0.6900347471237183
			}
		},
		{
			"doubleSided":true,
			"name":"Headlights",
			"pbrMetallicRoughness":{
				"baseColorFactor":[
					0.6392819881439209,
					0.4842199981212616,
					0.13856400549411774,
					1
				],
				"metallicFactor":0,
				"roughnessFactor":0.6900347471237183
			}
		},
		{
			"doubleSided":true,
			"name":"TailLights",
			"pbrMetallicRoughness":{
				"baseColorFactor":[
					0.6392819881439209,
					0.07444699853658676,
					0.05937099829316139,
					1
				],
				"metallicFactor":0,
				"roughnessFactor":0.6900347471237183
			}
		}
	],
	"meshes":[
		{
			"name":"SportsCar_BackWheels_Cylinder.004",
			"primitives":[
				{
					"attributes":{
						"POSITION":0,
						"NORMAL":1
					},
					"indices":2,
					"material":0
				},
				{
					"attributes":{
						"POSITION":3,
						"NORMAL":4
					},
					"indices":5,
					"material":1
				}
			]
		},
		{
			"name":"SportsCar_Cube.005",
			"primitives":[
				{
					"attributes":{
						"POSITION":6,
						"NORMAL":7
					},
					"indices":8,
					"material":2
				},
				{
					"attributes":{
						"POSITION":9,
						"NORMAL":10
					},
					"indices":11,
					"material":3
				},
				{
					"attributes":{
						"POSITION":12,
						"NORMAL":13
					},
					"indices":14,
					"material":4
				},
				{
					"attributes":{
						"POSITION":15,
						"NORMAL":16
					},
					"indices":17,
					"material":1
				},
				{
					"attributes":{
						"POSITION":18,
						"NORMAL":19
					},
					"indices":20,
					"material":5
				},
				{
					"attributes":{
						"POSITION":21,
						"NORMAL":22
					},
					"indices":23,
					"material":6
				}
			]
		},
		{
			"name":"SportsCar_FrontLeftWheel_Cylinder.013",
			"primitives":[
				{
					"attributes":{
						"POSITION":24,
						"NORMAL":25
					},
					"indices":26,
					"material":0
				},
				{
					"attributes":{
						"POSITION":27,
						"NORMAL":28
					},
					"indices":29,
					"material":1
				}
			]
		},
		{
			"name":"SportsCar_FrontRightWheel_Cylinder.014",
			"primitives":[
				{
					"attributes":{
						"POSITION":30,
						"NORMAL":31
					},
					"indices":32,
					"material":0
				},
				{
					"attributes":{
						"POSITION":33,
						"NORMAL":34
					},
					"indices":35,
					"material":1
				}
			]
		}
	],
	"accessors":[
		{
			"bufferView":0,
			"componentType":5126,
			"count":488,
			"max":[
				0.7870500087738037,
				0.5095049738883972,
				-0.9947119951248169
			],
			"min":[
				-0.7812659740447998,
				-0.010285000316798687,
				-1.5145009756088257
			],
			"type":"VEC3"
		},
		{
			"bufferView":1,
			"componentType":5126,
			"count":488,
			"type":"VEC3"
		},
		{
			"bufferView":2,
			"componentType":5123,
			"count":828,
			"type":"SCALAR"
		},
		{
			"bufferView":3,
			"componentType":5126,
			"count":1088,
			"max":[
				0.7745339870452881,
				0.4214079976081848,
				-1.0828100442886353
			],
			"min":[
				-0.7687510251998901,
				0.07781299948692322,
				-1.4264039993286133
			],
			"type":"VEC3"
		},
		{
			"bufferView":4,
			"componentType":5126,
			"count":1088,
			"type":"VEC3"
		},
		{
			"bufferView":5,
			"componentType":5123,
			"count":1692,
			"type":"SCALAR"
		},
		{
			"bufferView":6,
			"componentType":5126,
			"count":535,
			"max":[
				0.9013509750366211,
				1.1451189517974854,
				1.9586689472198486
			],
			"min":[
				-0.9031680226325989,
				0.17548500001430511,
				-1.9688220024108887
			],
			"type":"VEC3"
		},
		{
			"bufferView":7,
			"componentType":5126,
			"count":535,
			"type":"VEC3"
		},
		{
			"bufferView":8,
			"componentType":5123,
			"count":2790,
			"type":"SCALAR"
		},
		{
			"bufferView":9,
			"componentType":5126,
			"count":222,
			"max":[
				0.8340920209884644,
				0.3389190137386322,
				1.9840760231018066
			],
			"min":[
				-0.8359090089797974,
				0.17066000401973724,
				-1.9846309423446655
			],
			"type":"VEC3"
		},
		{
			"bufferView":10,
			"componentType":5126,
			"count":222,
			"type":"VEC3"
		},
		{
			"bufferView":11,
			"componentType":5123,
			"count":1098,
			"type":"SCALAR"
		},
		{
			"bufferView":12,
			"componentType":5126,
			"count":64,
			"max":[
				0.7130720019340515,
				1.103742003440857,
				0.7868090271949768
			],
			"min":[
				-0.7148889899253845,
				0.7767969965934753,
				-1.3533660173416138
			],
			"type":"VEC3"
		},
		{
			"bufferView":13,
			"componentType":5126,
			"count":64,
			"type":"VEC3"
		},
		{
			"bufferView":14,
			"componentType":5123,
			"count":186,
			"type":"SCALAR"
		},
		{
			"bufferView":15,
			"componentType":5126,
			"count":6,
			"max":[
				0.23730899393558502,
				0.5557090044021606,
				-1.8722749948501587
			],
			"min":[
				-0.23912599682807922,
				0.4130919873714447,
				-1.9247649908065796
			],
			"type":"VEC3"
		},
		{
			"bufferView":16,
			"componentType":5126,
			"count":6,
			"type":"VEC3"
		},
		{
			"bufferView":17,
			"componentType":5123,
			"count":12,
			"type":"SCALAR"
		},
		{
			"bufferView":18,
			"componentType":5126,
			"count":14,
			"max":[
				0.670395016670227,
				0.5377969741821289,
				1.893435001373291
			],
			"min":[
				-0.6722130179405212,
				0.40815800428390503,
				1.6989439725875854
			],
			"type":"VEC3"
		},
		{
			"bufferView":19,
			"componentType":5126,
			"count":14,
			"type":"VEC3"
		},
		{
			"bufferView":20,
			"componentType":5123,
			"count":30,
			"type":"SCALAR"
		},
		{
			"bufferView":21,
			"componentType":5126,
			"count":10,
			"max":[
				0.5649030208587646,
				0.7361950278282166,
				-1.7234840393066406
			],
			"min":[
				-0.5667200088500977,
				0.6069599986076355,
				-1.8405890464782715
			],
			"type":"VEC3"
		},
		{
			"bufferView":22,
			"componentType":5126,
			"count":10,
			"type":"VEC3"
		},
		{
			"bufferView":23,
			"componentType":5123,
			"count":18,
			"type":"SCALAR"
		},
		{
			"bufferView":24,
			"componentType":5126,
			"count":244,
			"max":[
				0.8144569993019104,
				0.5095049738883972,
				1.4479340314865112
			],
			"min":[
				0.6250489950180054,
				-0.010285000316798687,
				0.9281439781188965
			],
			"type":"VEC3"
		},
		{
			"bufferView":25,
			"componentType":5126,
			"count":244,
			"type":"VEC3"
		},
		{
			"bufferView":26,
			"componentType":5123,
			"count":414,
			"type":"SCALAR"
		},
		{
			"bufferView":27,
			"componentType":5126,
			"count":544,
			"max":[
				0.8019409775733948,
				0.4214079976081848,
				1.3598359823226929
			],
			"min":[
				0.7502920031547546,
				0.07781299948692322,
				1.0162420272827148
			],
			"type":"VEC3"
		},
		{
			"bufferView":28,
			"componentType":5126,
			"count":544,
			"type":"VEC3"
		},
		{
			"bufferView":29,
			"componentType":5123,
			"count":846,
			"type":"SCALAR"
		},
		{
			"bufferView":30,
			"componentType":5126,
			"count":244,
			"max":[
				-0.6192659735679626,
				0.5095049738883972,
				1.4479340314865112
			],
			"min":[
				-0.8086730241775513,
				-0.010285000316798687,
				0.9281439781188965
			],
			"type":"VEC3"
		},
		{
			"bufferView":31,
			"componentType":5126,
			"count":244,
			"type":"VEC3"
		},
		{
			"bufferView":32,
			"componentType":5123,
			"count":414,
			"type":"SCALAR"
		},
		{
			"bufferView":33,
			"componentType":5126,
			"count":544,
			"max":[
				-0.7445080280303955,
				0.4214079976081848,
				1.3598359823226929
			],
			"min":[
				-0.7961570024490356,
				0.07781299948692322,
				1.0162420272827148
			],
			"type":"VEC3"
		},
		{
			"bufferView":34,
			"componentType":5126,
			"count":544,
			"type":"VEC3"
		},
		{
			"bufferView":35,
			"componentType":5123,
			"count":846,
			"type":"SCALAR"
		}
	],
	"bufferViews":[
		{
			"buffer":0,
			"byteLength":5856,
			"byteOffset":0,
			"target":34962
		},
		{
			"buffer":0,
			"byteLength":5856,
			"byteOffset":5856,
			"target":34962
		},
		{
			"buffer":0,
			"byteLength":1656,
			"byteOffset":11712,
			"target":34963
		},
		{
			"buffer":0,
			"byteLength":13056,
			"byteOffset":13368,
			"target":34962
		},
		{
			"buffer":0,
			"byteLength":13056,
			"byteOffset":26424,
			"target":34962
		},
		{
			"buffer":0,
			"byteLength":3384,
			"byteOffset":39480,
			"target":34963
		},
		{
			"buffer":0,
			"byteLength":6420,
			"byteOffset":42864,
			"target":34962
		},
		{
			"buffer":0,
			"byteLength":6420,
			"byteOffset":49284,
			"target":34962
		},
		{
			"buffer":0,
			"byteLength":5580,
			"byteOffset":55704,
			"target":34963
		},
		{
			"buffer":0,
			"byteLength":2664,
			"byteOffset":61284,
			"target":34962
		},
		{
			"buffer":0,
			"byteLength":2664,
			"byteOffset":63948,
			"target":34962
		},
		{
			"buffer":0,
			"byteLength":2196,
			"byteOffset":66612,
			"target":34963
		},
		{
			"buffer":0,
			"byteLength":768,
			"byteOffset":68808,
			"target":34962
		},
		{
			"buffer":0,
			"byteLength":768,
			"byteOffset":69576,
			"target":34962
		},
		{
			"buffer":0,
			"byteLength":372,
			"byteOffset":70344,
			"target":34963
		},
		{
			"buffer":0,
			"byteLength":72,
			"byteOffset":70716,
			"target":34962
		},
		{
			"buffer":0,
			"byteLength":72,
			"byteOffset":70788,
			"target":34962
		},
		{
			"buffer":0,
			"byteLength":24,
			"byteOffset":70860,
			"target":34963
		},
		{
			"buffer":0,
			"byteLength":168,
			"byteOffset":70884,
			"target":34962
		},
		{
			"buffer":0,
			"byteLength":168,
			"byteOffset":71052,
			"target":34962
		},
		{
			"buffer":0,
			"byteLength":60,
			"byteOffset":71220,
			"target":34963
		},
		{
			"buffer":0,
			"byteLength":120,
			"byteOffset":71280,
			"target":34962
		},
		{
			"buffer":0,
			"byteLength":120,
			"byteOffset":71400,
			"target":34962
		},
		{
			"buffer":0,
			"byteLength":36,
			"byteOffset":71520,
			"target":34963
		},
		{
			"buffer":0,
			"byteLength":2928,
			"byteOffset":71556,
			"target":34962
		},
		{
			"buffer":0,
			"byteLength":2928,
			"byteOffset":74484,
			"target":34962
		},
		{
			"buffer":0,
			"byteLength":828,
			"byteOffset":77412,
			"target":34963
		},
		{
			"buffer":0,
			"byteLength":6528,
			"byteOffset":78240,
			"target":34962
		},
		{
			"buffer":0,
			"byteLength":6528,
			"byteOffset":84768,
			"target":34962
		},
		{
			"buffer":0,
			"byteLength":1692,
			"byteOffset":91296,
			"target":34963
		},
		{
			"buffer":0,
			"byteLength":2928,
			"byteOffset":92988,
			"target":34962
		},
		{
			"buffer":0,
			"byteLength":2928,
			"byteOffset":95916,
			"target":34962
		},
		{
			"buffer":0,
			"byteLength":828,
			"byteOffset":98844,
			"target":34963
		},
		{
			"buffer":0,
			"byteLength":6528,
			"byteOffset":99672,
			"target":34962
		},
		{
			"buffer":0,
			"byteLength":6528,
			"byteOffset":106200,
			"target":34962
		},
		{
			"buffer":0,
			"byteLength":1692,
			"byteOffset":112728,
			"target":34963
		}
	],
	"buffers":[
		{
			"byteLength":114420,
			"uri":"TestCar.bin"
		}
	]
}
