{
	"asset":{
		"generator":"Khronos glTF Blender I/O v3.5.30",
		"version":"2.0"
	},
	"scene":0,
	"scenes":[
		{
			"name":"Scene",
			"nodes":[
				0
			]
		}
	],
	"nodes":[
		{
			"mesh":0,
			"name":"Terrain"
		}
	],
	"materials":[
		{
			"doubleSided":true,
			"name":"\u30de\u30c6\u30ea\u30a2\u30eb.001",
			"pbrMetallicRoughness":{
				"baseColorFactor":[
					0.800000011920929,
					0.800000011920929,
					0.800000011920929,
					1
				],
				"metallicFactor":0,
				"roughnessFactor":0.5
			}
		}
	],
	"meshes":[
		{
			"name":"\u5e73\u9762.001",
			"primitives":[
				{
					"attributes":{
						"POSITION":0,
						"TEXCOORD_0":1,
						"NORMAL":2
					},
					"indices":3,
					"material":0
				}
			]
		}
	],
	"accessors":[
		{
			"bufferView":0,
			"componentType":5126,
			"count":20434,
			"max":[
				500,
				164.86264038085938,
				500
			],
			"min":[
				-500,
				0,
				-500
			],
			"type":"VEC3"
		},
		{
			"bufferView":1,
			"componentType":5126,
			"count":20434,
			"type":"VEC2"
		},
		{
			"bufferView":2,
			"componentType":5126,
			"count":20434,
			"type":"VEC3"
		},
		{
			"bufferView":3,
			"componentType":5123,
			"count":58806,
			"type":"SCALAR"
		}
	],
	"bufferViews":[
		{
			"buffer":0,
			"byteLength":245208,
			"byteOffset":0,
			"target":34962
		},
		{
			"buffer":0,
			"byteLength":163472,
			"byteOffset":245208,
			"target":34962
		},
		{
			"buffer":0,
			"byteLength":245208,
			"byteOffset":408680,
			"target":34962
		},
		{
			"buffer":0,
			"byteLength":117612,
			"byteOffset":653888,
			"target":34963
		}
	],
	"buffers":[
		{
			"byteLength":771500,
			"uri":"Terrain.bin"
		}
	]
}
