{
	"asset":{
		"generator":"Khronos glTF Blender I/O v3.5.30",
		"version":"2.0"
	},
	"scene":0,
	"scenes":[
		{
			"name":"Scene",
			"nodes":[
				0
			]
		}
	],
	"nodes":[
		{
			"mesh":0,
			"name":"Terrain"
		}
	],
	"materials":[
		{
			"doubleSided":true,
			"name":"\u30de\u30c6\u30ea\u30a2\u30eb.001",
			"pbrMetallicRoughness":{
				"baseColorTexture":{
					"index":0
				},
				"metallicFactor":0,
				"roughnessFactor":0.5
			}
		}
	],
	"meshes":[
		{
			"name":"\u5e73\u9762.001",
			"primitives":[
				{
					"attributes":{
						"POSITION":0,
						"TEXCOORD_0":1,
						"NORMAL":2
					},
					"indices":3,
					"material":0
				}
			]
		}
	],
	"textures":[
		{
			"sampler":0,
			"source":0
		}
	],
	"images":[
		{
			"mimeType":"image/png",
			"name":"Terrain",
			"uri":"Terrain.png"
		}
	],
	"accessors":[
		{
			"bufferView":0,
			"componentType":5126,
			"count":31596,
			"max":[
				50.000999450683594,
				17.93025016784668,
				50
			],
			"min":[
				-50.000526428222656,
				-0.9999990463256836,
				-50.10235595703125
			],
			"type":"VEC3"
		},
		{
			"bufferView":1,
			"componentType":5126,
			"count":31596,
			"type":"VEC2"
		},
		{
			"bufferView":2,
			"componentType":5126,
			"count":31596,
			"type":"VEC3"
		},
		{
			"bufferView":3,
			"componentType":5123,
			"count":66960,
			"type":"SCALAR"
		}
	],
	"bufferViews":[
		{
			"buffer":0,
			"byteLength":379152,
			"byteOffset":0,
			"target":34962
		},
		{
			"buffer":0,
			"byteLength":252768,
			"byteOffset":379152,
			"target":34962
		},
		{
			"buffer":0,
			"byteLength":379152,
			"byteOffset":631920,
			"target":34962
		},
		{
			"buffer":0,
			"byteLength":133920,
			"byteOffset":1011072,
			"target":34963
		}
	],
	"samplers":[
		{
			"magFilter":9729,
			"minFilter":9987
		}
	],
	"buffers":[
		{
			"byteLength":1144992,
			"uri":"Terrain.bin"
		}
	]
}
