{
	"asset":{
		"generator":"Khronos glTF Blender I/O v3.5.30",
		"version":"2.0"
	},
	"scene":0,
	"scenes":[
		{
			"name":"Scene",
			"nodes":[
				0
			]
		}
	],
	"nodes":[
		{
			"mesh":0,
			"name":"1Story_GableRoof_Mat"
		}
	],
	"materials":[
		{
			"doubleSided":true,
			"name":"Glass",
			"pbrMetallicRoughness":{
				"baseColorFactor":[
					0.17464742064476013,
					0.2541521489620209,
					0.3277781009674072,
					1
				],
				"metallicFactor":0,
				"roughnessFactor":0.5
			}
		},
		{
			"doubleSided":true,
			"name":"DarkWood",
			"pbrMetallicRoughness":{
				"baseColorFactor":[
					0.13286834955215454,
					0.061246056109666824,
					0.029556844383478165,
					1
				],
				"metallicFactor":0,
				"roughnessFactor":0.5
			}
		},
		{
			"doubleSided":true,
			"name":"Dark",
			"pbrMetallicRoughness":{
				"baseColorFactor":[
					0.06847818195819855,
					0.11443537473678589,
					0.11193244159221649,
					1
				],
				"metallicFactor":0,
				"roughnessFactor":0.5
			}
		},
		{
			"doubleSided":true,
			"name":"RoofBricks",
			"pbrMetallicRoughness":{
				"baseColorFactor":[
					0.05126946046948433,
					0.08650047332048416,
					0.08437623083591461,
					1
				],
				"metallicFactor":0,
				"roughnessFactor":0.5
			}
		},
		{
			"doubleSided":true,
			"name":"Bricks",
			"pbrMetallicRoughness":{
				"baseColorFactor":[
					0.16513220965862274,
					0.30946895480155945,
					0.2622506618499756,
					1
				],
				"metallicFactor":0,
				"roughnessFactor":0.5
			}
		},
		{
			"doubleSided":true,
			"name":"Main",
			"pbrMetallicRoughness":{
				"baseColorFactor":[
					0.11504646390676498,
					0.21402867138385773,
					0.17980532348155975,
					1
				],
				"metallicFactor":0,
				"roughnessFactor":0.5
			}
		},
		{
			"doubleSided":true,
			"name":"White",
			"pbrMetallicRoughness":{
				"baseColorFactor":[
					0.5840784907341003,
					0.5840784907341003,
					0.5840784907341003,
					1
				],
				"metallicFactor":0,
				"roughnessFactor":0.5
			}
		},
		{
			"doubleSided":true,
			"name":"Wood",
			"pbrMetallicRoughness":{
				"baseColorFactor":[
					0.23839758336544037,
					0.08650047332048416,
					0.046665091067552567,
					1
				],
				"metallicFactor":0,
				"roughnessFactor":0.5
			}
		}
	],
	"meshes":[
		{
			"name":"Cube.042",
			"primitives":[
				{
					"attributes":{
						"POSITION":0,
						"TEXCOORD_0":1,
						"NORMAL":2
					},
					"indices":3,
					"material":0
				},
				{
					"attributes":{
						"POSITION":4,
						"TEXCOORD_0":5,
						"NORMAL":6
					},
					"indices":7,
					"material":1
				},
				{
					"attributes":{
						"POSITION":8,
						"TEXCOORD_0":9,
						"NORMAL":10
					},
					"indices":11,
					"material":2
				},
				{
					"attributes":{
						"POSITION":12,
						"TEXCOORD_0":13,
						"NORMAL":14
					},
					"indices":15,
					"material":3
				},
				{
					"attributes":{
						"POSITION":16,
						"TEXCOORD_0":17,
						"NORMAL":18
					},
					"indices":19,
					"material":4
				},
				{
					"attributes":{
						"POSITION":20,
						"TEXCOORD_0":21,
						"NORMAL":22
					},
					"indices":23,
					"material":5
				},
				{
					"attributes":{
						"POSITION":24,
						"TEXCOORD_0":25,
						"NORMAL":26
					},
					"indices":27,
					"material":6
				},
				{
					"attributes":{
						"POSITION":28,
						"TEXCOORD_0":29,
						"NORMAL":30
					},
					"indices":31,
					"material":7
				}
			]
		}
	],
	"accessors":[
		{
			"bufferView":0,
			"componentType":5126,
			"count":32,
			"max":[
				0.7149080634117126,
				0.8563295602798462,
				1.0037540197372437
			],
			"min":[
				-0.7149080634117126,
				0.5482780933380127,
				1.0037540197372437
			],
			"type":"VEC3"
		},
		{
			"bufferView":1,
			"componentType":5126,
			"count":32,
			"type":"VEC2"
		},
		{
			"bufferView":2,
			"componentType":5126,
			"count":32,
			"type":"VEC3"
		},
		{
			"bufferView":3,
			"componentType":5123,
			"count":48,
			"type":"SCALAR"
		},
		{
			"bufferView":4,
			"componentType":5126,
			"count":494,
			"max":[
				0.29633787274360657,
				0.9798458814620972,
				1.0975558757781982
			],
			"min":[
				-0.2963379919528961,
				0.0006664395332336426,
				0.9069340825080872
			],
			"type":"VEC3"
		},
		{
			"bufferView":5,
			"componentType":5126,
			"count":494,
			"type":"VEC2"
		},
		{
			"bufferView":6,
			"componentType":5126,
			"count":494,
			"type":"VEC3"
		},
		{
			"bufferView":7,
			"componentType":5123,
			"count":774,
			"type":"SCALAR"
		},
		{
			"bufferView":8,
			"componentType":5126,
			"count":1344,
			"max":[
				1.0526248216629028,
				2.018855094909668,
				1.1900651454925537
			],
			"min":[
				-1.0526249408721924,
				-0.0007253885269165039,
				-1.1900651454925537
			],
			"type":"VEC3"
		},
		{
			"bufferView":9,
			"componentType":5126,
			"count":1344,
			"type":"VEC2"
		},
		{
			"bufferView":10,
			"componentType":5126,
			"count":1344,
			"type":"VEC3"
		},
		{
			"bufferView":11,
			"componentType":5123,
			"count":2022,
			"type":"SCALAR"
		},
		{
			"bufferView":12,
			"componentType":5126,
			"count":392,
			"max":[
				1.0254398584365845,
				2.0060529708862305,
				1.150097131729126
			],
			"min":[
				-1.025439977645874,
				1.257336139678955,
				-1.150097131729126
			],
			"type":"VEC3"
		},
		{
			"bufferView":13,
			"componentType":5126,
			"count":392,
			"type":"VEC2"
		},
		{
			"bufferView":14,
			"componentType":5126,
			"count":392,
			"type":"VEC3"
		},
		{
			"bufferView":15,
			"componentType":5123,
			"count":594,
			"type":"SCALAR"
		},
		{
			"bufferView":16,
			"componentType":5126,
			"count":328,
			"max":[
				1.0161679983139038,
				1.6458202600479126,
				1.0161679983139038
			],
			"min":[
				-1.0161681175231934,
				0.5247570276260376,
				-1.0161681175231934
			],
			"type":"VEC3"
		},
		{
			"bufferView":17,
			"componentType":5126,
			"count":328,
			"type":"VEC2"
		},
		{
			"bufferView":18,
			"componentType":5126,
			"count":328,
			"type":"VEC3"
		},
		{
			"bufferView":19,
			"componentType":5123,
			"count":492,
			"type":"SCALAR"
		},
		{
			"bufferView":20,
			"componentType":5126,
			"count":121,
			"max":[
				0.9999999403953552,
				1.9763916730880737,
				1
			],
			"min":[
				-1,
				-0.005705088376998901,
				-1
			],
			"type":"VEC3"
		},
		{
			"bufferView":21,
			"componentType":5126,
			"count":121,
			"type":"VEC2"
		},
		{
			"bufferView":22,
			"componentType":5126,
			"count":121,
			"type":"VEC3"
		},
		{
			"bufferView":23,
			"componentType":5123,
			"count":294,
			"type":"SCALAR"
		},
		{
			"bufferView":24,
			"componentType":5126,
			"count":64,
			"max":[
				1.0194493532180786,
				0.28944122791290283,
				1.0194493532180786
			],
			"min":[
				-1.0194494724273682,
				0.01603996753692627,
				-1.0194493532180786
			],
			"type":"VEC3"
		},
		{
			"bufferView":25,
			"componentType":5126,
			"count":64,
			"type":"VEC2"
		},
		{
			"bufferView":26,
			"componentType":5126,
			"count":64,
			"type":"VEC3"
		},
		{
			"bufferView":27,
			"componentType":5123,
			"count":120,
			"type":"SCALAR"
		},
		{
			"bufferView":28,
			"componentType":5126,
			"count":334,
			"max":[
				0.7377070784568787,
				0.9182931184768677,
				1.0232373476028442
			],
			"min":[
				-0.7377070784568787,
				-0.005705088376998901,
				0.9578951001167297
			],
			"type":"VEC3"
		},
		{
			"bufferView":29,
			"componentType":5126,
			"count":334,
			"type":"VEC2"
		},
		{
			"bufferView":30,
			"componentType":5126,
			"count":334,
			"type":"VEC3"
		},
		{
			"bufferView":31,
			"componentType":5123,
			"count":708,
			"type":"SCALAR"
		}
	],
	"bufferViews":[
		{
			"buffer":0,
			"byteLength":384,
			"byteOffset":0,
			"target":34962
		},
		{
			"buffer":0,
			"byteLength":256,
			"byteOffset":384,
			"target":34962
		},
		{
			"buffer":0,
			"byteLength":384,
			"byteOffset":640,
			"target":34962
		},
		{
			"buffer":0,
			"byteLength":96,
			"byteOffset":1024,
			"target":34963
		},
		{
			"buffer":0,
			"byteLength":5928,
			"byteOffset":1120,
			"target":34962
		},
		{
			"buffer":0,
			"byteLength":3952,
			"byteOffset":7048,
			"target":34962
		},
		{
			"buffer":0,
			"byteLength":5928,
			"byteOffset":11000,
			"target":34962
		},
		{
			"buffer":0,
			"byteLength":1548,
			"byteOffset":16928,
			"target":34963
		},
		{
			"buffer":0,
			"byteLength":16128,
			"byteOffset":18476,
			"target":34962
		},
		{
			"buffer":0,
			"byteLength":10752,
			"byteOffset":34604,
			"target":34962
		},
		{
			"buffer":0,
			"byteLength":16128,
			"byteOffset":45356,
			"target":34962
		},
		{
			"buffer":0,
			"byteLength":4044,
			"byteOffset":61484,
			"target":34963
		},
		{
			"buffer":0,
			"byteLength":4704,
			"byteOffset":65528,
			"target":34962
		},
		{
			"buffer":0,
			"byteLength":3136,
			"byteOffset":70232,
			"target":34962
		},
		{
			"buffer":0,
			"byteLength":4704,
			"byteOffset":73368,
			"target":34962
		},
		{
			"buffer":0,
			"byteLength":1188,
			"byteOffset":78072,
			"target":34963
		},
		{
			"buffer":0,
			"byteLength":3936,
			"byteOffset":79260,
			"target":34962
		},
		{
			"buffer":0,
			"byteLength":2624,
			"byteOffset":83196,
			"target":34962
		},
		{
			"buffer":0,
			"byteLength":3936,
			"byteOffset":85820,
			"target":34962
		},
		{
			"buffer":0,
			"byteLength":984,
			"byteOffset":89756,
			"target":34963
		},
		{
			"buffer":0,
			"byteLength":1452,
			"byteOffset":90740,
			"target":34962
		},
		{
			"buffer":0,
			"byteLength":968,
			"byteOffset":92192,
			"target":34962
		},
		{
			"buffer":0,
			"byteLength":1452,
			"byteOffset":93160,
			"target":34962
		},
		{
			"buffer":0,
			"byteLength":588,
			"byteOffset":94612,
			"target":34963
		},
		{
			"buffer":0,
			"byteLength":768,
			"byteOffset":95200,
			"target":34962
		},
		{
			"buffer":0,
			"byteLength":512,
			"byteOffset":95968,
			"target":34962
		},
		{
			"buffer":0,
			"byteLength":768,
			"byteOffset":96480,
			"target":34962
		},
		{
			"buffer":0,
			"byteLength":240,
			"byteOffset":97248,
			"target":34963
		},
		{
			"buffer":0,
			"byteLength":4008,
			"byteOffset":97488,
			"target":34962
		},
		{
			"buffer":0,
			"byteLength":2672,
			"byteOffset":101496,
			"target":34962
		},
		{
			"buffer":0,
			"byteLength":4008,
			"byteOffset":104168,
			"target":34962
		},
		{
			"buffer":0,
			"byteLength":1416,
			"byteOffset":108176,
			"target":34963
		}
	],
	"buffers":[
		{
			"byteLength":109592,
			"uri":"data:application/octet-stream;base64,"
		}
	]
}
