{
	"asset":{
		"generator":"Khronos glTF Blender I/O v3.5.30",
		"version":"2.0"
	},
	"scene":0,
	"scenes":[
		{
			"name":"Scene",
			"nodes":[
				0
			]
		}
	],
	"nodes":[
		{
			"mesh":0,
			"name":"1Story_RoundRoof_Mat"
		}
	],
	"materials":[
		{
			"doubleSided":true,
			"name":"Bricks",
			"pbrMetallicRoughness":{
				"baseColorFactor":[
					0.16513220965862274,
					0.30946895480155945,
					0.2622506618499756,
					1
				],
				"metallicFactor":0,
				"roughnessFactor":0.5
			}
		},
		{
			"doubleSided":true,
			"name":"Main",
			"pbrMetallicRoughness":{
				"baseColorFactor":[
					0.11504646390676498,
					0.21402867138385773,
					0.17980532348155975,
					1
				],
				"metallicFactor":0,
				"roughnessFactor":0.5
			}
		},
		{
			"doubleSided":true,
			"name":"Dark",
			"pbrMetallicRoughness":{
				"baseColorFactor":[
					0.06847818195819855,
					0.11443537473678589,
					0.11193244159221649,
					1
				],
				"metallicFactor":0,
				"roughnessFactor":0.5
			}
		},
		{
			"doubleSided":true,
			"name":"White",
			"pbrMetallicRoughness":{
				"baseColorFactor":[
					0.5840784907341003,
					0.5840784907341003,
					0.5840784907341003,
					1
				],
				"metallicFactor":0,
				"roughnessFactor":0.5
			}
		},
		{
			"doubleSided":true,
			"name":"DarkWood",
			"pbrMetallicRoughness":{
				"baseColorFactor":[
					0.13286834955215454,
					0.061246056109666824,
					0.029556844383478165,
					1
				],
				"metallicFactor":0,
				"roughnessFactor":0.5
			}
		}
	],
	"meshes":[
		{
			"name":"Cube.008",
			"primitives":[
				{
					"attributes":{
						"POSITION":0,
						"TEXCOORD_0":1,
						"NORMAL":2
					},
					"indices":3,
					"material":0
				},
				{
					"attributes":{
						"POSITION":4,
						"TEXCOORD_0":5,
						"NORMAL":6
					},
					"indices":7,
					"material":1
				},
				{
					"attributes":{
						"POSITION":8,
						"TEXCOORD_0":9,
						"NORMAL":10
					},
					"indices":11,
					"material":2
				},
				{
					"attributes":{
						"POSITION":12,
						"TEXCOORD_0":13,
						"NORMAL":14
					},
					"indices":15,
					"material":3
				},
				{
					"attributes":{
						"POSITION":16,
						"TEXCOORD_0":17,
						"NORMAL":18
					},
					"indices":19,
					"material":4
				}
			]
		}
	],
	"accessors":[
		{
			"bufferView":0,
			"componentType":5126,
			"count":180,
			"max":[
				1.0161681175231934,
				1.5472675561904907,
				0.7301612496376038
			],
			"min":[
				-1.016168236732483,
				0.5152692198753357,
				-1.0161681175231934
			],
			"type":"VEC3"
		},
		{
			"bufferView":1,
			"componentType":5126,
			"count":180,
			"type":"VEC2"
		},
		{
			"bufferView":2,
			"componentType":5126,
			"count":180,
			"type":"VEC3"
		},
		{
			"bufferView":3,
			"componentType":5123,
			"count":270,
			"type":"SCALAR"
		},
		{
			"bufferView":4,
			"componentType":5126,
			"count":251,
			"max":[
				1.000000238418579,
				2.31160569190979,
				1.0628881454467773
			],
			"min":[
				-1,
				-0.015192978084087372,
				-1.0628883838653564
			],
			"type":"VEC3"
		},
		{
			"bufferView":5,
			"componentType":5126,
			"count":251,
			"type":"VEC2"
		},
		{
			"bufferView":6,
			"componentType":5126,
			"count":251,
			"type":"VEC3"
		},
		{
			"bufferView":7,
			"componentType":5123,
			"count":522,
			"type":"SCALAR"
		},
		{
			"bufferView":8,
			"componentType":5126,
			"count":3492,
			"max":[
				1.035569667816162,
				2.3679206371307373,
				1.062888264656067
			],
			"min":[
				-1.051156997680664,
				-0.01519293338060379,
				-1.0628883838653564
			],
			"type":"VEC3"
		},
		{
			"bufferView":9,
			"componentType":5126,
			"count":3492,
			"type":"VEC2"
		},
		{
			"bufferView":10,
			"componentType":5126,
			"count":3492,
			"type":"VEC3"
		},
		{
			"bufferView":11,
			"componentType":5123,
			"count":5412,
			"type":"SCALAR"
		},
		{
			"bufferView":12,
			"componentType":5126,
			"count":208,
			"max":[
				1.0194493532180786,
				1.5385960340499878,
				1.0194493532180786
			],
			"min":[
				-1.0194493532180786,
				0.006552114617079496,
				-1.0194493532180786
			],
			"type":"VEC3"
		},
		{
			"bufferView":13,
			"componentType":5126,
			"count":208,
			"type":"VEC2"
		},
		{
			"bufferView":14,
			"componentType":5126,
			"count":208,
			"type":"VEC3"
		},
		{
			"bufferView":15,
			"componentType":5123,
			"count":384,
			"type":"SCALAR"
		},
		{
			"bufferView":16,
			"componentType":5126,
			"count":288,
			"max":[
				0.21932318806648254,
				0.9037653803825378,
				0.9764477610588074
			],
			"min":[
				-0.21932318806648254,
				-0.013159370981156826,
				0.9335103034973145
			],
			"type":"VEC3"
		},
		{
			"bufferView":17,
			"componentType":5126,
			"count":288,
			"type":"VEC2"
		},
		{
			"bufferView":18,
			"componentType":5126,
			"count":288,
			"type":"VEC3"
		},
		{
			"bufferView":19,
			"componentType":5123,
			"count":636,
			"type":"SCALAR"
		}
	],
	"bufferViews":[
		{
			"buffer":0,
			"byteLength":2160,
			"byteOffset":0,
			"target":34962
		},
		{
			"buffer":0,
			"byteLength":1440,
			"byteOffset":2160,
			"target":34962
		},
		{
			"buffer":0,
			"byteLength":2160,
			"byteOffset":3600,
			"target":34962
		},
		{
			"buffer":0,
			"byteLength":540,
			"byteOffset":5760,
			"target":34963
		},
		{
			"buffer":0,
			"byteLength":3012,
			"byteOffset":6300,
			"target":34962
		},
		{
			"buffer":0,
			"byteLength":2008,
			"byteOffset":9312,
			"target":34962
		},
		{
			"buffer":0,
			"byteLength":3012,
			"byteOffset":11320,
			"target":34962
		},
		{
			"buffer":0,
			"byteLength":1044,
			"byteOffset":14332,
			"target":34963
		},
		{
			"buffer":0,
			"byteLength":41904,
			"byteOffset":15376,
			"target":34962
		},
		{
			"buffer":0,
			"byteLength":27936,
			"byteOffset":57280,
			"target":34962
		},
		{
			"buffer":0,
			"byteLength":41904,
			"byteOffset":85216,
			"target":34962
		},
		{
			"buffer":0,
			"byteLength":10824,
			"byteOffset":127120,
			"target":34963
		},
		{
			"buffer":0,
			"byteLength":2496,
			"byteOffset":137944,
			"target":34962
		},
		{
			"buffer":0,
			"byteLength":1664,
			"byteOffset":140440,
			"target":34962
		},
		{
			"buffer":0,
			"byteLength":2496,
			"byteOffset":142104,
			"target":34962
		},
		{
			"buffer":0,
			"byteLength":768,
			"byteOffset":144600,
			"target":34963
		},
		{
			"buffer":0,
			"byteLength":3456,
			"byteOffset":145368,
			"target":34962
		},
		{
			"buffer":0,
			"byteLength":2304,
			"byteOffset":148824,
			"target":34962
		},
		{
			"buffer":0,
			"byteLength":3456,
			"byteOffset":151128,
			"target":34962
		},
		{
			"buffer":0,
			"byteLength":1272,
			"byteOffset":154584,
			"target":34963
		}
	],
	"buffers":[
		{
			"byteLength":155856,
			"uri":"data:application/octet-stream;base64,"
		}
	]
}
