{
	"asset":{
		"generator":"Khronos glTF Blender I/O v3.5.30",
		"version":"2.0"
	},
	"scene":0,
	"scenes":[
		{
			"name":"Scene",
			"nodes":[
				0
			]
		}
	],
	"nodes":[
		{
			"mesh":0,
			"name":"3Story_Balcony_Mat"
		}
	],
	"materials":[
		{
			"doubleSided":true,
			"name":"Bricks",
			"pbrMetallicRoughness":{
				"baseColorFactor":[
					0.16513220965862274,
					0.30946895480155945,
					0.2622506618499756,
					1
				],
				"metallicFactor":0,
				"roughnessFactor":0.5
			}
		},
		{
			"doubleSided":true,
			"name":"Light",
			"pbrMetallicRoughness":{
				"baseColorFactor":[
					0.33716365694999695,
					0.3762621283531189,
					0.215860515832901,
					1
				],
				"metallicFactor":0,
				"roughnessFactor":0.5
			}
		},
		{
			"doubleSided":true,
			"name":"Main",
			"pbrMetallicRoughness":{
				"baseColorFactor":[
					0.11504646390676498,
					0.21402867138385773,
					0.17980532348155975,
					1
				],
				"metallicFactor":0,
				"roughnessFactor":0.5
			}
		},
		{
			"doubleSided":true,
			"name":"Dark",
			"pbrMetallicRoughness":{
				"baseColorFactor":[
					0.06847818195819855,
					0.11443537473678589,
					0.11193244159221649,
					1
				],
				"metallicFactor":0,
				"roughnessFactor":0.5
			}
		},
		{
			"doubleSided":true,
			"name":"White",
			"pbrMetallicRoughness":{
				"baseColorFactor":[
					0.5840784907341003,
					0.5840784907341003,
					0.5840784907341003,
					1
				],
				"metallicFactor":0,
				"roughnessFactor":0.5
			}
		},
		{
			"doubleSided":true,
			"name":"Wood",
			"pbrMetallicRoughness":{
				"baseColorFactor":[
					0.23839758336544037,
					0.08650047332048416,
					0.046665091067552567,
					1
				],
				"metallicFactor":0,
				"roughnessFactor":0.5
			}
		},
		{
			"doubleSided":true,
			"name":"DarkWood",
			"pbrMetallicRoughness":{
				"baseColorFactor":[
					0.13286834955215454,
					0.061246056109666824,
					0.029556844383478165,
					1
				],
				"metallicFactor":0,
				"roughnessFactor":0.5
			}
		},
		{
			"doubleSided":true,
			"name":"Glass",
			"pbrMetallicRoughness":{
				"baseColorFactor":[
					0.17464742064476013,
					0.2541521489620209,
					0.3277781009674072,
					1
				],
				"metallicFactor":0,
				"roughnessFactor":0.5
			}
		},
		{
			"doubleSided":true,
			"name":"Black",
			"pbrMetallicRoughness":{
				"baseColorFactor":[
					0.0666259378194809,
					0.0666259378194809,
					0.0666259378194809,
					1
				],
				"metallicFactor":0,
				"roughnessFactor":0.5
			}
		}
	],
	"meshes":[
		{
			"name":"Cube.026",
			"primitives":[
				{
					"attributes":{
						"POSITION":0,
						"TEXCOORD_0":1,
						"NORMAL":2
					},
					"indices":3,
					"material":0
				},
				{
					"attributes":{
						"POSITION":4,
						"TEXCOORD_0":5,
						"NORMAL":6
					},
					"indices":7,
					"material":1
				},
				{
					"attributes":{
						"POSITION":8,
						"TEXCOORD_0":9,
						"NORMAL":10
					},
					"indices":11,
					"material":2
				},
				{
					"attributes":{
						"POSITION":12,
						"TEXCOORD_0":13,
						"NORMAL":14
					},
					"indices":15,
					"material":3
				},
				{
					"attributes":{
						"POSITION":16,
						"TEXCOORD_0":17,
						"NORMAL":18
					},
					"indices":19,
					"material":4
				},
				{
					"attributes":{
						"POSITION":20,
						"TEXCOORD_0":21,
						"NORMAL":22
					},
					"indices":23,
					"material":5
				},
				{
					"attributes":{
						"POSITION":24,
						"TEXCOORD_0":25,
						"NORMAL":26
					},
					"indices":27,
					"material":6
				},
				{
					"attributes":{
						"POSITION":28,
						"TEXCOORD_0":29,
						"NORMAL":30
					},
					"indices":31,
					"material":7
				},
				{
					"attributes":{
						"POSITION":32,
						"TEXCOORD_0":33,
						"NORMAL":34
					},
					"indices":35,
					"material":8
				}
			]
		}
	],
	"accessors":[
		{
			"bufferView":0,
			"componentType":5126,
			"count":1478,
			"max":[
				1.0161683559417725,
				4.135003566741943,
				1.016168236732483
			],
			"min":[
				-1.0161683559417725,
				0.4748179614543915,
				-1.016168236732483
			],
			"type":"VEC3"
		},
		{
			"bufferView":1,
			"componentType":5126,
			"count":1478,
			"type":"VEC2"
		},
		{
			"bufferView":2,
			"componentType":5126,
			"count":1478,
			"type":"VEC3"
		},
		{
			"bufferView":3,
			"componentType":5123,
			"count":2364,
			"type":"SCALAR"
		},
		{
			"bufferView":4,
			"componentType":5126,
			"count":1992,
			"max":[
				1.0793230533599854,
				4.079475402832031,
				1.4304273128509521
			],
			"min":[
				-1.0793229341506958,
				1.304356336593628,
				-1.077302098274231
			],
			"type":"VEC3"
		},
		{
			"bufferView":5,
			"componentType":5126,
			"count":1992,
			"type":"VEC2"
		},
		{
			"bufferView":6,
			"componentType":5126,
			"count":1992,
			"type":"VEC3"
		},
		{
			"bufferView":7,
			"componentType":5123,
			"count":3390,
			"type":"SCALAR"
		},
		{
			"bufferView":8,
			"componentType":5126,
			"count":297,
			"max":[
				1,
				3.965665817260742,
				1.4212028980255127
			],
			"min":[
				-1,
				-0.003245369764044881,
				-1
			],
			"type":"VEC3"
		},
		{
			"bufferView":9,
			"componentType":5126,
			"count":297,
			"type":"VEC2"
		},
		{
			"bufferView":10,
			"componentType":5126,
			"count":297,
			"type":"VEC3"
		},
		{
			"bufferView":11,
			"componentType":5123,
			"count":768,
			"type":"SCALAR"
		},
		{
			"bufferView":12,
			"componentType":5126,
			"count":1774,
			"max":[
				1.0481771230697632,
				4.046619415283203,
				1.0435564517974854
			],
			"min":[
				-1.045927882194519,
				-0.003245369764044881,
				-1.0513253211975098
			],
			"type":"VEC3"
		},
		{
			"bufferView":13,
			"componentType":5126,
			"count":1774,
			"type":"VEC2"
		},
		{
			"bufferView":14,
			"componentType":5126,
			"count":1774,
			"type":"VEC3"
		},
		{
			"bufferView":15,
			"componentType":5123,
			"count":2676,
			"type":"SCALAR"
		},
		{
			"bufferView":16,
			"componentType":5126,
			"count":208,
			"max":[
				1.0194493532180786,
				4.209279537200928,
				1.0194493532180786
			],
			"min":[
				-1.0194493532180786,
				-0.0032453692983835936,
				-1.0194493532180786
			],
			"type":"VEC3"
		},
		{
			"bufferView":17,
			"componentType":5126,
			"count":208,
			"type":"VEC2"
		},
		{
			"bufferView":18,
			"componentType":5126,
			"count":208,
			"type":"VEC3"
		},
		{
			"bufferView":19,
			"componentType":5123,
			"count":360,
			"type":"SCALAR"
		},
		{
			"bufferView":20,
			"componentType":5126,
			"count":1306,
			"max":[
				0.7377070784568787,
				3.4377105236053467,
				1.0975558757781982
			],
			"min":[
				-0.7377071380615234,
				0.1790655106306076,
				0.9069340229034424
			],
			"type":"VEC3"
		},
		{
			"bufferView":21,
			"componentType":5126,
			"count":1306,
			"type":"VEC2"
		},
		{
			"bufferView":22,
			"componentType":5126,
			"count":1306,
			"type":"VEC3"
		},
		{
			"bufferView":23,
			"componentType":5123,
			"count":2802,
			"type":"SCALAR"
		},
		{
			"bufferView":24,
			"componentType":5126,
			"count":1107,
			"max":[
				0.21932318806648254,
				3.6623446941375732,
				0.9985367655754089
			],
			"min":[
				-0.22216764092445374,
				0.16490285098552704,
				0.9394955635070801
			],
			"type":"VEC3"
		},
		{
			"bufferView":25,
			"componentType":5126,
			"count":1107,
			"type":"VEC2"
		},
		{
			"bufferView":26,
			"componentType":5126,
			"count":1107,
			"type":"VEC3"
		},
		{
			"bufferView":27,
			"componentType":5123,
			"count":2580,
			"type":"SCALAR"
		},
		{
			"bufferView":28,
			"componentType":5126,
			"count":173,
			"max":[
				0.7149080634117126,
				3.543308973312378,
				1.0037540197372437
			],
			"min":[
				-0.7149081230163574,
				0.538790225982666,
				0.9803189039230347
			],
			"type":"VEC3"
		},
		{
			"bufferView":29,
			"componentType":5126,
			"count":173,
			"type":"VEC2"
		},
		{
			"bufferView":30,
			"componentType":5126,
			"count":173,
			"type":"VEC3"
		},
		{
			"bufferView":31,
			"componentType":5123,
			"count":336,
			"type":"SCALAR"
		},
		{
			"bufferView":32,
			"componentType":5126,
			"count":192,
			"max":[
				0.7473294734954834,
				4.195109844207764,
				-0.44126129150390625
			],
			"min":[
				0.247725248336792,
				4.04672384262085,
				-0.7097923755645752
			],
			"type":"VEC3"
		},
		{
			"bufferView":33,
			"componentType":5126,
			"count":192,
			"type":"VEC2"
		},
		{
			"bufferView":34,
			"componentType":5126,
			"count":192,
			"type":"VEC3"
		},
		{
			"bufferView":35,
			"componentType":5123,
			"count":336,
			"type":"SCALAR"
		}
	],
	"bufferViews":[
		{
			"buffer":0,
			"byteLength":17736,
			"byteOffset":0,
			"target":34962
		},
		{
			"buffer":0,
			"byteLength":11824,
			"byteOffset":17736,
			"target":34962
		},
		{
			"buffer":0,
			"byteLength":17736,
			"byteOffset":29560,
			"target":34962
		},
		{
			"buffer":0,
			"byteLength":4728,
			"byteOffset":47296,
			"target":34963
		},
		{
			"buffer":0,
			"byteLength":23904,
			"byteOffset":52024,
			"target":34962
		},
		{
			"buffer":0,
			"byteLength":15936,
			"byteOffset":75928,
			"target":34962
		},
		{
			"buffer":0,
			"byteLength":23904,
			"byteOffset":91864,
			"target":34962
		},
		{
			"buffer":0,
			"byteLength":6780,
			"byteOffset":115768,
			"target":34963
		},
		{
			"buffer":0,
			"byteLength":3564,
			"byteOffset":122548,
			"target":34962
		},
		{
			"buffer":0,
			"byteLength":2376,
			"byteOffset":126112,
			"target":34962
		},
		{
			"buffer":0,
			"byteLength":3564,
			"byteOffset":128488,
			"target":34962
		},
		{
			"buffer":0,
			"byteLength":1536,
			"byteOffset":132052,
			"target":34963
		},
		{
			"buffer":0,
			"byteLength":21288,
			"byteOffset":133588,
			"target":34962
		},
		{
			"buffer":0,
			"byteLength":14192,
			"byteOffset":154876,
			"target":34962
		},
		{
			"buffer":0,
			"byteLength":21288,
			"byteOffset":169068,
			"target":34962
		},
		{
			"buffer":0,
			"byteLength":5352,
			"byteOffset":190356,
			"target":34963
		},
		{
			"buffer":0,
			"byteLength":2496,
			"byteOffset":195708,
			"target":34962
		},
		{
			"buffer":0,
			"byteLength":1664,
			"byteOffset":198204,
			"target":34962
		},
		{
			"buffer":0,
			"byteLength":2496,
			"byteOffset":199868,
			"target":34962
		},
		{
			"buffer":0,
			"byteLength":720,
			"byteOffset":202364,
			"target":34963
		},
		{
			"buffer":0,
			"byteLength":15672,
			"byteOffset":203084,
			"target":34962
		},
		{
			"buffer":0,
			"byteLength":10448,
			"byteOffset":218756,
			"target":34962
		},
		{
			"buffer":0,
			"byteLength":15672,
			"byteOffset":229204,
			"target":34962
		},
		{
			"buffer":0,
			"byteLength":5604,
			"byteOffset":244876,
			"target":34963
		},
		{
			"buffer":0,
			"byteLength":13284,
			"byteOffset":250480,
			"target":34962
		},
		{
			"buffer":0,
			"byteLength":8856,
			"byteOffset":263764,
			"target":34962
		},
		{
			"buffer":0,
			"byteLength":13284,
			"byteOffset":272620,
			"target":34962
		},
		{
			"buffer":0,
			"byteLength":5160,
			"byteOffset":285904,
			"target":34963
		},
		{
			"buffer":0,
			"byteLength":2076,
			"byteOffset":291064,
			"target":34962
		},
		{
			"buffer":0,
			"byteLength":1384,
			"byteOffset":293140,
			"target":34962
		},
		{
			"buffer":0,
			"byteLength":2076,
			"byteOffset":294524,
			"target":34962
		},
		{
			"buffer":0,
			"byteLength":672,
			"byteOffset":296600,
			"target":34963
		},
		{
			"buffer":0,
			"byteLength":2304,
			"byteOffset":297272,
			"target":34962
		},
		{
			"buffer":0,
			"byteLength":1536,
			"byteOffset":299576,
			"target":34962
		},
		{
			"buffer":0,
			"byteLength":2304,
			"byteOffset":301112,
			"target":34962
		},
		{
			"buffer":0,
			"byteLength":672,
			"byteOffset":303416,
			"target":34963
		}
	],
	"buffers":[
		{
			"byteLength":304088,
			"uri":"data:application/octet-stream;base64,"
		}
	]
}
