{
	"asset":{
		"generator":"Khronos glTF Blender I/O v3.5.30",
		"version":"2.0"
	},
	"scene":0,
	"scenes":[
		{
			"name":"Scene",
			"nodes":[
				0
			]
		}
	],
	"nodes":[
		{
			"mesh":0,
			"name":"4Story_Wide_2Doors_Mat"
		}
	],
	"materials":[
		{
			"doubleSided":true,
			"name":"Windows",
			"pbrMetallicRoughness":{
				"baseColorFactor":[
					0.35153263807296753,
					0.35153263807296753,
					0.35153263807296753,
					1
				],
				"metallicFactor":0,
				"roughnessFactor":0.5
			}
		},
		{
			"doubleSided":true,
			"name":"Glass",
			"pbrMetallicRoughness":{
				"baseColorFactor":[
					0.17464742064476013,
					0.2541521489620209,
					0.3277781009674072,
					1
				],
				"metallicFactor":0,
				"roughnessFactor":0.5
			}
		},
		{
			"doubleSided":true,
			"name":"Bricks",
			"pbrMetallicRoughness":{
				"baseColorFactor":[
					0.16513220965862274,
					0.30946895480155945,
					0.2622506618499756,
					1
				],
				"metallicFactor":0,
				"roughnessFactor":0.5
			}
		},
		{
			"doubleSided":true,
			"name":"Main",
			"pbrMetallicRoughness":{
				"baseColorFactor":[
					0.11504646390676498,
					0.21402867138385773,
					0.17980532348155975,
					1
				],
				"metallicFactor":0,
				"roughnessFactor":0.5
			}
		},
		{
			"doubleSided":true,
			"name":"Dark",
			"pbrMetallicRoughness":{
				"baseColorFactor":[
					0.06847818195819855,
					0.11443537473678589,
					0.11193244159221649,
					1
				],
				"metallicFactor":0,
				"roughnessFactor":0.5
			}
		},
		{
			"doubleSided":true,
			"name":"White",
			"pbrMetallicRoughness":{
				"baseColorFactor":[
					0.5840784907341003,
					0.5840784907341003,
					0.5840784907341003,
					1
				],
				"metallicFactor":0,
				"roughnessFactor":0.5
			}
		},
		{
			"doubleSided":true,
			"name":"Black",
			"pbrMetallicRoughness":{
				"baseColorFactor":[
					0.0666259378194809,
					0.0666259378194809,
					0.0666259378194809,
					1
				],
				"metallicFactor":0,
				"roughnessFactor":0.5
			}
		},
		{
			"doubleSided":true,
			"name":"DarkBrown",
			"pbrMetallicRoughness":{
				"baseColorFactor":[
					0.09850160032510757,
					0.05440790206193924,
					0.037490133196115494,
					1
				],
				"metallicFactor":0,
				"roughnessFactor":0.5
			}
		}
	],
	"meshes":[
		{
			"name":"Cube.013",
			"primitives":[
				{
					"attributes":{
						"POSITION":0,
						"TEXCOORD_0":1,
						"NORMAL":2
					},
					"indices":3,
					"material":0
				},
				{
					"attributes":{
						"POSITION":4,
						"TEXCOORD_0":5,
						"NORMAL":6
					},
					"indices":7,
					"material":1
				},
				{
					"attributes":{
						"POSITION":8,
						"TEXCOORD_0":9,
						"NORMAL":10
					},
					"indices":11,
					"material":2
				},
				{
					"attributes":{
						"POSITION":12,
						"TEXCOORD_0":13,
						"NORMAL":14
					},
					"indices":15,
					"material":3
				},
				{
					"attributes":{
						"POSITION":16,
						"TEXCOORD_0":17,
						"NORMAL":18
					},
					"indices":19,
					"material":4
				},
				{
					"attributes":{
						"POSITION":20,
						"TEXCOORD_0":21,
						"NORMAL":22
					},
					"indices":23,
					"material":5
				},
				{
					"attributes":{
						"POSITION":24,
						"TEXCOORD_0":25,
						"NORMAL":26
					},
					"indices":27,
					"material":6
				},
				{
					"attributes":{
						"POSITION":28,
						"TEXCOORD_0":29,
						"NORMAL":30
					},
					"indices":31,
					"material":7
				}
			]
		}
	],
	"accessors":[
		{
			"bufferView":0,
			"componentType":5126,
			"count":6914,
			"max":[
				3.07352614402771,
				4.527365684509277,
				1.0232374668121338
			],
			"min":[
				-3.07352614402771,
				-0.00431157648563385,
				0.6712560057640076
			],
			"type":"VEC3"
		},
		{
			"bufferView":1,
			"componentType":5126,
			"count":6914,
			"type":"VEC2"
		},
		{
			"bufferView":2,
			"componentType":5126,
			"count":6914,
			"type":"VEC3"
		},
		{
			"bufferView":3,
			"componentType":5123,
			"count":15792,
			"type":"SCALAR"
		},
		{
			"bufferView":4,
			"componentType":5126,
			"count":776,
			"max":[
				3.050727128982544,
				4.507327079772949,
				1.0037540197372437
			],
			"min":[
				-3.050727128982544,
				0.24583327770233154,
				0.7163571715354919
			],
			"type":"VEC3"
		},
		{
			"bufferView":5,
			"componentType":5126,
			"count":776,
			"type":"VEC2"
		},
		{
			"bufferView":6,
			"componentType":5126,
			"count":776,
			"type":"VEC3"
		},
		{
			"bufferView":7,
			"componentType":5123,
			"count":1164,
			"type":"SCALAR"
		},
		{
			"bufferView":8,
			"componentType":5126,
			"count":3574,
			"max":[
				3.365340232849121,
				5.052522659301758,
				1.0161679983139038
			],
			"min":[
				-3.365340232849121,
				0.29938316345214844,
				-1.0161681175231934
			],
			"type":"VEC3"
		},
		{
			"bufferView":9,
			"componentType":5126,
			"count":3574,
			"type":"VEC2"
		},
		{
			"bufferView":10,
			"componentType":5126,
			"count":3574,
			"type":"VEC3"
		},
		{
			"bufferView":11,
			"componentType":5123,
			"count":5676,
			"type":"SCALAR"
		},
		{
			"bufferView":12,
			"componentType":5126,
			"count":465,
			"max":[
				3.3345892429351807,
				4.885393142700195,
				1.5947335958480835
			],
			"min":[
				-3.3345892429351807,
				-0.02458047866821289,
				-1
			],
			"type":"VEC3"
		},
		{
			"bufferView":13,
			"componentType":5126,
			"count":465,
			"type":"VEC2"
		},
		{
			"bufferView":14,
			"componentType":5126,
			"count":465,
			"type":"VEC3"
		},
		{
			"bufferView":15,
			"componentType":5123,
			"count":804,
			"type":"SCALAR"
		},
		{
			"bufferView":16,
			"componentType":5126,
			"count":3708,
			"max":[
				3.3737740516662598,
				4.955709934234619,
				1.0623292922973633
			],
			"min":[
				-3.37807559967041,
				-0.015751022845506668,
				-1.0513253211975098
			],
			"type":"VEC3"
		},
		{
			"bufferView":17,
			"componentType":5126,
			"count":3708,
			"type":"VEC2"
		},
		{
			"bufferView":18,
			"componentType":5126,
			"count":3708,
			"type":"VEC3"
		},
		{
			"bufferView":19,
			"componentType":5123,
			"count":6084,
			"type":"SCALAR"
		},
		{
			"bufferView":20,
			"componentType":5126,
			"count":4992,
			"max":[
				3.413912773132324,
				5.126798629760742,
				1.6190214157104492
			],
			"min":[
				-3.413912773132324,
				-0.00431157648563385,
				-1.0773022174835205
			],
			"type":"VEC3"
		},
		{
			"bufferView":21,
			"componentType":5126,
			"count":4992,
			"type":"VEC2"
		},
		{
			"bufferView":22,
			"componentType":5126,
			"count":4992,
			"type":"VEC3"
		},
		{
			"bufferView":23,
			"componentType":5123,
			"count":9156,
			"type":"SCALAR"
		},
		{
			"bufferView":24,
			"componentType":5126,
			"count":384,
			"max":[
				3.0172278881073,
				5.112628936767578,
				0.6301593780517578
			],
			"min":[
				-3.11637806892395,
				4.964242458343506,
				-0.7886790037155151
			],
			"type":"VEC3"
		},
		{
			"bufferView":25,
			"componentType":5126,
			"count":384,
			"type":"VEC2"
		},
		{
			"bufferView":26,
			"componentType":5126,
			"count":384,
			"type":"VEC3"
		},
		{
			"bufferView":27,
			"componentType":5123,
			"count":672,
			"type":"SCALAR"
		},
		{
			"bufferView":28,
			"componentType":5126,
			"count":784,
			"max":[
				1.2099276781082153,
				1.080100417137146,
				0.7405893802642822
			],
			"min":[
				-1.196762204170227,
				0.17350590229034424,
				0.6910227537155151
			],
			"type":"VEC3"
		},
		{
			"bufferView":29,
			"componentType":5126,
			"count":784,
			"type":"VEC2"
		},
		{
			"bufferView":30,
			"componentType":5126,
			"count":784,
			"type":"VEC3"
		},
		{
			"bufferView":31,
			"componentType":5123,
			"count":1344,
			"type":"SCALAR"
		}
	],
	"bufferViews":[
		{
			"buffer":0,
			"byteLength":82968,
			"byteOffset":0,
			"target":34962
		},
		{
			"buffer":0,
			"byteLength":55312,
			"byteOffset":82968,
			"target":34962
		},
		{
			"buffer":0,
			"byteLength":82968,
			"byteOffset":138280,
			"target":34962
		},
		{
			"buffer":0,
			"byteLength":31584,
			"byteOffset":221248,
			"target":34963
		},
		{
			"buffer":0,
			"byteLength":9312,
			"byteOffset":252832,
			"target":34962
		},
		{
			"buffer":0,
			"byteLength":6208,
			"byteOffset":262144,
			"target":34962
		},
		{
			"buffer":0,
			"byteLength":9312,
			"byteOffset":268352,
			"target":34962
		},
		{
			"buffer":0,
			"byteLength":2328,
			"byteOffset":277664,
			"target":34963
		},
		{
			"buffer":0,
			"byteLength":42888,
			"byteOffset":279992,
			"target":34962
		},
		{
			"buffer":0,
			"byteLength":28592,
			"byteOffset":322880,
			"target":34962
		},
		{
			"buffer":0,
			"byteLength":42888,
			"byteOffset":351472,
			"target":34962
		},
		{
			"buffer":0,
			"byteLength":11352,
			"byteOffset":394360,
			"target":34963
		},
		{
			"buffer":0,
			"byteLength":5580,
			"byteOffset":405712,
			"target":34962
		},
		{
			"buffer":0,
			"byteLength":3720,
			"byteOffset":411292,
			"target":34962
		},
		{
			"buffer":0,
			"byteLength":5580,
			"byteOffset":415012,
			"target":34962
		},
		{
			"buffer":0,
			"byteLength":1608,
			"byteOffset":420592,
			"target":34963
		},
		{
			"buffer":0,
			"byteLength":44496,
			"byteOffset":422200,
			"target":34962
		},
		{
			"buffer":0,
			"byteLength":29664,
			"byteOffset":466696,
			"target":34962
		},
		{
			"buffer":0,
			"byteLength":44496,
			"byteOffset":496360,
			"target":34962
		},
		{
			"buffer":0,
			"byteLength":12168,
			"byteOffset":540856,
			"target":34963
		},
		{
			"buffer":0,
			"byteLength":59904,
			"byteOffset":553024,
			"target":34962
		},
		{
			"buffer":0,
			"byteLength":39936,
			"byteOffset":612928,
			"target":34962
		},
		{
			"buffer":0,
			"byteLength":59904,
			"byteOffset":652864,
			"target":34962
		},
		{
			"buffer":0,
			"byteLength":18312,
			"byteOffset":712768,
			"target":34963
		},
		{
			"buffer":0,
			"byteLength":4608,
			"byteOffset":731080,
			"target":34962
		},
		{
			"buffer":0,
			"byteLength":3072,
			"byteOffset":735688,
			"target":34962
		},
		{
			"buffer":0,
			"byteLength":4608,
			"byteOffset":738760,
			"target":34962
		},
		{
			"buffer":0,
			"byteLength":1344,
			"byteOffset":743368,
			"target":34963
		},
		{
			"buffer":0,
			"byteLength":9408,
			"byteOffset":744712,
			"target":34962
		},
		{
			"buffer":0,
			"byteLength":6272,
			"byteOffset":754120,
			"target":34962
		},
		{
			"buffer":0,
			"byteLength":9408,
			"byteOffset":760392,
			"target":34962
		},
		{
			"buffer":0,
			"byteLength":2688,
			"byteOffset":769800,
			"target":34963
		}
	],
	"buffers":[
		{
			"byteLength":772488,
			"uri":"data:application/octet-stream;base64,"
		}
	]
}
