{
	"asset":{
		"generator":"Khronos glTF Blender I/O v3.5.30",
		"version":"2.0"
	},
	"scene":0,
	"scenes":[
		{
			"name":"Scene",
			"nodes":[
				0
			]
		}
	],
	"nodes":[
		{
			"mesh":0,
			"name":"6Story_Stack_Mat"
		}
	],
	"materials":[
		{
			"doubleSided":true,
			"name":"Bricks",
			"pbrMetallicRoughness":{
				"baseColorFactor":[
					0.16513220965862274,
					0.30946895480155945,
					0.2622506618499756,
					1
				],
				"metallicFactor":0,
				"roughnessFactor":0.5
			}
		},
		{
			"doubleSided":true,
			"name":"Light",
			"pbrMetallicRoughness":{
				"baseColorFactor":[
					0.33716365694999695,
					0.3762621283531189,
					0.215860515832901,
					1
				],
				"metallicFactor":0,
				"roughnessFactor":0.5
			}
		},
		{
			"doubleSided":true,
			"name":"Main",
			"pbrMetallicRoughness":{
				"baseColorFactor":[
					0.11504646390676498,
					0.21402867138385773,
					0.17980532348155975,
					1
				],
				"metallicFactor":0,
				"roughnessFactor":0.5
			}
		},
		{
			"doubleSided":true,
			"name":"Dark",
			"pbrMetallicRoughness":{
				"baseColorFactor":[
					0.06847818195819855,
					0.11443537473678589,
					0.11193244159221649,
					1
				],
				"metallicFactor":0,
				"roughnessFactor":0.5
			}
		},
		{
			"doubleSided":true,
			"name":"White",
			"pbrMetallicRoughness":{
				"baseColorFactor":[
					0.5840784907341003,
					0.5840784907341003,
					0.5840784907341003,
					1
				],
				"metallicFactor":0,
				"roughnessFactor":0.5
			}
		},
		{
			"doubleSided":true,
			"name":"Wood",
			"pbrMetallicRoughness":{
				"baseColorFactor":[
					0.23839758336544037,
					0.08650047332048416,
					0.046665091067552567,
					1
				],
				"metallicFactor":0,
				"roughnessFactor":0.5
			}
		},
		{
			"doubleSided":true,
			"name":"DarkWood",
			"pbrMetallicRoughness":{
				"baseColorFactor":[
					0.13286834955215454,
					0.061246056109666824,
					0.029556844383478165,
					1
				],
				"metallicFactor":0,
				"roughnessFactor":0.5
			}
		},
		{
			"doubleSided":true,
			"name":"Glass",
			"pbrMetallicRoughness":{
				"baseColorFactor":[
					0.17464742064476013,
					0.2541521489620209,
					0.3277781009674072,
					1
				],
				"metallicFactor":0,
				"roughnessFactor":0.5
			}
		},
		{
			"doubleSided":true,
			"name":"Black",
			"pbrMetallicRoughness":{
				"baseColorFactor":[
					0.0666259378194809,
					0.0666259378194809,
					0.0666259378194809,
					1
				],
				"metallicFactor":0,
				"roughnessFactor":0.5
			}
		}
	],
	"meshes":[
		{
			"name":"Cube.012",
			"primitives":[
				{
					"attributes":{
						"POSITION":0,
						"TEXCOORD_0":1,
						"NORMAL":2
					},
					"indices":3,
					"material":0
				},
				{
					"attributes":{
						"POSITION":4,
						"TEXCOORD_0":5,
						"NORMAL":6
					},
					"indices":7,
					"material":1
				},
				{
					"attributes":{
						"POSITION":8,
						"TEXCOORD_0":9,
						"NORMAL":10
					},
					"indices":11,
					"material":2
				},
				{
					"attributes":{
						"POSITION":12,
						"TEXCOORD_0":13,
						"NORMAL":14
					},
					"indices":15,
					"material":3
				},
				{
					"attributes":{
						"POSITION":16,
						"TEXCOORD_0":17,
						"NORMAL":18
					},
					"indices":19,
					"material":4
				},
				{
					"attributes":{
						"POSITION":20,
						"TEXCOORD_0":21,
						"NORMAL":22
					},
					"indices":23,
					"material":5
				},
				{
					"attributes":{
						"POSITION":24,
						"TEXCOORD_0":25,
						"NORMAL":26
					},
					"indices":27,
					"material":6
				},
				{
					"attributes":{
						"POSITION":28,
						"TEXCOORD_0":29,
						"NORMAL":30
					},
					"indices":31,
					"material":7
				},
				{
					"attributes":{
						"POSITION":32,
						"TEXCOORD_0":33,
						"NORMAL":34
					},
					"indices":35,
					"material":8
				}
			]
		}
	],
	"accessors":[
		{
			"bufferView":0,
			"componentType":5126,
			"count":2512,
			"max":[
				1.0161683559417725,
				7.725844383239746,
				1.016168236732483
			],
			"min":[
				-1.0161683559417725,
				0.4748179614543915,
				-1.016168236732483
			],
			"type":"VEC3"
		},
		{
			"bufferView":1,
			"componentType":5126,
			"count":2512,
			"type":"VEC2"
		},
		{
			"bufferView":2,
			"componentType":5126,
			"count":2512,
			"type":"VEC3"
		},
		{
			"bufferView":3,
			"componentType":5123,
			"count":3888,
			"type":"SCALAR"
		},
		{
			"bufferView":4,
			"componentType":5126,
			"count":2624,
			"max":[
				1.0793230533599854,
				7.6683244705200195,
				1.077302098274231
			],
			"min":[
				-1.0793229341506958,
				1.304356336593628,
				-1.077302098274231
			],
			"type":"VEC3"
		},
		{
			"bufferView":5,
			"componentType":5126,
			"count":2624,
			"type":"VEC2"
		},
		{
			"bufferView":6,
			"componentType":5126,
			"count":2624,
			"type":"VEC3"
		},
		{
			"bufferView":7,
			"componentType":5123,
			"count":4920,
			"type":"SCALAR"
		},
		{
			"bufferView":8,
			"componentType":5126,
			"count":487,
			"max":[
				1,
				7.552717208862305,
				1.4212028980255127
			],
			"min":[
				-1,
				-0.003245369764044881,
				-1
			],
			"type":"VEC3"
		},
		{
			"bufferView":9,
			"componentType":5126,
			"count":487,
			"type":"VEC2"
		},
		{
			"bufferView":10,
			"componentType":5126,
			"count":487,
			"type":"VEC3"
		},
		{
			"bufferView":11,
			"componentType":5123,
			"count":1446,
			"type":"SCALAR"
		},
		{
			"bufferView":12,
			"componentType":5126,
			"count":2154,
			"max":[
				1.0481771230697632,
				7.635468482971191,
				1.0435564517974854
			],
			"min":[
				-1.045927882194519,
				-0.003245369764044881,
				-1.0513253211975098
			],
			"type":"VEC3"
		},
		{
			"bufferView":13,
			"componentType":5126,
			"count":2154,
			"type":"VEC2"
		},
		{
			"bufferView":14,
			"componentType":5126,
			"count":2154,
			"type":"VEC3"
		},
		{
			"bufferView":15,
			"componentType":5123,
			"count":3324,
			"type":"SCALAR"
		},
		{
			"bufferView":16,
			"componentType":5126,
			"count":136,
			"max":[
				1.0194493532180786,
				7.8001203536987305,
				1.0194493532180786
			],
			"min":[
				-1.0194493532180786,
				-0.0032453692983835936,
				-1.0194493532180786
			],
			"type":"VEC3"
		},
		{
			"bufferView":17,
			"componentType":5126,
			"count":136,
			"type":"VEC2"
		},
		{
			"bufferView":18,
			"componentType":5126,
			"count":136,
			"type":"VEC3"
		},
		{
			"bufferView":19,
			"componentType":5123,
			"count":240,
			"type":"SCALAR"
		},
		{
			"bufferView":20,
			"componentType":5126,
			"count":3054,
			"max":[
				0.7377070784568787,
				7.189196586608887,
				1.0975558757781982
			],
			"min":[
				-0.7377071380615234,
				0.1790655106306076,
				0.8655836582183838
			],
			"type":"VEC3"
		},
		{
			"bufferView":21,
			"componentType":5126,
			"count":3054,
			"type":"VEC2"
		},
		{
			"bufferView":22,
			"componentType":5126,
			"count":3054,
			"type":"VEC3"
		},
		{
			"bufferView":23,
			"componentType":5123,
			"count":6858,
			"type":"SCALAR"
		},
		{
			"bufferView":24,
			"componentType":5126,
			"count":233,
			"max":[
				0.21932318806648254,
				1.08058500289917,
				0.9789780974388123
			],
			"min":[
				-0.21932318806648254,
				0.16366030275821686,
				0.9360405802726746
			],
			"type":"VEC3"
		},
		{
			"bufferView":25,
			"componentType":5126,
			"count":233,
			"type":"VEC2"
		},
		{
			"bufferView":26,
			"componentType":5126,
			"count":233,
			"type":"VEC3"
		},
		{
			"bufferView":27,
			"componentType":5123,
			"count":474,
			"type":"SCALAR"
		},
		{
			"bufferView":28,
			"componentType":5126,
			"count":272,
			"max":[
				0.7149080634117126,
				7.1644768714904785,
				1.0037540197372437
			],
			"min":[
				-0.7149081230163574,
				0.538790225982666,
				0.9024802446365356
			],
			"type":"VEC3"
		},
		{
			"bufferView":29,
			"componentType":5126,
			"count":272,
			"type":"VEC2"
		},
		{
			"bufferView":30,
			"componentType":5126,
			"count":272,
			"type":"VEC3"
		},
		{
			"bufferView":31,
			"componentType":5123,
			"count":408,
			"type":"SCALAR"
		},
		{
			"bufferView":32,
			"componentType":5126,
			"count":96,
			"max":[
				-0.30734896659851074,
				7.78594970703125,
				-0.45606327056884766
			],
			"min":[
				-0.7932989597320557,
				7.637563705444336,
				-0.4963502883911133
			],
			"type":"VEC3"
		},
		{
			"bufferView":33,
			"componentType":5126,
			"count":96,
			"type":"VEC2"
		},
		{
			"bufferView":34,
			"componentType":5126,
			"count":96,
			"type":"VEC3"
		},
		{
			"bufferView":35,
			"componentType":5123,
			"count":168,
			"type":"SCALAR"
		}
	],
	"bufferViews":[
		{
			"buffer":0,
			"byteLength":30144,
			"byteOffset":0,
			"target":34962
		},
		{
			"buffer":0,
			"byteLength":20096,
			"byteOffset":30144,
			"target":34962
		},
		{
			"buffer":0,
			"byteLength":30144,
			"byteOffset":50240,
			"target":34962
		},
		{
			"buffer":0,
			"byteLength":7776,
			"byteOffset":80384,
			"target":34963
		},
		{
			"buffer":0,
			"byteLength":31488,
			"byteOffset":88160,
			"target":34962
		},
		{
			"buffer":0,
			"byteLength":20992,
			"byteOffset":119648,
			"target":34962
		},
		{
			"buffer":0,
			"byteLength":31488,
			"byteOffset":140640,
			"target":34962
		},
		{
			"buffer":0,
			"byteLength":9840,
			"byteOffset":172128,
			"target":34963
		},
		{
			"buffer":0,
			"byteLength":5844,
			"byteOffset":181968,
			"target":34962
		},
		{
			"buffer":0,
			"byteLength":3896,
			"byteOffset":187812,
			"target":34962
		},
		{
			"buffer":0,
			"byteLength":5844,
			"byteOffset":191708,
			"target":34962
		},
		{
			"buffer":0,
			"byteLength":2892,
			"byteOffset":197552,
			"target":34963
		},
		{
			"buffer":0,
			"byteLength":25848,
			"byteOffset":200444,
			"target":34962
		},
		{
			"buffer":0,
			"byteLength":17232,
			"byteOffset":226292,
			"target":34962
		},
		{
			"buffer":0,
			"byteLength":25848,
			"byteOffset":243524,
			"target":34962
		},
		{
			"buffer":0,
			"byteLength":6648,
			"byteOffset":269372,
			"target":34963
		},
		{
			"buffer":0,
			"byteLength":1632,
			"byteOffset":276020,
			"target":34962
		},
		{
			"buffer":0,
			"byteLength":1088,
			"byteOffset":277652,
			"target":34962
		},
		{
			"buffer":0,
			"byteLength":1632,
			"byteOffset":278740,
			"target":34962
		},
		{
			"buffer":0,
			"byteLength":480,
			"byteOffset":280372,
			"target":34963
		},
		{
			"buffer":0,
			"byteLength":36648,
			"byteOffset":280852,
			"target":34962
		},
		{
			"buffer":0,
			"byteLength":24432,
			"byteOffset":317500,
			"target":34962
		},
		{
			"buffer":0,
			"byteLength":36648,
			"byteOffset":341932,
			"target":34962
		},
		{
			"buffer":0,
			"byteLength":13716,
			"byteOffset":378580,
			"target":34963
		},
		{
			"buffer":0,
			"byteLength":2796,
			"byteOffset":392296,
			"target":34962
		},
		{
			"buffer":0,
			"byteLength":1864,
			"byteOffset":395092,
			"target":34962
		},
		{
			"buffer":0,
			"byteLength":2796,
			"byteOffset":396956,
			"target":34962
		},
		{
			"buffer":0,
			"byteLength":948,
			"byteOffset":399752,
			"target":34963
		},
		{
			"buffer":0,
			"byteLength":3264,
			"byteOffset":400700,
			"target":34962
		},
		{
			"buffer":0,
			"byteLength":2176,
			"byteOffset":403964,
			"target":34962
		},
		{
			"buffer":0,
			"byteLength":3264,
			"byteOffset":406140,
			"target":34962
		},
		{
			"buffer":0,
			"byteLength":816,
			"byteOffset":409404,
			"target":34963
		},
		{
			"buffer":0,
			"byteLength":1152,
			"byteOffset":410220,
			"target":34962
		},
		{
			"buffer":0,
			"byteLength":768,
			"byteOffset":411372,
			"target":34962
		},
		{
			"buffer":0,
			"byteLength":1152,
			"byteOffset":412140,
			"target":34962
		},
		{
			"buffer":0,
			"byteLength":336,
			"byteOffset":413292,
			"target":34963
		}
	],
	"buffers":[
		{
			"byteLength":413628,
			"uri":"6Story_Stack_Mat.bin"
		}
	]
}
