{
	"asset":{
		"generator":"Khronos glTF Blender I/O v3.5.30",
		"version":"2.0"
	},
	"scene":0,
	"scenes":[
		{
			"name":"Scene",
			"nodes":[
				0
			]
		}
	],
	"nodes":[
		{
			"mesh":0,
			"name":"6Story_Stack_Mat_Cube.012",
			"rotation":[
				0.7071068286895752,
				0,
				0,
				0.7071068286895752
			]
		}
	],
	"materials":[
		{
			"doubleSided":true,
			"name":"Bricks",
			"pbrMetallicRoughness":{
				"baseColorFactor":[
					0.1321060061454773,
					0.24757499992847443,
					0.20980100333690643,
					1
				],
				"metallicFactor":0,
				"roughnessFactor":0.6900347471237183
			}
		},
		{
			"doubleSided":true,
			"name":"Light",
			"pbrMetallicRoughness":{
				"baseColorFactor":[
					0.26973098516464233,
					0.30101001262664795,
					0.17268800735473633,
					1
				],
				"metallicFactor":0,
				"roughnessFactor":0.6900347471237183
			}
		},
		{
			"doubleSided":true,
			"name":"Main",
			"pbrMetallicRoughness":{
				"baseColorFactor":[
					0.09203699976205826,
					0.1712229996919632,
					0.14384399354457855,
					1
				],
				"metallicFactor":0,
				"roughnessFactor":0.6900347471237183
			}
		},
		{
			"doubleSided":true,
			"name":"Dark",
			"pbrMetallicRoughness":{
				"baseColorFactor":[
					0.05478300154209137,
					0.09154800325632095,
					0.08954600244760513,
					1
				],
				"metallicFactor":0,
				"roughnessFactor":0.6900347471237183
			}
		},
		{
			"doubleSided":true,
			"name":"White",
			"pbrMetallicRoughness":{
				"baseColorFactor":[
					0.46726301312446594,
					0.46726301312446594,
					0.46726301312446594,
					1
				],
				"metallicFactor":0,
				"roughnessFactor":0.6900347471237183
			}
		},
		{
			"doubleSided":true,
			"name":"Wood",
			"pbrMetallicRoughness":{
				"baseColorFactor":[
					0.19071799516677856,
					0.06920000165700912,
					0.037331998348236084,
					1
				],
				"metallicFactor":0,
				"roughnessFactor":0.6900347471237183
			}
		},
		{
			"doubleSided":true,
			"name":"DarkWood",
			"pbrMetallicRoughness":{
				"baseColorFactor":[
					0.10629499703645706,
					0.048996999859809875,
					0.023645000532269478,
					1
				],
				"metallicFactor":0,
				"roughnessFactor":0.6900347471237183
			}
		},
		{
			"doubleSided":true,
			"name":"Glass",
			"pbrMetallicRoughness":{
				"baseColorFactor":[
					0.13971799612045288,
					0.20332199335098267,
					0.2622219920158386,
					1
				],
				"metallicFactor":0,
				"roughnessFactor":0.6900347471237183
			}
		},
		{
			"doubleSided":true,
			"name":"Black",
			"pbrMetallicRoughness":{
				"baseColorFactor":[
					0.053300999104976654,
					0.053300999104976654,
					0.053300999104976654,
					1
				],
				"metallicFactor":0,
				"roughnessFactor":0.6900347471237183
			}
		}
	],
	"meshes":[
		{
			"name":"6Story_Stack_Mat_Cube.012",
			"primitives":[
				{
					"attributes":{
						"POSITION":0,
						"TEXCOORD_0":1,
						"NORMAL":2
					},
					"indices":3,
					"material":0
				},
				{
					"attributes":{
						"POSITION":4,
						"TEXCOORD_0":5,
						"NORMAL":6
					},
					"indices":7,
					"material":1
				},
				{
					"attributes":{
						"POSITION":8,
						"TEXCOORD_0":9,
						"NORMAL":10
					},
					"indices":11,
					"material":2
				},
				{
					"attributes":{
						"POSITION":12,
						"TEXCOORD_0":13,
						"NORMAL":14
					},
					"indices":15,
					"material":3
				},
				{
					"attributes":{
						"POSITION":16,
						"TEXCOORD_0":17,
						"NORMAL":18
					},
					"indices":19,
					"material":4
				},
				{
					"attributes":{
						"POSITION":20,
						"TEXCOORD_0":21,
						"NORMAL":22
					},
					"indices":23,
					"material":5
				},
				{
					"attributes":{
						"POSITION":24,
						"TEXCOORD_0":25,
						"NORMAL":26
					},
					"indices":27,
					"material":6
				},
				{
					"attributes":{
						"POSITION":28,
						"TEXCOORD_0":29,
						"NORMAL":30
					},
					"indices":31,
					"material":7
				},
				{
					"attributes":{
						"POSITION":32,
						"TEXCOORD_0":33,
						"NORMAL":34
					},
					"indices":35,
					"material":8
				}
			]
		}
	],
	"accessors":[
		{
			"bufferView":0,
			"componentType":5126,
			"count":2180,
			"max":[
				1.0161679983139038,
				1.0161679983139038,
				-0.47481799125671387
			],
			"min":[
				-1.0161679983139038,
				-1.0161679983139038,
				-7.725843906402588
			],
			"type":"VEC3"
		},
		{
			"bufferView":1,
			"componentType":5126,
			"count":2180,
			"type":"VEC2"
		},
		{
			"bufferView":2,
			"componentType":5126,
			"count":2180,
			"type":"VEC3"
		},
		{
			"bufferView":3,
			"componentType":5123,
			"count":3372,
			"type":"SCALAR"
		},
		{
			"bufferView":4,
			"componentType":5126,
			"count":2192,
			"max":[
				1.0793230533599854,
				1.0773019790649414,
				-1.3043559789657593
			],
			"min":[
				-1.0793230533599854,
				-1.0773019790649414,
				-7.668323993682861
			],
			"type":"VEC3"
		},
		{
			"bufferView":5,
			"componentType":5126,
			"count":2192,
			"type":"VEC2"
		},
		{
			"bufferView":6,
			"componentType":5126,
			"count":2192,
			"type":"VEC3"
		},
		{
			"bufferView":7,
			"componentType":5123,
			"count":3948,
			"type":"SCALAR"
		},
		{
			"bufferView":8,
			"componentType":5126,
			"count":441,
			"max":[
				1,
				1.4212030172348022,
				0.0032450000289827585
			],
			"min":[
				-1,
				-1,
				-7.552717208862305
			],
			"type":"VEC3"
		},
		{
			"bufferView":9,
			"componentType":5126,
			"count":441,
			"type":"VEC2"
		},
		{
			"bufferView":10,
			"componentType":5126,
			"count":441,
			"type":"VEC3"
		},
		{
			"bufferView":11,
			"componentType":5123,
			"count":1338,
			"type":"SCALAR"
		},
		{
			"bufferView":12,
			"componentType":5126,
			"count":1770,
			"max":[
				1.0481770038604736,
				1.0435559749603271,
				0.0032450000289827585
			],
			"min":[
				-1.0459280014038086,
				-1.0513249635696411,
				-7.635468006134033
			],
			"type":"VEC3"
		},
		{
			"bufferView":13,
			"componentType":5126,
			"count":1770,
			"type":"VEC2"
		},
		{
			"bufferView":14,
			"componentType":5126,
			"count":1770,
			"type":"VEC3"
		},
		{
			"bufferView":15,
			"componentType":5123,
			"count":2670,
			"type":"SCALAR"
		},
		{
			"bufferView":16,
			"componentType":5126,
			"count":136,
			"max":[
				1.01944899559021,
				1.01944899559021,
				0.0032450000289827585
			],
			"min":[
				-1.01944899559021,
				-1.01944899559021,
				-7.800119876861572
			],
			"type":"VEC3"
		},
		{
			"bufferView":17,
			"componentType":5126,
			"count":136,
			"type":"VEC2"
		},
		{
			"bufferView":18,
			"componentType":5126,
			"count":136,
			"type":"VEC3"
		},
		{
			"bufferView":19,
			"componentType":5123,
			"count":240,
			"type":"SCALAR"
		},
		{
			"bufferView":20,
			"componentType":5126,
			"count":2658,
			"max":[
				0.7377070188522339,
				1.0975559949874878,
				-0.179066002368927
			],
			"min":[
				-0.7377070188522339,
				0.8655840158462524,
				-7.189197063446045
			],
			"type":"VEC3"
		},
		{
			"bufferView":21,
			"componentType":5126,
			"count":2658,
			"type":"VEC2"
		},
		{
			"bufferView":22,
			"componentType":5126,
			"count":2658,
			"type":"VEC3"
		},
		{
			"bufferView":23,
			"componentType":5123,
			"count":5754,
			"type":"SCALAR"
		},
		{
			"bufferView":24,
			"componentType":5126,
			"count":225,
			"max":[
				0.21932299435138702,
				0.9789779782295227,
				-0.16366000473499298
			],
			"min":[
				-0.21932299435138702,
				0.936040997505188,
				-1.08058500289917
			],
			"type":"VEC3"
		},
		{
			"bufferView":25,
			"componentType":5126,
			"count":225,
			"type":"VEC2"
		},
		{
			"bufferView":26,
			"componentType":5126,
			"count":225,
			"type":"VEC3"
		},
		{
			"bufferView":27,
			"componentType":5123,
			"count":456,
			"type":"SCALAR"
		},
		{
			"bufferView":28,
			"componentType":5126,
			"count":272,
			"max":[
				0.7149080038070679,
				1.0037540197372437,
				-0.5387899875640869
			],
			"min":[
				-0.7149080038070679,
				0.9024800062179565,
				-7.1644768714904785
			],
			"type":"VEC3"
		},
		{
			"bufferView":29,
			"componentType":5126,
			"count":272,
			"type":"VEC2"
		},
		{
			"bufferView":30,
			"componentType":5126,
			"count":272,
			"type":"VEC3"
		},
		{
			"bufferView":31,
			"componentType":5123,
			"count":408,
			"type":"SCALAR"
		},
		{
			"bufferView":32,
			"componentType":5126,
			"count":96,
			"max":[
				-0.30734899640083313,
				-0.45606300234794617,
				-7.637564182281494
			],
			"min":[
				-0.7932990193367004,
				-0.4963499903678894,
				-7.785950183868408
			],
			"type":"VEC3"
		},
		{
			"bufferView":33,
			"componentType":5126,
			"count":96,
			"type":"VEC2"
		},
		{
			"bufferView":34,
			"componentType":5126,
			"count":96,
			"type":"VEC3"
		},
		{
			"bufferView":35,
			"componentType":5123,
			"count":168,
			"type":"SCALAR"
		}
	],
	"bufferViews":[
		{
			"buffer":0,
			"byteLength":26160,
			"byteOffset":0,
			"target":34962
		},
		{
			"buffer":0,
			"byteLength":17440,
			"byteOffset":26160,
			"target":34962
		},
		{
			"buffer":0,
			"byteLength":26160,
			"byteOffset":43600,
			"target":34962
		},
		{
			"buffer":0,
			"byteLength":6744,
			"byteOffset":69760,
			"target":34963
		},
		{
			"buffer":0,
			"byteLength":26304,
			"byteOffset":76504,
			"target":34962
		},
		{
			"buffer":0,
			"byteLength":17536,
			"byteOffset":102808,
			"target":34962
		},
		{
			"buffer":0,
			"byteLength":26304,
			"byteOffset":120344,
			"target":34962
		},
		{
			"buffer":0,
			"byteLength":7896,
			"byteOffset":146648,
			"target":34963
		},
		{
			"buffer":0,
			"byteLength":5292,
			"byteOffset":154544,
			"target":34962
		},
		{
			"buffer":0,
			"byteLength":3528,
			"byteOffset":159836,
			"target":34962
		},
		{
			"buffer":0,
			"byteLength":5292,
			"byteOffset":163364,
			"target":34962
		},
		{
			"buffer":0,
			"byteLength":2676,
			"byteOffset":168656,
			"target":34963
		},
		{
			"buffer":0,
			"byteLength":21240,
			"byteOffset":171332,
			"target":34962
		},
		{
			"buffer":0,
			"byteLength":14160,
			"byteOffset":192572,
			"target":34962
		},
		{
			"buffer":0,
			"byteLength":21240,
			"byteOffset":206732,
			"target":34962
		},
		{
			"buffer":0,
			"byteLength":5340,
			"byteOffset":227972,
			"target":34963
		},
		{
			"buffer":0,
			"byteLength":1632,
			"byteOffset":233312,
			"target":34962
		},
		{
			"buffer":0,
			"byteLength":1088,
			"byteOffset":234944,
			"target":34962
		},
		{
			"buffer":0,
			"byteLength":1632,
			"byteOffset":236032,
			"target":34962
		},
		{
			"buffer":0,
			"byteLength":480,
			"byteOffset":237664,
			"target":34963
		},
		{
			"buffer":0,
			"byteLength":31896,
			"byteOffset":238144,
			"target":34962
		},
		{
			"buffer":0,
			"byteLength":21264,
			"byteOffset":270040,
			"target":34962
		},
		{
			"buffer":0,
			"byteLength":31896,
			"byteOffset":291304,
			"target":34962
		},
		{
			"buffer":0,
			"byteLength":11508,
			"byteOffset":323200,
			"target":34963
		},
		{
			"buffer":0,
			"byteLength":2700,
			"byteOffset":334708,
			"target":34962
		},
		{
			"buffer":0,
			"byteLength":1800,
			"byteOffset":337408,
			"target":34962
		},
		{
			"buffer":0,
			"byteLength":2700,
			"byteOffset":339208,
			"target":34962
		},
		{
			"buffer":0,
			"byteLength":912,
			"byteOffset":341908,
			"target":34963
		},
		{
			"buffer":0,
			"byteLength":3264,
			"byteOffset":342820,
			"target":34962
		},
		{
			"buffer":0,
			"byteLength":2176,
			"byteOffset":346084,
			"target":34962
		},
		{
			"buffer":0,
			"byteLength":3264,
			"byteOffset":348260,
			"target":34962
		},
		{
			"buffer":0,
			"byteLength":816,
			"byteOffset":351524,
			"target":34963
		},
		{
			"buffer":0,
			"byteLength":1152,
			"byteOffset":352340,
			"target":34962
		},
		{
			"buffer":0,
			"byteLength":768,
			"byteOffset":353492,
			"target":34962
		},
		{
			"buffer":0,
			"byteLength":1152,
			"byteOffset":354260,
			"target":34962
		},
		{
			"buffer":0,
			"byteLength":336,
			"byteOffset":355412,
			"target":34963
		}
	],
	"buffers":[
		{
			"byteLength":355748,
			"uri":"6Story_Stack_Mat.bin"
		}
	]
}
