{
	"asset":{
		"generator":"Khronos glTF Blender I/O v3.5.30",
		"version":"2.0"
	},
	"scene":0,
	"scenes":[
		{
			"name":"Scene",
			"nodes":[
				2
			]
		}
	],
	"nodes":[
		{
			"name":"Grip"
		},
		{
			"mesh":0,
			"name":"Rifle._Mesh",
			"skin":0
		},
		{
			"children":[
				1,
				0
			],
			"name":"Rifle"
		}
	],
	"animations":[
		{
			"channels":[
				{
					"sampler":0,
					"target":{
						"node":0,
						"path":"translation"
					}
				},
				{
					"sampler":1,
					"target":{
						"node":0,
						"path":"rotation"
					}
				},
				{
					"sampler":2,
					"target":{
						"node":0,
						"path":"scale"
					}
				}
			],
			"name":"01_Shot",
			"samplers":[
				{
					"input":7,
					"interpolation":"LINEAR",
					"output":8
				},
				{
					"input":7,
					"interpolation":"LINEAR",
					"output":9
				},
				{
					"input":10,
					"interpolation":"LINEAR",
					"output":11
				}
			]
		},
		{
			"channels":[
				{
					"sampler":0,
					"target":{
						"node":0,
						"path":"translation"
					}
				},
				{
					"sampler":1,
					"target":{
						"node":0,
						"path":"rotation"
					}
				},
				{
					"sampler":2,
					"target":{
						"node":0,
						"path":"scale"
					}
				}
			],
			"name":"02_Reload",
			"samplers":[
				{
					"input":12,
					"interpolation":"LINEAR",
					"output":13
				},
				{
					"input":12,
					"interpolation":"LINEAR",
					"output":14
				},
				{
					"input":15,
					"interpolation":"LINEAR",
					"output":16
				}
			]
		}
	],
	"materials":[
		{
			"doubleSided":true,
			"name":"Atlas",
			"pbrMetallicRoughness":{
				"baseColorTexture":{
					"index":0
				},
				"metallicFactor":0
			}
		}
	],
	"meshes":[
		{
			"name":"Cube.010",
			"primitives":[
				{
					"attributes":{
						"POSITION":0,
						"TEXCOORD_0":1,
						"NORMAL":2,
						"JOINTS_0":3,
						"WEIGHTS_0":4
					},
					"indices":5,
					"material":0
				}
			]
		}
	],
	"textures":[
		{
			"sampler":0,
			"source":0
		}
	],
	"images":[
		{
			"mimeType":"image/png",
			"name":"Zombie_Atlas",
			"uri":"Zombie_Atlas.png"
		}
	],
	"skins":[
		{
			"inverseBindMatrices":6,
			"joints":[
				0
			],
			"name":"Rifle"
		}
	],
	"accessors":[
		{
			"bufferView":0,
			"componentType":5126,
			"count":2796,
			"max":[
				0.057187724858522415,
				0.32132837176322937,
				1.0193371772766113
			],
			"min":[
				-0.05718773230910301,
				-0.1967594027519226,
				-0.6169971227645874
			],
			"type":"VEC3"
		},
		{
			"bufferView":1,
			"componentType":5126,
			"count":2796,
			"type":"VEC2"
		},
		{
			"bufferView":2,
			"componentType":5126,
			"count":2796,
			"type":"VEC3"
		},
		{
			"bufferView":3,
			"componentType":5121,
			"count":2796,
			"type":"VEC4"
		},
		{
			"bufferView":4,
			"componentType":5126,
			"count":2796,
			"type":"VEC4"
		},
		{
			"bufferView":5,
			"componentType":5123,
			"count":6309,
			"type":"SCALAR"
		},
		{
			"bufferView":6,
			"componentType":5126,
			"count":1,
			"type":"MAT4"
		},
		{
			"bufferView":7,
			"componentType":5126,
			"count":26,
			"max":[
				0.43333333333333335
			],
			"min":[
				0.016666666666666666
			],
			"type":"SCALAR"
		},
		{
			"bufferView":8,
			"componentType":5126,
			"count":26,
			"type":"VEC3"
		},
		{
			"bufferView":9,
			"componentType":5126,
			"count":26,
			"type":"VEC4"
		},
		{
			"bufferView":10,
			"componentType":5126,
			"count":2,
			"max":[
				0.43333333333333335
			],
			"min":[
				0.016666666666666666
			],
			"type":"SCALAR"
		},
		{
			"bufferView":11,
			"componentType":5126,
			"count":2,
			"type":"VEC3"
		},
		{
			"bufferView":12,
			"componentType":5126,
			"count":31,
			"max":[
				0.5166666666666667
			],
			"min":[
				0.016666666666666666
			],
			"type":"SCALAR"
		},
		{
			"bufferView":13,
			"componentType":5126,
			"count":31,
			"type":"VEC3"
		},
		{
			"bufferView":14,
			"componentType":5126,
			"count":31,
			"type":"VEC4"
		},
		{
			"bufferView":15,
			"componentType":5126,
			"count":2,
			"max":[
				0.5166666666666667
			],
			"min":[
				0.016666666666666666
			],
			"type":"SCALAR"
		},
		{
			"bufferView":16,
			"componentType":5126,
			"count":2,
			"type":"VEC3"
		}
	],
	"bufferViews":[
		{
			"buffer":0,
			"byteLength":33552,
			"byteOffset":0,
			"target":34962
		},
		{
			"buffer":0,
			"byteLength":22368,
			"byteOffset":33552,
			"target":34962
		},
		{
			"buffer":0,
			"byteLength":33552,
			"byteOffset":55920,
			"target":34962
		},
		{
			"buffer":0,
			"byteLength":11184,
			"byteOffset":89472,
			"target":34962
		},
		{
			"buffer":0,
			"byteLength":44736,
			"byteOffset":100656,
			"target":34962
		},
		{
			"buffer":0,
			"byteLength":12618,
			"byteOffset":145392,
			"target":34963
		},
		{
			"buffer":0,
			"byteLength":64,
			"byteOffset":158012
		},
		{
			"buffer":0,
			"byteLength":104,
			"byteOffset":158076
		},
		{
			"buffer":0,
			"byteLength":312,
			"byteOffset":158180
		},
		{
			"buffer":0,
			"byteLength":416,
			"byteOffset":158492
		},
		{
			"buffer":0,
			"byteLength":8,
			"byteOffset":158908
		},
		{
			"buffer":0,
			"byteLength":24,
			"byteOffset":158916
		},
		{
			"buffer":0,
			"byteLength":124,
			"byteOffset":158940
		},
		{
			"buffer":0,
			"byteLength":372,
			"byteOffset":159064
		},
		{
			"buffer":0,
			"byteLength":496,
			"byteOffset":159436
		},
		{
			"buffer":0,
			"byteLength":8,
			"byteOffset":159932
		},
		{
			"buffer":0,
			"byteLength":24,
			"byteOffset":159940
		}
	],
	"samplers":[
		{
			"magFilter":9729,
			"minFilter":9987
		}
	],
	"buffers":[
		{
			"byteLength":159964,
			"uri":"Rifle.bin"
		}
	]
}
