{
	"asset":{
		"generator":"Khronos glTF Blender I/O v3.5.30",
		"version":"2.0"
	},
	"scene":0,
	"scenes":[
		{
			"name":"Scene",
			"nodes":[
				2
			]
		}
	],
	"nodes":[
		{
			"name":"Grip"
		},
		{
			"mesh":0,
			"name":"Pistol_Mesh",
			"skin":0
		},
		{
			"children":[
				1,
				0
			],
			"name":"Pistol"
		}
	],
	"animations":[
		{
			"channels":[
				{
					"sampler":0,
					"target":{
						"node":0,
						"path":"translation"
					}
				},
				{
					"sampler":1,
					"target":{
						"node":0,
						"path":"rotation"
					}
				},
				{
					"sampler":2,
					"target":{
						"node":0,
						"path":"scale"
					}
				}
			],
			"name":"01_Shot",
			"samplers":[
				{
					"input":7,
					"interpolation":"LINEAR",
					"output":8
				},
				{
					"input":7,
					"interpolation":"LINEAR",
					"output":9
				},
				{
					"input":10,
					"interpolation":"LINEAR",
					"output":11
				}
			]
		},
		{
			"channels":[
				{
					"sampler":0,
					"target":{
						"node":0,
						"path":"translation"
					}
				},
				{
					"sampler":1,
					"target":{
						"node":0,
						"path":"rotation"
					}
				},
				{
					"sampler":2,
					"target":{
						"node":0,
						"path":"scale"
					}
				}
			],
			"name":"02_Reload",
			"samplers":[
				{
					"input":12,
					"interpolation":"LINEAR",
					"output":13
				},
				{
					"input":12,
					"interpolation":"LINEAR",
					"output":14
				},
				{
					"input":15,
					"interpolation":"LINEAR",
					"output":16
				}
			]
		}
	],
	"materials":[
		{
			"doubleSided":true,
			"name":"Atlas.001",
			"pbrMetallicRoughness":{
				"baseColorTexture":{
					"index":0
				},
				"metallicFactor":0
			}
		}
	],
	"meshes":[
		{
			"name":"Cube.007",
			"primitives":[
				{
					"attributes":{
						"POSITION":0,
						"TEXCOORD_0":1,
						"NORMAL":2,
						"JOINTS_0":3,
						"WEIGHTS_0":4
					},
					"indices":5,
					"material":0
				}
			]
		}
	],
	"textures":[
		{
			"sampler":0,
			"source":0
		}
	],
	"images":[
		{
			"mimeType":"image/png",
			"name":"Zombie_Atlas",
			"uri":"Zombie_Atlas.png"
		}
	],
	"skins":[
		{
			"inverseBindMatrices":6,
			"joints":[
				0
			],
			"name":"Pistol"
		}
	],
	"accessors":[
		{
			"bufferView":0,
			"componentType":5126,
			"count":1674,
			"max":[
				0.08780644088983536,
				0.22586213052272797,
				0.8803357481956482
			],
			"min":[
				-0.05341825261712074,
				-0.1138823851943016,
				-0.09607069194316864
			],
			"type":"VEC3"
		},
		{
			"bufferView":1,
			"componentType":5126,
			"count":1674,
			"type":"VEC2"
		},
		{
			"bufferView":2,
			"componentType":5126,
			"count":1674,
			"type":"VEC3"
		},
		{
			"bufferView":3,
			"componentType":5121,
			"count":1674,
			"type":"VEC4"
		},
		{
			"bufferView":4,
			"componentType":5126,
			"count":1674,
			"type":"VEC4"
		},
		{
			"bufferView":5,
			"componentType":5123,
			"count":4338,
			"type":"SCALAR"
		},
		{
			"bufferView":6,
			"componentType":5126,
			"count":1,
			"type":"MAT4"
		},
		{
			"bufferView":7,
			"componentType":5126,
			"count":23,
			"max":[
				0.38333333333333336
			],
			"min":[
				0.016666666666666666
			],
			"type":"SCALAR"
		},
		{
			"bufferView":8,
			"componentType":5126,
			"count":23,
			"type":"VEC3"
		},
		{
			"bufferView":9,
			"componentType":5126,
			"count":23,
			"type":"VEC4"
		},
		{
			"bufferView":10,
			"componentType":5126,
			"count":2,
			"max":[
				0.38333333333333336
			],
			"min":[
				0.016666666666666666
			],
			"type":"SCALAR"
		},
		{
			"bufferView":11,
			"componentType":5126,
			"count":2,
			"type":"VEC3"
		},
		{
			"bufferView":12,
			"componentType":5126,
			"count":31,
			"max":[
				0.5166666666666667
			],
			"min":[
				0.016666666666666666
			],
			"type":"SCALAR"
		},
		{
			"bufferView":13,
			"componentType":5126,
			"count":31,
			"type":"VEC3"
		},
		{
			"bufferView":14,
			"componentType":5126,
			"count":31,
			"type":"VEC4"
		},
		{
			"bufferView":15,
			"componentType":5126,
			"count":2,
			"max":[
				0.5166666666666667
			],
			"min":[
				0.016666666666666666
			],
			"type":"SCALAR"
		},
		{
			"bufferView":16,
			"componentType":5126,
			"count":2,
			"type":"VEC3"
		}
	],
	"bufferViews":[
		{
			"buffer":0,
			"byteLength":20088,
			"byteOffset":0,
			"target":34962
		},
		{
			"buffer":0,
			"byteLength":13392,
			"byteOffset":20088,
			"target":34962
		},
		{
			"buffer":0,
			"byteLength":20088,
			"byteOffset":33480,
			"target":34962
		},
		{
			"buffer":0,
			"byteLength":6696,
			"byteOffset":53568,
			"target":34962
		},
		{
			"buffer":0,
			"byteLength":26784,
			"byteOffset":60264,
			"target":34962
		},
		{
			"buffer":0,
			"byteLength":8676,
			"byteOffset":87048,
			"target":34963
		},
		{
			"buffer":0,
			"byteLength":64,
			"byteOffset":95724
		},
		{
			"buffer":0,
			"byteLength":92,
			"byteOffset":95788
		},
		{
			"buffer":0,
			"byteLength":276,
			"byteOffset":95880
		},
		{
			"buffer":0,
			"byteLength":368,
			"byteOffset":96156
		},
		{
			"buffer":0,
			"byteLength":8,
			"byteOffset":96524
		},
		{
			"buffer":0,
			"byteLength":24,
			"byteOffset":96532
		},
		{
			"buffer":0,
			"byteLength":124,
			"byteOffset":96556
		},
		{
			"buffer":0,
			"byteLength":372,
			"byteOffset":96680
		},
		{
			"buffer":0,
			"byteLength":496,
			"byteOffset":97052
		},
		{
			"buffer":0,
			"byteLength":8,
			"byteOffset":97548
		},
		{
			"buffer":0,
			"byteLength":24,
			"byteOffset":97556
		}
	],
	"samplers":[
		{
			"magFilter":9729,
			"minFilter":9987
		}
	],
	"buffers":[
		{
			"byteLength":97580,
			"uri":"Pistol.bin"
		}
	]
}
