{
	"asset":{
		"generator":"Khronos glTF Blender I/O v3.5.30",
		"version":"2.0"
	},
	"scene":0,
	"scenes":[
		{
			"name":"Scene",
			"nodes":[
				2
			]
		}
	],
	"nodes":[
		{
			"name":"Grip"
		},
		{
			"mesh":0,
			"name":"Shotgun_Mesh",
			"skin":0
		},
		{
			"children":[
				1,
				0
			],
			"name":"Shotgun"
		}
	],
	"animations":[
		{
			"channels":[
				{
					"sampler":0,
					"target":{
						"node":0,
						"path":"translation"
					}
				},
				{
					"sampler":1,
					"target":{
						"node":0,
						"path":"rotation"
					}
				},
				{
					"sampler":2,
					"target":{
						"node":0,
						"path":"scale"
					}
				}
			],
			"name":"01_Shot",
			"samplers":[
				{
					"input":7,
					"interpolation":"LINEAR",
					"output":8
				},
				{
					"input":7,
					"interpolation":"LINEAR",
					"output":9
				},
				{
					"input":10,
					"interpolation":"LINEAR",
					"output":11
				}
			]
		}
	],
	"materials":[
		{
			"doubleSided":true,
			"name":"Atlas.001",
			"pbrMetallicRoughness":{
				"baseColorTexture":{
					"index":0
				},
				"metallicFactor":0
			}
		}
	],
	"meshes":[
		{
			"name":"Cube.060",
			"primitives":[
				{
					"attributes":{
						"POSITION":0,
						"TEXCOORD_0":1,
						"NORMAL":2,
						"JOINTS_0":3,
						"WEIGHTS_0":4
					},
					"indices":5,
					"material":0
				}
			]
		}
	],
	"textures":[
		{
			"sampler":0,
			"source":0
		}
	],
	"images":[
		{
			"mimeType":"image/png",
			"name":"Zombie_Atlas",
			"uri":"Zombie_Atlas.png"
		}
	],
	"skins":[
		{
			"inverseBindMatrices":6,
			"joints":[
				0
			],
			"name":"Shotgun"
		}
	],
	"accessors":[
		{
			"bufferView":0,
			"componentType":5126,
			"count":1865,
			"max":[
				0.04657873138785362,
				0.22133906185626984,
				0.9674314260482788
			],
			"min":[
				-0.04858933389186859,
				-0.1168939471244812,
				-0.14550533890724182
			],
			"type":"VEC3"
		},
		{
			"bufferView":1,
			"componentType":5126,
			"count":1865,
			"type":"VEC2"
		},
		{
			"bufferView":2,
			"componentType":5126,
			"count":1865,
			"type":"VEC3"
		},
		{
			"bufferView":3,
			"componentType":5121,
			"count":1865,
			"type":"VEC4"
		},
		{
			"bufferView":4,
			"componentType":5126,
			"count":1865,
			"type":"VEC4"
		},
		{
			"bufferView":5,
			"componentType":5123,
			"count":4626,
			"type":"SCALAR"
		},
		{
			"bufferView":6,
			"componentType":5126,
			"count":1,
			"type":"MAT4"
		},
		{
			"bufferView":7,
			"componentType":5126,
			"count":26,
			"max":[
				0.43333333333333335
			],
			"min":[
				0.016666666666666666
			],
			"type":"SCALAR"
		},
		{
			"bufferView":8,
			"componentType":5126,
			"count":26,
			"type":"VEC3"
		},
		{
			"bufferView":9,
			"componentType":5126,
			"count":26,
			"type":"VEC4"
		},
		{
			"bufferView":10,
			"componentType":5126,
			"count":2,
			"max":[
				0.43333333333333335
			],
			"min":[
				0.016666666666666666
			],
			"type":"SCALAR"
		},
		{
			"bufferView":11,
			"componentType":5126,
			"count":2,
			"type":"VEC3"
		}
	],
	"bufferViews":[
		{
			"buffer":0,
			"byteLength":22380,
			"byteOffset":0,
			"target":34962
		},
		{
			"buffer":0,
			"byteLength":14920,
			"byteOffset":22380,
			"target":34962
		},
		{
			"buffer":0,
			"byteLength":22380,
			"byteOffset":37300,
			"target":34962
		},
		{
			"buffer":0,
			"byteLength":7460,
			"byteOffset":59680,
			"target":34962
		},
		{
			"buffer":0,
			"byteLength":29840,
			"byteOffset":67140,
			"target":34962
		},
		{
			"buffer":0,
			"byteLength":9252,
			"byteOffset":96980,
			"target":34963
		},
		{
			"buffer":0,
			"byteLength":64,
			"byteOffset":106232
		},
		{
			"buffer":0,
			"byteLength":104,
			"byteOffset":106296
		},
		{
			"buffer":0,
			"byteLength":312,
			"byteOffset":106400
		},
		{
			"buffer":0,
			"byteLength":416,
			"byteOffset":106712
		},
		{
			"buffer":0,
			"byteLength":8,
			"byteOffset":107128
		},
		{
			"buffer":0,
			"byteLength":24,
			"byteOffset":107136
		}
	],
	"samplers":[
		{
			"magFilter":9729,
			"minFilter":9987
		}
	],
	"buffers":[
		{
			"byteLength":107160,
			"uri":"ShotGun.bin"
		}
	]
}
