{
	"asset":{
		"generator":"Khronos glTF Blender I/O v3.5.30",
		"version":"2.0"
	},
	"extensionsUsed":[
		"KHR_materials_specular",
		"KHR_materials_ior"
	],
	"scene":0,
	"scenes":[
		{
			"name":"Scene",
			"nodes":[
				0
			]
		}
	],
	"nodes":[
		{
			"mesh":0,
			"name":"CinderBlock"
		}
	],
	"materials":[
		{
			"doubleSided":true,
			"extensions":{
				"KHR_materials_specular":{
					"specularColorFactor":[
						0,
						0,
						0
					]
				},
				"KHR_materials_ior":{
					"ior":1.4500000476837158
				}
			},
			"name":"Atlas",
			"pbrMetallicRoughness":{
				"baseColorTexture":{
					"index":0
				},
				"metallicFactor":0
			}
		}
	],
	"meshes":[
		{
			"name":"Cube.042",
			"primitives":[
				{
					"attributes":{
						"POSITION":0,
						"TEXCOORD_0":1,
						"NORMAL":2
					},
					"indices":3,
					"material":0
				}
			]
		}
	],
	"textures":[
		{
			"sampler":0,
			"source":0
		}
	],
	"images":[
		{
			"mimeType":"image/png",
			"name":"Zombie_Atlas",
			"uri":"Zombie_Atlas.png"
		}
	],
	"accessors":[
		{
			"bufferView":0,
			"componentType":5126,
			"count":350,
			"max":[
				0.2357768714427948,
				0.23063111305236816,
				0.10726326704025269
			],
			"min":[
				-0.2357768714427948,
				0.003251582384109497,
				-0.10726325213909149
			],
			"type":"VEC3"
		},
		{
			"bufferView":1,
			"componentType":5126,
			"count":350,
			"type":"VEC2"
		},
		{
			"bufferView":2,
			"componentType":5126,
			"count":350,
			"type":"VEC3"
		},
		{
			"bufferView":3,
			"componentType":5123,
			"count":1104,
			"type":"SCALAR"
		}
	],
	"bufferViews":[
		{
			"buffer":0,
			"byteLength":4200,
			"byteOffset":0,
			"target":34962
		},
		{
			"buffer":0,
			"byteLength":2800,
			"byteOffset":4200,
			"target":34962
		},
		{
			"buffer":0,
			"byteLength":4200,
			"byteOffset":7000,
			"target":34962
		},
		{
			"buffer":0,
			"byteLength":2208,
			"byteOffset":11200,
			"target":34963
		}
	],
	"samplers":[
		{
			"magFilter":9729,
			"minFilter":9987
		}
	],
	"buffers":[
		{
			"byteLength":13408,
			"uri":"CinderBlock.bin"
		}
	]
}
