{
	"asset":{
		"generator":"Khronos glTF Blender I/O v3.5.30",
		"version":"2.0"
	},
	"extensionsUsed":[
		"KHR_materials_specular",
		"KHR_materials_ior"
	],
	"scene":0,
	"scenes":[
		{
			"name":"Scene",
			"nodes":[
				0
			]
		}
	],
	"nodes":[
		{
			"mesh":0,
			"name":"PlasticBarrier"
		}
	],
	"materials":[
		{
			"doubleSided":true,
			"extensions":{
				"KHR_materials_specular":{
					"specularColorFactor":[
						0,
						0,
						0
					]
				},
				"KHR_materials_ior":{
					"ior":1.4500000476837158
				}
			},
			"name":"Atlas",
			"pbrMetallicRoughness":{
				"baseColorTexture":{
					"index":0
				},
				"metallicFactor":0
			}
		}
	],
	"meshes":[
		{
			"name":"Cube.018",
			"primitives":[
				{
					"attributes":{
						"POSITION":0,
						"TEXCOORD_0":1,
						"NORMAL":2
					},
					"indices":3,
					"material":0
				}
			]
		}
	],
	"textures":[
		{
			"sampler":0,
			"source":0
		}
	],
	"images":[
		{
			"mimeType":"image/png",
			"name":"Zombie_Atlas",
			"uri":"Zombie_Atlas.png"
		}
	],
	"accessors":[
		{
			"bufferView":0,
			"componentType":5126,
			"count":1017,
			"max":[
				0.5176711082458496,
				0.5995471477508545,
				0.16694599390029907
			],
			"min":[
				-0.5176711082458496,
				-2.7198957752716524e-08,
				-0.16694600880146027
			],
			"type":"VEC3"
		},
		{
			"bufferView":1,
			"componentType":5126,
			"count":1017,
			"type":"VEC2"
		},
		{
			"bufferView":2,
			"componentType":5126,
			"count":1017,
			"type":"VEC3"
		},
		{
			"bufferView":3,
			"componentType":5123,
			"count":2556,
			"type":"SCALAR"
		}
	],
	"bufferViews":[
		{
			"buffer":0,
			"byteLength":12204,
			"byteOffset":0,
			"target":34962
		},
		{
			"buffer":0,
			"byteLength":8136,
			"byteOffset":12204,
			"target":34962
		},
		{
			"buffer":0,
			"byteLength":12204,
			"byteOffset":20340,
			"target":34962
		},
		{
			"buffer":0,
			"byteLength":5112,
			"byteOffset":32544,
			"target":34963
		}
	],
	"samplers":[
		{
			"magFilter":9729,
			"minFilter":9987
		}
	],
	"buffers":[
		{
			"byteLength":37656,
			"uri":"PlasticBarrier.bin"
		}
	]
}
