{
	"asset":{
		"generator":"Khronos glTF Blender I/O v3.5.30",
		"version":"2.0"
	},
	"scene":0,
	"scenes":[
		{
			"name":"Scene",
			"nodes":[
				0
			]
		}
	],
	"nodes":[
		{
			"mesh":0,
			"name":"SackTrench",
			"rotation":[
				0,
				1,
				0,
				1.6292068494294654e-07
			],
			"scale":[
				0.5860000252723694,
				0.5860000252723694,
				0.5860000252723694
			]
		}
	],
	"materials":[
		{
			"doubleSided":true,
			"name":"Sack",
			"pbrMetallicRoughness":{
				"baseColorFactor":[
					0.3505513072013855,
					0.29693713784217834,
					0.18478049337863922,
					1
				],
				"metallicFactor":0,
				"roughnessFactor":0.5
			}
		}
	],
	"meshes":[
		{
			"name":"Cube.025",
			"primitives":[
				{
					"attributes":{
						"POSITION":0,
						"NORMAL":1
					},
					"indices":2,
					"material":0
				}
			]
		}
	],
	"accessors":[
		{
			"bufferView":0,
			"componentType":5126,
			"count":588,
			"max":[
				2.780024528503418,
				2.121812343597412,
				0.9494653940200806
			],
			"min":[
				-2.928408622741699,
				-0.057827483862638474,
				-0.6284061670303345
			],
			"type":"VEC3"
		},
		{
			"bufferView":1,
			"componentType":5126,
			"count":588,
			"type":"VEC3"
		},
		{
			"bufferView":2,
			"componentType":5123,
			"count":1344,
			"type":"SCALAR"
		}
	],
	"bufferViews":[
		{
			"buffer":0,
			"byteLength":7056,
			"byteOffset":0,
			"target":34962
		},
		{
			"buffer":0,
			"byteLength":7056,
			"byteOffset":7056,
			"target":34962
		},
		{
			"buffer":0,
			"byteLength":2688,
			"byteOffset":14112,
			"target":34963
		}
	],
	"buffers":[
		{
			"byteLength":16800,
			"uri":"SackTrench.bin"
		}
	]
}
