{
	"asset":{
		"generator":"Khronos glTF Blender I/O v3.5.30",
		"version":"2.0"
	},
	"scene":0,
	"scenes":[
		{
			"name":"Scene",
			"nodes":[
				0
			]
		}
	],
	"nodes":[
		{
			"mesh":0,
			"name":"SackTrench_Small",
			"rotation":[
				0,
				1,
				0,
				1.6292068494294654e-07
			],
			"scale":[
				0.5860000252723694,
				0.5860000252723694,
				0.5860000252723694
			]
		}
	],
	"materials":[
		{
			"doubleSided":true,
			"name":"Sack",
			"pbrMetallicRoughness":{
				"baseColorFactor":[
					0.3505513072013855,
					0.29693713784217834,
					0.18478049337863922,
					1
				],
				"metallicFactor":0,
				"roughnessFactor":0.5
			}
		}
	],
	"meshes":[
		{
			"name":"Cube.026",
			"primitives":[
				{
					"attributes":{
						"POSITION":0,
						"NORMAL":1
					},
					"indices":2,
					"material":0
				}
			]
		}
	],
	"accessors":[
		{
			"bufferView":0,
			"componentType":5126,
			"count":294,
			"max":[
				2.1031837463378906,
				1.6494261026382446,
				0.866719663143158
			],
			"min":[
				-2.1313061714172363,
				-0.057827532291412354,
				-0.704628586769104
			],
			"type":"VEC3"
		},
		{
			"bufferView":1,
			"componentType":5126,
			"count":294,
			"type":"VEC3"
		},
		{
			"bufferView":2,
			"componentType":5123,
			"count":672,
			"type":"SCALAR"
		}
	],
	"bufferViews":[
		{
			"buffer":0,
			"byteLength":3528,
			"byteOffset":0,
			"target":34962
		},
		{
			"buffer":0,
			"byteLength":3528,
			"byteOffset":3528,
			"target":34962
		},
		{
			"buffer":0,
			"byteLength":1344,
			"byteOffset":7056,
			"target":34963
		}
	],
	"buffers":[
		{
			"byteLength":8400,
			"uri":"SackTrench_Small.bin"
		}
	]
}
