# Blender 3.6.2
# www.blender.org
mtllib testEnemy.mtl
o Cube
v 0.500000 -0.423358 1.000000
v 0.500000 0.423358 -1.000000
v 0.500000 -0.423358 -1.000000
v 0.500000 0.423358 1.000000
v -0.500000 -0.423358 -1.000000
v -0.500000 0.423358 1.000000
v -0.500000 -0.423358 1.000000
v -0.500000 0.423358 -1.000000
v -1.000000 -0.423358 0.500000
v 1.000000 0.423358 0.500000
v -1.000000 0.423358 0.500000
v 1.000000 -0.423358 0.500000
v -1.000000 0.423358 -0.500000
v 1.000000 -0.423358 -0.500000
v -1.000000 -0.423358 -0.500000
v 1.000000 0.423358 -0.500000
v 0.500000 0.423358 1.000000
v 1.000000 0.423358 0.500000
v 1.000000 -0.423358 0.500000
v 0.500000 -0.423358 1.000000
v 1.000000 0.423358 -0.500000
v 0.500000 0.423358 -1.000000
v 0.500000 -0.423358 -1.000000
v 1.000000 -0.423358 -0.500000
v -0.500000 0.423358 -1.000000
v -1.000000 0.423358 -0.500000
v -1.000000 -0.423358 -0.500000
v -0.500000 -0.423358 -1.000000
v -1.000000 0.423358 0.500000
v -0.500000 0.423358 1.000000
v -0.500000 -0.423358 1.000000
v -1.000000 -0.423358 0.500000
v 0.000000 0.423358 0.000000
v 0.000000 -0.423358 0.000000
v -1.000000 0.000000 0.000000
v -0.750000 0.000000 -0.750000
v 0.000000 0.000000 -1.000000
v 0.000000 0.000000 -1.000000
v 0.750000 0.000000 -0.750000
v 1.000000 0.000000 0.000000
v 0.750000 0.000000 0.750000
v 0.000000 -0.000000 1.000000
v -0.750000 0.000000 0.750000
vn -1.0000 -0.0000 -0.0000
vn -0.0000 -0.0000 1.0000
vn -0.0000 1.0000 -0.0000
vn -0.0000 -0.0000 -1.0000
vn -0.0000 -1.0000 -0.0000
vn 1.0000 -0.0000 -0.0000
vn 0.7071 -0.0000 0.7071
vn 0.7071 -0.0000 -0.7071
vn -0.7071 -0.0000 -0.7071
vn -0.7071 -0.0000 0.7071
vt 0.375000 0.062500
vt 0.875000 0.687500
vt 0.500000 0.625000
vt 0.562500 0.750000
vt 0.187500 0.750000
vt 0.312500 0.750000
vt 0.625000 0.687500
vt 0.375000 0.687500
vt 0.562500 0.500000
vt 0.312500 0.500000
vt 0.187500 0.500000
vt 0.625000 0.187500
vt 0.375000 0.187500
vt 0.250000 0.625000
vt 0.125000 0.687500
vt 0.125000 0.562500
vt 0.625000 0.937500
vt 0.375000 0.937500
vt 0.625000 0.562500
vt 0.625000 0.437500
vt 0.375000 0.437500
vt 0.750000 0.625000
vt 0.687500 0.750000
vt 0.375000 0.812500
vt 0.500000 0.750000
vt 0.625000 0.812500
vt 0.375000 0.562500
vt 0.500000 0.500000
vt 0.375000 0.312500
vt 0.500000 0.250000
vt 0.625000 0.312500
vt 0.625000 0.000000
vt 0.625000 0.062500
vt 0.500000 0.031250
vt 0.812500 0.750000
vt 0.812500 0.500000
vt 0.687500 0.500000
vt 0.875000 0.562500
vt 0.375000 0.000000
s 0
usemtl Material
f 9/1/1 11/2/1 35/3/1
f 42/4/2 31/5/2 20/6/2
f 10/7/3 19/8/3 12/8/3
f 37/9/4 23/10/4 28/11/4
f 13/12/3 27/13/3 15/13/3
f 34/14/5 32/15/5 27/16/5
f 6/17/3 31/18/3 7/18/3
f 40/3/6 21/19/6 18/7/6
f 2/20/3 23/21/3 3/21/3
f 33/22/3 17/23/3 18/7/3
f 20/24/7 19/8/7 41/25/7
f 17/26/3 1/24/3 20/24/3
f 24/27/8 23/21/8 39/28/8
f 21/19/3 14/27/3 24/27/3
f 28/29/9 27/13/9 36/30/9
f 25/31/3 5/29/3 28/29/3
f 30/32/10 29/33/10 43/34/10
f 29/33/3 9/1/3 32/1/3
f 33/22/3 30/35/3 17/23/3
f 29/2/3 30/35/3 33/22/3
f 25/36/3 33/22/3 22/37/3
f 25/36/3 26/38/3 33/22/3
f 33/22/3 18/7/3 21/19/3
f 26/38/3 29/2/3 33/22/3
f 22/37/3 33/22/3 21/19/3
f 34/14/5 24/27/5 12/8/5
f 34/14/5 27/16/5 28/11/5
f 31/5/5 32/15/5 34/14/5
f 20/6/5 31/5/5 34/14/5
f 24/27/5 34/14/5 23/10/5
f 23/10/5 34/14/5 28/11/5
f 19/8/5 20/6/5 34/14/5
f 26/38/1 35/3/1 29/2/1
f 27/16/1 32/15/1 35/3/1
f 15/16/1 35/3/1 26/38/1
f 26/12/9 25/31/9 36/30/9
f 25/31/9 28/29/9 36/30/9
f 27/13/9 26/12/9 36/30/9
f 38/9/3 23/10/3 37/9/3
f 22/37/4 38/9/4 25/36/4
f 38/9/3 8/36/3 25/36/3
f 37/9/4 5/29/4 8/36/4
f 3/10/4 38/9/4 22/37/4
f 22/20/8 21/19/8 39/28/8
f 21/19/8 24/27/8 39/28/8
f 23/21/8 22/20/8 39/28/8
f 12/8/6 14/27/6 40/3/6
f 16/19/3 21/19/3 40/3/3
f 14/27/6 16/19/6 40/3/6
f 10/7/3 40/3/3 18/7/3
f 18/7/7 17/26/7 41/25/7
f 17/26/7 20/24/7 41/25/7
f 19/8/7 18/7/7 41/25/7
f 17/23/2 30/35/2 42/4/2
f 4/23/2 42/4/2 20/6/2
f 42/4/3 7/5/3 31/5/3
f 6/17/3 42/4/3 30/35/3
f 32/1/10 31/39/10 43/34/10
f 29/33/10 32/1/10 43/34/10
f 31/39/10 30/32/10 43/34/10
f 35/3/3 32/15/3 9/1/3
f 11/2/3 29/2/3 35/3/3
f 10/7/3 18/7/3 19/8/3
f 13/12/3 26/12/3 27/13/3
f 6/17/3 30/17/3 31/18/3
f 2/20/3 22/20/3 23/21/3
f 17/26/3 4/26/3 1/24/3
f 21/19/3 16/19/3 14/27/3
f 25/31/3 8/31/3 5/29/3
f 29/33/3 11/33/3 9/1/3
f 12/8/3 19/8/3 34/14/3
f 24/27/3 14/27/3 12/8/3
f 15/16/3 27/16/3 35/3/3
f 26/38/3 13/12/3 15/16/3
f 38/9/3 37/9/3 8/36/3
f 37/9/3 28/11/3 5/29/3
f 3/10/3 23/10/3 38/9/3
f 22/37/3 2/20/3 3/10/3
f 10/7/6 12/8/6 40/3/6
f 4/23/3 17/23/3 42/4/3
f 20/6/3 1/24/3 4/23/3
f 6/17/2 7/5/2 42/4/2
