{
	"asset":{
		"generator":"Khronos glTF Blender I/O v3.5.30",
		"version":"2.0"
	},
	"scene":0,
	"scenes":[
		{
			"name":"Scene",
			"nodes":[
				0
			]
		}
	],
	"nodes":[
		{
			"mesh":0,
			"name":"1Story_Mat"
		}
	],
	"materials":[
		{
			"doubleSided":true,
			"name":"DarkWood",
			"pbrMetallicRoughness":{
				"baseColorFactor":[
					0.13286834955215454,
					0.061246056109666824,
					0.029556844383478165,
					1
				],
				"metallicFactor":0,
				"roughnessFactor":0.5
			}
		},
		{
			"doubleSided":true,
			"name":"Bricks",
			"pbrMetallicRoughness":{
				"baseColorFactor":[
					0.16513220965862274,
					0.30946895480155945,
					0.2622506618499756,
					1
				],
				"metallicFactor":0,
				"roughnessFactor":0.5
			}
		},
		{
			"doubleSided":true,
			"name":"Main",
			"pbrMetallicRoughness":{
				"baseColorFactor":[
					0.11504646390676498,
					0.21402867138385773,
					0.17980532348155975,
					1
				],
				"metallicFactor":0,
				"roughnessFactor":0.5
			}
		},
		{
			"doubleSided":true,
			"name":"Light",
			"pbrMetallicRoughness":{
				"baseColorFactor":[
					0.33716365694999695,
					0.3762621283531189,
					0.215860515832901,
					1
				],
				"metallicFactor":0,
				"roughnessFactor":0.5
			}
		},
		{
			"doubleSided":true,
			"name":"Dark",
			"pbrMetallicRoughness":{
				"baseColorFactor":[
					0.06847818195819855,
					0.11443537473678589,
					0.11193244159221649,
					1
				],
				"metallicFactor":0,
				"roughnessFactor":0.5
			}
		},
		{
			"doubleSided":true,
			"name":"White",
			"pbrMetallicRoughness":{
				"baseColorFactor":[
					0.5840784907341003,
					0.5840784907341003,
					0.5840784907341003,
					1
				],
				"metallicFactor":0,
				"roughnessFactor":0.5
			}
		},
		{
			"doubleSided":true,
			"name":"Wood",
			"pbrMetallicRoughness":{
				"baseColorFactor":[
					0.23839758336544037,
					0.08650047332048416,
					0.046665091067552567,
					1
				],
				"metallicFactor":0,
				"roughnessFactor":0.5
			}
		},
		{
			"doubleSided":true,
			"name":"Glass",
			"pbrMetallicRoughness":{
				"baseColorFactor":[
					0.17464742064476013,
					0.2541521489620209,
					0.3277781009674072,
					1
				],
				"metallicFactor":0,
				"roughnessFactor":0.5
			}
		}
	],
	"meshes":[
		{
			"name":"Cube.040",
			"primitives":[
				{
					"attributes":{
						"POSITION":0,
						"TEXCOORD_0":1,
						"NORMAL":2
					},
					"indices":3,
					"material":0
				},
				{
					"attributes":{
						"POSITION":4,
						"TEXCOORD_0":5,
						"NORMAL":6
					},
					"indices":7,
					"material":1
				},
				{
					"attributes":{
						"POSITION":8,
						"TEXCOORD_0":9,
						"NORMAL":10
					},
					"indices":11,
					"material":2
				},
				{
					"attributes":{
						"POSITION":12,
						"TEXCOORD_0":13,
						"NORMAL":14
					},
					"indices":15,
					"material":3
				},
				{
					"attributes":{
						"POSITION":16,
						"TEXCOORD_0":17,
						"NORMAL":18
					},
					"indices":19,
					"material":4
				},
				{
					"attributes":{
						"POSITION":20,
						"TEXCOORD_0":21,
						"NORMAL":22
					},
					"indices":23,
					"material":5
				},
				{
					"attributes":{
						"POSITION":24,
						"TEXCOORD_0":25,
						"NORMAL":26
					},
					"indices":27,
					"material":6
				},
				{
					"attributes":{
						"POSITION":28,
						"TEXCOORD_0":29,
						"NORMAL":30
					},
					"indices":31,
					"material":7
				}
			]
		}
	],
	"accessors":[
		{
			"bufferView":0,
			"componentType":5126,
			"count":303,
			"max":[
				0.21932318806648254,
				0.9037653803825378,
				0.9872960448265076
			],
			"min":[
				-0.21932318806648254,
				-0.013159370981156826,
				0.9443585872650146
			],
			"type":"VEC3"
		},
		{
			"bufferView":1,
			"componentType":5126,
			"count":303,
			"type":"VEC2"
		},
		{
			"bufferView":2,
			"componentType":5126,
			"count":303,
			"type":"VEC3"
		},
		{
			"bufferView":3,
			"componentType":5123,
			"count":696,
			"type":"SCALAR"
		},
		{
			"bufferView":4,
			"componentType":5126,
			"count":676,
			"max":[
				1.0159869194030762,
				1.6570528745651245,
				1.0161681175231934
			],
			"min":[
				-1.0163490772247314,
				0.4445604383945465,
				-1.0161681175231934
			],
			"type":"VEC3"
		},
		{
			"bufferView":5,
			"componentType":5126,
			"count":676,
			"type":"VEC2"
		},
		{
			"bufferView":6,
			"componentType":5126,
			"count":676,
			"type":"VEC3"
		},
		{
			"bufferView":7,
			"componentType":5123,
			"count":1134,
			"type":"SCALAR"
		},
		{
			"bufferView":8,
			"componentType":5126,
			"count":119,
			"max":[
				1.0000001192092896,
				1.4931179285049438,
				1
			],
			"min":[
				-0.9999997615814209,
				-0.015192919410765171,
				-1
			],
			"type":"VEC3"
		},
		{
			"bufferView":9,
			"componentType":5126,
			"count":119,
			"type":"VEC2"
		},
		{
			"bufferView":10,
			"componentType":5126,
			"count":119,
			"type":"VEC3"
		},
		{
			"bufferView":11,
			"componentType":5123,
			"count":294,
			"type":"SCALAR"
		},
		{
			"bufferView":12,
			"componentType":5126,
			"count":1320,
			"max":[
				1.077080488204956,
				1.606721043586731,
				1.0770803689956665
			],
			"min":[
				-1.0770801305770874,
				1.3294299840927124,
				-1.0770803689956665
			],
			"type":"VEC3"
		},
		{
			"bufferView":13,
			"componentType":5126,
			"count":1320,
			"type":"VEC2"
		},
		{
			"bufferView":14,
			"componentType":5126,
			"count":1320,
			"type":"VEC3"
		},
		{
			"bufferView":15,
			"componentType":5123,
			"count":2514,
			"type":"SCALAR"
		},
		{
			"bufferView":16,
			"componentType":5126,
			"count":1876,
			"max":[
				1.0511571168899536,
				1.5738648176193237,
				1.0564407110214233
			],
			"min":[
				-1.0517252683639526,
				-0.010213213041424751,
				-1.0525774955749512
			],
			"type":"VEC3"
		},
		{
			"bufferView":17,
			"componentType":5126,
			"count":1876,
			"type":"VEC2"
		},
		{
			"bufferView":18,
			"componentType":5126,
			"count":1876,
			"type":"VEC3"
		},
		{
			"bufferView":19,
			"componentType":5123,
			"count":2820,
			"type":"SCALAR"
		},
		{
			"bufferView":20,
			"componentType":5126,
			"count":64,
			"max":[
				1.0194494724273682,
				0.3924316465854645,
				1.0194493532180786
			],
			"min":[
				-1.01944899559021,
				0.006552130449563265,
				-1.0194493532180786
			],
			"type":"VEC3"
		},
		{
			"bufferView":21,
			"componentType":5126,
			"count":64,
			"type":"VEC2"
		},
		{
			"bufferView":22,
			"componentType":5126,
			"count":64,
			"type":"VEC3"
		},
		{
			"bufferView":23,
			"componentType":5123,
			"count":120,
			"type":"SCALAR"
		},
		{
			"bufferView":24,
			"componentType":5126,
			"count":424,
			"max":[
				0.737707257270813,
				0.9575754404067993,
				1.0975559949874878
			],
			"min":[
				-0.7377068400382996,
				-0.015192919410765171,
				0.9069340229034424
			],
			"type":"VEC3"
		},
		{
			"bufferView":25,
			"componentType":5126,
			"count":424,
			"type":"VEC2"
		},
		{
			"bufferView":26,
			"componentType":5126,
			"count":424,
			"type":"VEC3"
		},
		{
			"bufferView":27,
			"componentType":5123,
			"count":846,
			"type":"SCALAR"
		},
		{
			"bufferView":28,
			"componentType":5126,
			"count":32,
			"max":[
				0.714908242225647,
				0.8468416929244995,
				1.0037540197372437
			],
			"min":[
				-0.7149078249931335,
				0.5387902855873108,
				1.0037540197372437
			],
			"type":"VEC3"
		},
		{
			"bufferView":29,
			"componentType":5126,
			"count":32,
			"type":"VEC2"
		},
		{
			"bufferView":30,
			"componentType":5126,
			"count":32,
			"type":"VEC3"
		},
		{
			"bufferView":31,
			"componentType":5123,
			"count":48,
			"type":"SCALAR"
		}
	],
	"bufferViews":[
		{
			"buffer":0,
			"byteLength":3636,
			"byteOffset":0,
			"target":34962
		},
		{
			"buffer":0,
			"byteLength":2424,
			"byteOffset":3636,
			"target":34962
		},
		{
			"buffer":0,
			"byteLength":3636,
			"byteOffset":6060,
			"target":34962
		},
		{
			"buffer":0,
			"byteLength":1392,
			"byteOffset":9696,
			"target":34963
		},
		{
			"buffer":0,
			"byteLength":8112,
			"byteOffset":11088,
			"target":34962
		},
		{
			"buffer":0,
			"byteLength":5408,
			"byteOffset":19200,
			"target":34962
		},
		{
			"buffer":0,
			"byteLength":8112,
			"byteOffset":24608,
			"target":34962
		},
		{
			"buffer":0,
			"byteLength":2268,
			"byteOffset":32720,
			"target":34963
		},
		{
			"buffer":0,
			"byteLength":1428,
			"byteOffset":34988,
			"target":34962
		},
		{
			"buffer":0,
			"byteLength":952,
			"byteOffset":36416,
			"target":34962
		},
		{
			"buffer":0,
			"byteLength":1428,
			"byteOffset":37368,
			"target":34962
		},
		{
			"buffer":0,
			"byteLength":588,
			"byteOffset":38796,
			"target":34963
		},
		{
			"buffer":0,
			"byteLength":15840,
			"byteOffset":39384,
			"target":34962
		},
		{
			"buffer":0,
			"byteLength":10560,
			"byteOffset":55224,
			"target":34962
		},
		{
			"buffer":0,
			"byteLength":15840,
			"byteOffset":65784,
			"target":34962
		},
		{
			"buffer":0,
			"byteLength":5028,
			"byteOffset":81624,
			"target":34963
		},
		{
			"buffer":0,
			"byteLength":22512,
			"byteOffset":86652,
			"target":34962
		},
		{
			"buffer":0,
			"byteLength":15008,
			"byteOffset":109164,
			"target":34962
		},
		{
			"buffer":0,
			"byteLength":22512,
			"byteOffset":124172,
			"target":34962
		},
		{
			"buffer":0,
			"byteLength":5640,
			"byteOffset":146684,
			"target":34963
		},
		{
			"buffer":0,
			"byteLength":768,
			"byteOffset":152324,
			"target":34962
		},
		{
			"buffer":0,
			"byteLength":512,
			"byteOffset":153092,
			"target":34962
		},
		{
			"buffer":0,
			"byteLength":768,
			"byteOffset":153604,
			"target":34962
		},
		{
			"buffer":0,
			"byteLength":240,
			"byteOffset":154372,
			"target":34963
		},
		{
			"buffer":0,
			"byteLength":5088,
			"byteOffset":154612,
			"target":34962
		},
		{
			"buffer":0,
			"byteLength":3392,
			"byteOffset":159700,
			"target":34962
		},
		{
			"buffer":0,
			"byteLength":5088,
			"byteOffset":163092,
			"target":34962
		},
		{
			"buffer":0,
			"byteLength":1692,
			"byteOffset":168180,
			"target":34963
		},
		{
			"buffer":0,
			"byteLength":384,
			"byteOffset":169872,
			"target":34962
		},
		{
			"buffer":0,
			"byteLength":256,
			"byteOffset":170256,
			"target":34962
		},
		{
			"buffer":0,
			"byteLength":384,
			"byteOffset":170512,
			"target":34962
		},
		{
			"buffer":0,
			"byteLength":96,
			"byteOffset":170896,
			"target":34963
		}
	],
	"buffers":[
		{
			"byteLength":170992,
			"uri":"data:application/octet-stream;base64,"
		}
	]
}
