{
	"asset":{
		"generator":"Khronos glTF Blender I/O v3.5.30",
		"version":"2.0"
	},
	"scene":0,
	"scenes":[
		{
			"name":"Scene",
			"nodes":[
				0
			]
		}
	],
	"nodes":[
		{
			"mesh":0,
			"name":"2Story_Mat"
		}
	],
	"materials":[
		{
			"doubleSided":true,
			"name":"Bricks",
			"pbrMetallicRoughness":{
				"baseColorFactor":[
					0.16513220965862274,
					0.30946895480155945,
					0.2622506618499756,
					1
				],
				"metallicFactor":0,
				"roughnessFactor":0.5
			}
		},
		{
			"doubleSided":true,
			"name":"Light",
			"pbrMetallicRoughness":{
				"baseColorFactor":[
					0.33716365694999695,
					0.3762621283531189,
					0.215860515832901,
					1
				],
				"metallicFactor":0,
				"roughnessFactor":0.5
			}
		},
		{
			"doubleSided":true,
			"name":"Main",
			"pbrMetallicRoughness":{
				"baseColorFactor":[
					0.11504646390676498,
					0.21402867138385773,
					0.17980532348155975,
					1
				],
				"metallicFactor":0,
				"roughnessFactor":0.5
			}
		},
		{
			"doubleSided":true,
			"name":"Dark",
			"pbrMetallicRoughness":{
				"baseColorFactor":[
					0.06847818195819855,
					0.11443537473678589,
					0.11193244159221649,
					1
				],
				"metallicFactor":0,
				"roughnessFactor":0.5
			}
		},
		{
			"doubleSided":true,
			"name":"White",
			"pbrMetallicRoughness":{
				"baseColorFactor":[
					0.5840784907341003,
					0.5840784907341003,
					0.5840784907341003,
					1
				],
				"metallicFactor":0,
				"roughnessFactor":0.5
			}
		},
		{
			"doubleSided":true,
			"name":"Wood",
			"pbrMetallicRoughness":{
				"baseColorFactor":[
					0.23839758336544037,
					0.08650047332048416,
					0.046665091067552567,
					1
				],
				"metallicFactor":0,
				"roughnessFactor":0.5
			}
		},
		{
			"doubleSided":true,
			"name":"Glass",
			"pbrMetallicRoughness":{
				"baseColorFactor":[
					0.17464742064476013,
					0.2541521489620209,
					0.3277781009674072,
					1
				],
				"metallicFactor":0,
				"roughnessFactor":0.5
			}
		},
		{
			"doubleSided":true,
			"name":"Black",
			"pbrMetallicRoughness":{
				"baseColorFactor":[
					0.0666259378194809,
					0.0666259378194809,
					0.0666259378194809,
					1
				],
				"metallicFactor":0,
				"roughnessFactor":0.5
			}
		},
		{
			"doubleSided":true,
			"name":"DarkBrown",
			"pbrMetallicRoughness":{
				"baseColorFactor":[
					0.09850160032510757,
					0.05440790206193924,
					0.037490133196115494,
					1
				],
				"metallicFactor":0,
				"roughnessFactor":0.5
			}
		}
	],
	"meshes":[
		{
			"name":"Cube.038",
			"primitives":[
				{
					"attributes":{
						"POSITION":0,
						"TEXCOORD_0":1,
						"NORMAL":2
					},
					"indices":3,
					"material":0
				},
				{
					"attributes":{
						"POSITION":4,
						"TEXCOORD_0":5,
						"NORMAL":6
					},
					"indices":7,
					"material":1
				},
				{
					"attributes":{
						"POSITION":8,
						"TEXCOORD_0":9,
						"NORMAL":10
					},
					"indices":11,
					"material":2
				},
				{
					"attributes":{
						"POSITION":12,
						"TEXCOORD_0":13,
						"NORMAL":14
					},
					"indices":15,
					"material":3
				},
				{
					"attributes":{
						"POSITION":16,
						"TEXCOORD_0":17,
						"NORMAL":18
					},
					"indices":19,
					"material":4
				},
				{
					"attributes":{
						"POSITION":20,
						"TEXCOORD_0":21,
						"NORMAL":22
					},
					"indices":23,
					"material":5
				},
				{
					"attributes":{
						"POSITION":24,
						"TEXCOORD_0":25,
						"NORMAL":26
					},
					"indices":27,
					"material":6
				},
				{
					"attributes":{
						"POSITION":28,
						"TEXCOORD_0":29,
						"NORMAL":30
					},
					"indices":31,
					"material":7
				},
				{
					"attributes":{
						"POSITION":32,
						"TEXCOORD_0":33,
						"NORMAL":34
					},
					"indices":35,
					"material":8
				}
			]
		}
	],
	"accessors":[
		{
			"bufferView":0,
			"componentType":5126,
			"count":1024,
			"max":[
				1.0161683559417725,
				2.6678123474121094,
				1.016168236732483
			],
			"min":[
				-1.016168236732483,
				0.4748179614543915,
				-1.016168236732483
			],
			"type":"VEC3"
		},
		{
			"bufferView":1,
			"componentType":5126,
			"count":1024,
			"type":"VEC2"
		},
		{
			"bufferView":2,
			"componentType":5126,
			"count":1024,
			"type":"VEC3"
		},
		{
			"bufferView":3,
			"componentType":5123,
			"count":1638,
			"type":"SCALAR"
		},
		{
			"bufferView":4,
			"componentType":5126,
			"count":1312,
			"max":[
				1.0793229341506958,
				2.6096675395965576,
				1.077302098274231
			],
			"min":[
				-1.0793229341506958,
				1.150689959526062,
				-1.077302098274231
			],
			"type":"VEC3"
		},
		{
			"bufferView":5,
			"componentType":5126,
			"count":1312,
			"type":"VEC2"
		},
		{
			"bufferView":6,
			"componentType":5126,
			"count":1312,
			"type":"VEC3"
		},
		{
			"bufferView":7,
			"componentType":5123,
			"count":2388,
			"type":"SCALAR"
		},
		{
			"bufferView":8,
			"componentType":5126,
			"count":161,
			"max":[
				1,
				2.4958579540252686,
				1.4212028980255127
			],
			"min":[
				-1,
				-0.003245369764044881,
				-1
			],
			"type":"VEC3"
		},
		{
			"bufferView":9,
			"componentType":5126,
			"count":161,
			"type":"VEC2"
		},
		{
			"bufferView":10,
			"componentType":5126,
			"count":161,
			"type":"VEC3"
		},
		{
			"bufferView":11,
			"componentType":5123,
			"count":336,
			"type":"SCALAR"
		},
		{
			"bufferView":12,
			"componentType":5126,
			"count":2250,
			"max":[
				1.0481771230697632,
				2.5768113136291504,
				1.4548730850219727
			],
			"min":[
				-1.045927882194519,
				-0.003245369764044881,
				-1.0513253211975098
			],
			"type":"VEC3"
		},
		{
			"bufferView":13,
			"componentType":5126,
			"count":2250,
			"type":"VEC2"
		},
		{
			"bufferView":14,
			"componentType":5126,
			"count":2250,
			"type":"VEC3"
		},
		{
			"bufferView":15,
			"componentType":5123,
			"count":3504,
			"type":"SCALAR"
		},
		{
			"bufferView":16,
			"componentType":5126,
			"count":232,
			"max":[
				1.0194493532180786,
				2.7420880794525146,
				1.1336129903793335
			],
			"min":[
				-1.0194493532180786,
				-0.0032453692983835936,
				-1.0194493532180786
			],
			"type":"VEC3"
		},
		{
			"bufferView":17,
			"componentType":5126,
			"count":232,
			"type":"VEC2"
		},
		{
			"bufferView":18,
			"componentType":5126,
			"count":232,
			"type":"VEC3"
		},
		{
			"bufferView":19,
			"componentType":5123,
			"count":384,
			"type":"SCALAR"
		},
		{
			"bufferView":20,
			"componentType":5126,
			"count":772,
			"max":[
				0.7377071976661682,
				2.0544769763946533,
				1.0351390838623047
			],
			"min":[
				-0.7377071380615234,
				0.5200278162956238,
				0.9069340825080872
			],
			"type":"VEC3"
		},
		{
			"bufferView":21,
			"componentType":5126,
			"count":772,
			"type":"VEC2"
		},
		{
			"bufferView":22,
			"componentType":5126,
			"count":772,
			"type":"VEC3"
		},
		{
			"bufferView":23,
			"componentType":5123,
			"count":1728,
			"type":"SCALAR"
		},
		{
			"bufferView":24,
			"componentType":5126,
			"count":84,
			"max":[
				0.7149081826210022,
				2.034438371658325,
				1.0037540197372437
			],
			"min":[
				-0.7149081230163574,
				0.22828446328639984,
				0.9967888593673706
			],
			"type":"VEC3"
		},
		{
			"bufferView":25,
			"componentType":5126,
			"count":84,
			"type":"VEC2"
		},
		{
			"bufferView":26,
			"componentType":5126,
			"count":84,
			"type":"VEC3"
		},
		{
			"bufferView":27,
			"componentType":5123,
			"count":126,
			"type":"SCALAR"
		},
		{
			"bufferView":28,
			"componentType":5126,
			"count":96,
			"max":[
				-0.35855287313461304,
				2.7279176712036133,
				-0.45039162039756775
			],
			"min":[
				-0.858157217502594,
				2.579531669616699,
				-0.4906783998012543
			],
			"type":"VEC3"
		},
		{
			"bufferView":29,
			"componentType":5126,
			"count":96,
			"type":"VEC2"
		},
		{
			"bufferView":30,
			"componentType":5126,
			"count":96,
			"type":"VEC3"
		},
		{
			"bufferView":31,
			"componentType":5123,
			"count":168,
			"type":"SCALAR"
		},
		{
			"bufferView":32,
			"componentType":5126,
			"count":196,
			"max":[
				0.2218625545501709,
				1.0625516176223755,
				1.004602313041687
			],
			"min":[
				-0.2218625843524933,
				0.15595707297325134,
				0.9550356268882751
			],
			"type":"VEC3"
		},
		{
			"bufferView":33,
			"componentType":5126,
			"count":196,
			"type":"VEC2"
		},
		{
			"bufferView":34,
			"componentType":5126,
			"count":196,
			"type":"VEC3"
		},
		{
			"bufferView":35,
			"componentType":5123,
			"count":336,
			"type":"SCALAR"
		}
	],
	"bufferViews":[
		{
			"buffer":0,
			"byteLength":12288,
			"byteOffset":0,
			"target":34962
		},
		{
			"buffer":0,
			"byteLength":8192,
			"byteOffset":12288,
			"target":34962
		},
		{
			"buffer":0,
			"byteLength":12288,
			"byteOffset":20480,
			"target":34962
		},
		{
			"buffer":0,
			"byteLength":3276,
			"byteOffset":32768,
			"target":34963
		},
		{
			"buffer":0,
			"byteLength":15744,
			"byteOffset":36044,
			"target":34962
		},
		{
			"buffer":0,
			"byteLength":10496,
			"byteOffset":51788,
			"target":34962
		},
		{
			"buffer":0,
			"byteLength":15744,
			"byteOffset":62284,
			"target":34962
		},
		{
			"buffer":0,
			"byteLength":4776,
			"byteOffset":78028,
			"target":34963
		},
		{
			"buffer":0,
			"byteLength":1932,
			"byteOffset":82804,
			"target":34962
		},
		{
			"buffer":0,
			"byteLength":1288,
			"byteOffset":84736,
			"target":34962
		},
		{
			"buffer":0,
			"byteLength":1932,
			"byteOffset":86024,
			"target":34962
		},
		{
			"buffer":0,
			"byteLength":672,
			"byteOffset":87956,
			"target":34963
		},
		{
			"buffer":0,
			"byteLength":27000,
			"byteOffset":88628,
			"target":34962
		},
		{
			"buffer":0,
			"byteLength":18000,
			"byteOffset":115628,
			"target":34962
		},
		{
			"buffer":0,
			"byteLength":27000,
			"byteOffset":133628,
			"target":34962
		},
		{
			"buffer":0,
			"byteLength":7008,
			"byteOffset":160628,
			"target":34963
		},
		{
			"buffer":0,
			"byteLength":2784,
			"byteOffset":167636,
			"target":34962
		},
		{
			"buffer":0,
			"byteLength":1856,
			"byteOffset":170420,
			"target":34962
		},
		{
			"buffer":0,
			"byteLength":2784,
			"byteOffset":172276,
			"target":34962
		},
		{
			"buffer":0,
			"byteLength":768,
			"byteOffset":175060,
			"target":34963
		},
		{
			"buffer":0,
			"byteLength":9264,
			"byteOffset":175828,
			"target":34962
		},
		{
			"buffer":0,
			"byteLength":6176,
			"byteOffset":185092,
			"target":34962
		},
		{
			"buffer":0,
			"byteLength":9264,
			"byteOffset":191268,
			"target":34962
		},
		{
			"buffer":0,
			"byteLength":3456,
			"byteOffset":200532,
			"target":34963
		},
		{
			"buffer":0,
			"byteLength":1008,
			"byteOffset":203988,
			"target":34962
		},
		{
			"buffer":0,
			"byteLength":672,
			"byteOffset":204996,
			"target":34962
		},
		{
			"buffer":0,
			"byteLength":1008,
			"byteOffset":205668,
			"target":34962
		},
		{
			"buffer":0,
			"byteLength":252,
			"byteOffset":206676,
			"target":34963
		},
		{
			"buffer":0,
			"byteLength":1152,
			"byteOffset":206928,
			"target":34962
		},
		{
			"buffer":0,
			"byteLength":768,
			"byteOffset":208080,
			"target":34962
		},
		{
			"buffer":0,
			"byteLength":1152,
			"byteOffset":208848,
			"target":34962
		},
		{
			"buffer":0,
			"byteLength":336,
			"byteOffset":210000,
			"target":34963
		},
		{
			"buffer":0,
			"byteLength":2352,
			"byteOffset":210336,
			"target":34962
		},
		{
			"buffer":0,
			"byteLength":1568,
			"byteOffset":212688,
			"target":34962
		},
		{
			"buffer":0,
			"byteLength":2352,
			"byteOffset":214256,
			"target":34962
		},
		{
			"buffer":0,
			"byteLength":672,
			"byteOffset":216608,
			"target":34963
		}
	],
	"buffers":[
		{
			"byteLength":217280,
			"uri":"data:application/octet-stream;base64,"
		}
	]
}
