{
	"asset":{
		"generator":"Khronos glTF Blender I/O v3.5.30",
		"version":"2.0"
	},
	"scene":0,
	"scenes":[
		{
			"name":"Scene",
			"nodes":[
				0
			]
		}
	],
	"nodes":[
		{
			"mesh":0,
			"name":"2Story_Sign_Mat"
		}
	],
	"materials":[
		{
			"doubleSided":true,
			"name":"Bricks",
			"pbrMetallicRoughness":{
				"baseColorFactor":[
					0.16513220965862274,
					0.30946895480155945,
					0.2622506618499756,
					1
				],
				"metallicFactor":0,
				"roughnessFactor":0.5
			}
		},
		{
			"doubleSided":true,
			"name":"Light",
			"pbrMetallicRoughness":{
				"baseColorFactor":[
					0.33716365694999695,
					0.3762621283531189,
					0.215860515832901,
					1
				],
				"metallicFactor":0,
				"roughnessFactor":0.5
			}
		},
		{
			"doubleSided":true,
			"name":"Main",
			"pbrMetallicRoughness":{
				"baseColorFactor":[
					0.11504646390676498,
					0.21402867138385773,
					0.17980532348155975,
					1
				],
				"metallicFactor":0,
				"roughnessFactor":0.5
			}
		},
		{
			"doubleSided":true,
			"name":"Dark",
			"pbrMetallicRoughness":{
				"baseColorFactor":[
					0.06847818195819855,
					0.11443537473678589,
					0.11193244159221649,
					1
				],
				"metallicFactor":0,
				"roughnessFactor":0.5
			}
		},
		{
			"doubleSided":true,
			"name":"White",
			"pbrMetallicRoughness":{
				"baseColorFactor":[
					0.5840784907341003,
					0.5840784907341003,
					0.5840784907341003,
					1
				],
				"metallicFactor":0,
				"roughnessFactor":0.5
			}
		},
		{
			"doubleSided":true,
			"name":"DarkWood",
			"pbrMetallicRoughness":{
				"baseColorFactor":[
					0.13286834955215454,
					0.061246056109666824,
					0.029556844383478165,
					1
				],
				"metallicFactor":0,
				"roughnessFactor":0.5
			}
		},
		{
			"doubleSided":true,
			"name":"Black",
			"pbrMetallicRoughness":{
				"baseColorFactor":[
					0.0666259378194809,
					0.0666259378194809,
					0.0666259378194809,
					1
				],
				"metallicFactor":0,
				"roughnessFactor":0.5
			}
		}
	],
	"meshes":[
		{
			"name":"Cube.030",
			"primitives":[
				{
					"attributes":{
						"POSITION":0,
						"TEXCOORD_0":1,
						"NORMAL":2
					},
					"indices":3,
					"material":0
				},
				{
					"attributes":{
						"POSITION":4,
						"TEXCOORD_0":5,
						"NORMAL":6
					},
					"indices":7,
					"material":1
				},
				{
					"attributes":{
						"POSITION":8,
						"TEXCOORD_0":9,
						"NORMAL":10
					},
					"indices":11,
					"material":2
				},
				{
					"attributes":{
						"POSITION":12,
						"TEXCOORD_0":13,
						"NORMAL":14
					},
					"indices":15,
					"material":3
				},
				{
					"attributes":{
						"POSITION":16,
						"TEXCOORD_0":17,
						"NORMAL":18
					},
					"indices":19,
					"material":4
				},
				{
					"attributes":{
						"POSITION":20,
						"TEXCOORD_0":21,
						"NORMAL":22
					},
					"indices":23,
					"material":5
				},
				{
					"attributes":{
						"POSITION":24,
						"TEXCOORD_0":25,
						"NORMAL":26
					},
					"indices":27,
					"material":6
				}
			]
		}
	],
	"accessors":[
		{
			"bufferView":0,
			"componentType":5126,
			"count":836,
			"max":[
				1.016168236732483,
				2.6678128242492676,
				1.016168236732483
			],
			"min":[
				-1.016168236732483,
				0.5152692198753357,
				-1.016168236732483
			],
			"type":"VEC3"
		},
		{
			"bufferView":1,
			"componentType":5126,
			"count":836,
			"type":"VEC2"
		},
		{
			"bufferView":2,
			"componentType":5126,
			"count":836,
			"type":"VEC3"
		},
		{
			"bufferView":3,
			"componentType":5123,
			"count":1326,
			"type":"SCALAR"
		},
		{
			"bufferView":4,
			"componentType":5126,
			"count":88,
			"max":[
				1.0770803689956665,
				2.6096675395965576,
				1.0770803689956665
			],
			"min":[
				-1.0770803689956665,
				2.480273485183716,
				-1.0770803689956665
			],
			"type":"VEC3"
		},
		{
			"bufferView":5,
			"componentType":5126,
			"count":88,
			"type":"VEC2"
		},
		{
			"bufferView":6,
			"componentType":5126,
			"count":88,
			"type":"VEC3"
		},
		{
			"bufferView":7,
			"componentType":5123,
			"count":162,
			"type":"SCALAR"
		},
		{
			"bufferView":8,
			"componentType":5126,
			"count":101,
			"max":[
				1,
				2.4958579540252686,
				1
			],
			"min":[
				-1,
				-0.015192918479442596,
				-1
			],
			"type":"VEC3"
		},
		{
			"bufferView":9,
			"componentType":5126,
			"count":101,
			"type":"VEC2"
		},
		{
			"bufferView":10,
			"componentType":5126,
			"count":101,
			"type":"VEC3"
		},
		{
			"bufferView":11,
			"componentType":5123,
			"count":246,
			"type":"SCALAR"
		},
		{
			"bufferView":12,
			"componentType":5126,
			"count":4242,
			"max":[
				1.055742859840393,
				2.5768113136291504,
				1.0537662506103516
			],
			"min":[
				-1.055742859840393,
				-0.015192918479442596,
				-1.0537662506103516
			],
			"type":"VEC3"
		},
		{
			"bufferView":13,
			"componentType":5126,
			"count":4242,
			"type":"VEC2"
		},
		{
			"bufferView":14,
			"componentType":5126,
			"count":4242,
			"type":"VEC3"
		},
		{
			"bufferView":15,
			"componentType":5123,
			"count":6378,
			"type":"SCALAR"
		},
		{
			"bufferView":16,
			"componentType":5126,
			"count":280,
			"max":[
				1.0194493532180786,
				2.742088556289673,
				1.0194493532180786
			],
			"min":[
				-1.0194493532180786,
				0.0065521299839019775,
				-1.0194493532180786
			],
			"type":"VEC3"
		},
		{
			"bufferView":17,
			"componentType":5126,
			"count":280,
			"type":"VEC2"
		},
		{
			"bufferView":18,
			"componentType":5126,
			"count":280,
			"type":"VEC3"
		},
		{
			"bufferView":19,
			"componentType":5123,
			"count":504,
			"type":"SCALAR"
		},
		{
			"bufferView":20,
			"componentType":5126,
			"count":487,
			"max":[
				0.7366876602172852,
				1.7664521932601929,
				1.0228259563446045
			],
			"min":[
				-0.7306073307991028,
				-0.011651053093373775,
				0.953498125076294
			],
			"type":"VEC3"
		},
		{
			"bufferView":21,
			"componentType":5126,
			"count":487,
			"type":"VEC2"
		},
		{
			"bufferView":22,
			"componentType":5126,
			"count":487,
			"type":"VEC3"
		},
		{
			"bufferView":23,
			"componentType":5123,
			"count":996,
			"type":"SCALAR"
		},
		{
			"bufferView":24,
			"componentType":5126,
			"count":96,
			"max":[
				-0.3490486145019531,
				2.7279181480407715,
				-0.7307989001274109
			],
			"min":[
				-0.8261585235595703,
				2.5795321464538574,
				-0.7710856199264526
			],
			"type":"VEC3"
		},
		{
			"bufferView":25,
			"componentType":5126,
			"count":96,
			"type":"VEC2"
		},
		{
			"bufferView":26,
			"componentType":5126,
			"count":96,
			"type":"VEC3"
		},
		{
			"bufferView":27,
			"componentType":5123,
			"count":168,
			"type":"SCALAR"
		}
	],
	"bufferViews":[
		{
			"buffer":0,
			"byteLength":10032,
			"byteOffset":0,
			"target":34962
		},
		{
			"buffer":0,
			"byteLength":6688,
			"byteOffset":10032,
			"target":34962
		},
		{
			"buffer":0,
			"byteLength":10032,
			"byteOffset":16720,
			"target":34962
		},
		{
			"buffer":0,
			"byteLength":2652,
			"byteOffset":26752,
			"target":34963
		},
		{
			"buffer":0,
			"byteLength":1056,
			"byteOffset":29404,
			"target":34962
		},
		{
			"buffer":0,
			"byteLength":704,
			"byteOffset":30460,
			"target":34962
		},
		{
			"buffer":0,
			"byteLength":1056,
			"byteOffset":31164,
			"target":34962
		},
		{
			"buffer":0,
			"byteLength":324,
			"byteOffset":32220,
			"target":34963
		},
		{
			"buffer":0,
			"byteLength":1212,
			"byteOffset":32544,
			"target":34962
		},
		{
			"buffer":0,
			"byteLength":808,
			"byteOffset":33756,
			"target":34962
		},
		{
			"buffer":0,
			"byteLength":1212,
			"byteOffset":34564,
			"target":34962
		},
		{
			"buffer":0,
			"byteLength":492,
			"byteOffset":35776,
			"target":34963
		},
		{
			"buffer":0,
			"byteLength":50904,
			"byteOffset":36268,
			"target":34962
		},
		{
			"buffer":0,
			"byteLength":33936,
			"byteOffset":87172,
			"target":34962
		},
		{
			"buffer":0,
			"byteLength":50904,
			"byteOffset":121108,
			"target":34962
		},
		{
			"buffer":0,
			"byteLength":12756,
			"byteOffset":172012,
			"target":34963
		},
		{
			"buffer":0,
			"byteLength":3360,
			"byteOffset":184768,
			"target":34962
		},
		{
			"buffer":0,
			"byteLength":2240,
			"byteOffset":188128,
			"target":34962
		},
		{
			"buffer":0,
			"byteLength":3360,
			"byteOffset":190368,
			"target":34962
		},
		{
			"buffer":0,
			"byteLength":1008,
			"byteOffset":193728,
			"target":34963
		},
		{
			"buffer":0,
			"byteLength":5844,
			"byteOffset":194736,
			"target":34962
		},
		{
			"buffer":0,
			"byteLength":3896,
			"byteOffset":200580,
			"target":34962
		},
		{
			"buffer":0,
			"byteLength":5844,
			"byteOffset":204476,
			"target":34962
		},
		{
			"buffer":0,
			"byteLength":1992,
			"byteOffset":210320,
			"target":34963
		},
		{
			"buffer":0,
			"byteLength":1152,
			"byteOffset":212312,
			"target":34962
		},
		{
			"buffer":0,
			"byteLength":768,
			"byteOffset":213464,
			"target":34962
		},
		{
			"buffer":0,
			"byteLength":1152,
			"byteOffset":214232,
			"target":34962
		},
		{
			"buffer":0,
			"byteLength":336,
			"byteOffset":215384,
			"target":34963
		}
	],
	"buffers":[
		{
			"byteLength":215720,
			"uri":"data:application/octet-stream;base64,"
		}
	]
}
