{
	"asset":{
		"generator":"Khronos glTF Blender I/O v3.5.30",
		"version":"2.0"
	},
	"scene":0,
	"scenes":[
		{
			"name":"Scene",
			"nodes":[
				0
			]
		}
	],
	"nodes":[
		{
			"mesh":0,
			"name":"4Story_Center_Mat"
		}
	],
	"materials":[
		{
			"doubleSided":true,
			"name":"Windows",
			"pbrMetallicRoughness":{
				"baseColorFactor":[
					0.35153263807296753,
					0.35153263807296753,
					0.35153263807296753,
					1
				],
				"metallicFactor":0,
				"roughnessFactor":0.5
			}
		},
		{
			"doubleSided":true,
			"name":"Glass",
			"pbrMetallicRoughness":{
				"baseColorFactor":[
					0.17464742064476013,
					0.2541521489620209,
					0.3277781009674072,
					1
				],
				"metallicFactor":0,
				"roughnessFactor":0.5
			}
		},
		{
			"doubleSided":true,
			"name":"Bricks",
			"pbrMetallicRoughness":{
				"baseColorFactor":[
					0.16513220965862274,
					0.30946895480155945,
					0.2622506618499756,
					1
				],
				"metallicFactor":0,
				"roughnessFactor":0.5
			}
		},
		{
			"doubleSided":true,
			"name":"Main",
			"pbrMetallicRoughness":{
				"baseColorFactor":[
					0.11504646390676498,
					0.21402867138385773,
					0.17980532348155975,
					1
				],
				"metallicFactor":0,
				"roughnessFactor":0.5
			}
		},
		{
			"doubleSided":true,
			"name":"Dark",
			"pbrMetallicRoughness":{
				"baseColorFactor":[
					0.06847818195819855,
					0.11443537473678589,
					0.11193244159221649,
					1
				],
				"metallicFactor":0,
				"roughnessFactor":0.5
			}
		},
		{
			"doubleSided":true,
			"name":"White",
			"pbrMetallicRoughness":{
				"baseColorFactor":[
					0.5840784907341003,
					0.5840784907341003,
					0.5840784907341003,
					1
				],
				"metallicFactor":0,
				"roughnessFactor":0.5
			}
		},
		{
			"doubleSided":true,
			"name":"Black",
			"pbrMetallicRoughness":{
				"baseColorFactor":[
					0.0666259378194809,
					0.0666259378194809,
					0.0666259378194809,
					1
				],
				"metallicFactor":0,
				"roughnessFactor":0.5
			}
		}
	],
	"meshes":[
		{
			"name":"Cube.021",
			"primitives":[
				{
					"attributes":{
						"POSITION":0,
						"TEXCOORD_0":1,
						"NORMAL":2
					},
					"indices":3,
					"material":0
				},
				{
					"attributes":{
						"POSITION":4,
						"TEXCOORD_0":5,
						"NORMAL":6
					},
					"indices":7,
					"material":1
				},
				{
					"attributes":{
						"POSITION":8,
						"TEXCOORD_0":9,
						"NORMAL":10
					},
					"indices":11,
					"material":2
				},
				{
					"attributes":{
						"POSITION":12,
						"TEXCOORD_0":13,
						"NORMAL":14
					},
					"indices":15,
					"material":3
				},
				{
					"attributes":{
						"POSITION":16,
						"TEXCOORD_0":17,
						"NORMAL":18
					},
					"indices":19,
					"material":4
				},
				{
					"attributes":{
						"POSITION":20,
						"TEXCOORD_0":21,
						"NORMAL":22
					},
					"indices":23,
					"material":5
				},
				{
					"attributes":{
						"POSITION":24,
						"TEXCOORD_0":25,
						"NORMAL":26
					},
					"indices":27,
					"material":6
				}
			]
		}
	],
	"accessors":[
		{
			"bufferView":0,
			"componentType":5126,
			"count":2030,
			"max":[
				0.8701881170272827,
				4.3999152183532715,
				1.0232374668121338
			],
			"min":[
				-0.868958592414856,
				-0.0043115802109241486,
				0.6991747617721558
			],
			"type":"VEC3"
		},
		{
			"bufferView":1,
			"componentType":5126,
			"count":2030,
			"type":"VEC2"
		},
		{
			"bufferView":2,
			"componentType":5126,
			"count":2030,
			"type":"VEC3"
		},
		{
			"bufferView":3,
			"componentType":5123,
			"count":4548,
			"type":"SCALAR"
		},
		{
			"bufferView":4,
			"componentType":5126,
			"count":208,
			"max":[
				0.8473891019821167,
				4.379876613616943,
				1.0037540197372437
			],
			"min":[
				-0.8461595773696899,
				0.24694298207759857,
				0.7296717166900635
			],
			"type":"VEC3"
		},
		{
			"bufferView":5,
			"componentType":5126,
			"count":208,
			"type":"VEC2"
		},
		{
			"bufferView":6,
			"componentType":5126,
			"count":208,
			"type":"VEC3"
		},
		{
			"bufferView":7,
			"componentType":5123,
			"count":312,
			"type":"SCALAR"
		},
		{
			"bufferView":8,
			"componentType":5126,
			"count":1882,
			"max":[
				1.1620022058486938,
				5.013250350952148,
				1.0161679983139038
			],
			"min":[
				-1.1474196910858154,
				0.44948622584342957,
				-1.0161683559417725
			],
			"type":"VEC3"
		},
		{
			"bufferView":9,
			"componentType":5126,
			"count":1882,
			"type":"VEC2"
		},
		{
			"bufferView":10,
			"componentType":5126,
			"count":1882,
			"type":"VEC3"
		},
		{
			"bufferView":11,
			"componentType":5123,
			"count":3012,
			"type":"SCALAR"
		},
		{
			"bufferView":12,
			"componentType":5126,
			"count":168,
			"max":[
				1.1312512159347534,
				4.841296195983887,
				1.4212028980255127
			],
			"min":[
				-1.131251573562622,
				-0.004311602562665939,
				-1
			],
			"type":"VEC3"
		},
		{
			"bufferView":13,
			"componentType":5126,
			"count":168,
			"type":"VEC2"
		},
		{
			"bufferView":14,
			"componentType":5126,
			"count":168,
			"type":"VEC3"
		},
		{
			"bufferView":15,
			"componentType":5123,
			"count":336,
			"type":"SCALAR"
		},
		{
			"bufferView":16,
			"componentType":5126,
			"count":2560,
			"max":[
				1.179428219795227,
				4.922249794006348,
				1.4548730850219727
			],
			"min":[
				-1.1771794557571411,
				-0.004311603493988514,
				-1.0513253211975098
			],
			"type":"VEC3"
		},
		{
			"bufferView":17,
			"componentType":5126,
			"count":2560,
			"type":"VEC2"
		},
		{
			"bufferView":18,
			"componentType":5126,
			"count":2560,
			"type":"VEC3"
		},
		{
			"bufferView":19,
			"componentType":5123,
			"count":4026,
			"type":"SCALAR"
		},
		{
			"bufferView":20,
			"componentType":5126,
			"count":3424,
			"max":[
				1.2105746269226074,
				5.087526321411133,
				1.1336129903793335
			],
			"min":[
				-1.2105745077133179,
				-0.004311603028327227,
				-1.0773022174835205
			],
			"type":"VEC3"
		},
		{
			"bufferView":21,
			"componentType":5126,
			"count":3424,
			"type":"VEC2"
		},
		{
			"bufferView":22,
			"componentType":5126,
			"count":3424,
			"type":"VEC3"
		},
		{
			"bufferView":23,
			"componentType":5123,
			"count":6204,
			"type":"SCALAR"
		},
		{
			"bufferView":24,
			"componentType":5126,
			"count":288,
			"max":[
				0.8644039630889893,
				5.073356628417969,
				-0.3992723822593689
			],
			"min":[
				0.01676948182284832,
				4.924970626831055,
				-0.6678035855293274
			],
			"type":"VEC3"
		},
		{
			"bufferView":25,
			"componentType":5126,
			"count":288,
			"type":"VEC2"
		},
		{
			"bufferView":26,
			"componentType":5126,
			"count":288,
			"type":"VEC3"
		},
		{
			"bufferView":27,
			"componentType":5123,
			"count":504,
			"type":"SCALAR"
		}
	],
	"bufferViews":[
		{
			"buffer":0,
			"byteLength":24360,
			"byteOffset":0,
			"target":34962
		},
		{
			"buffer":0,
			"byteLength":16240,
			"byteOffset":24360,
			"target":34962
		},
		{
			"buffer":0,
			"byteLength":24360,
			"byteOffset":40600,
			"target":34962
		},
		{
			"buffer":0,
			"byteLength":9096,
			"byteOffset":64960,
			"target":34963
		},
		{
			"buffer":0,
			"byteLength":2496,
			"byteOffset":74056,
			"target":34962
		},
		{
			"buffer":0,
			"byteLength":1664,
			"byteOffset":76552,
			"target":34962
		},
		{
			"buffer":0,
			"byteLength":2496,
			"byteOffset":78216,
			"target":34962
		},
		{
			"buffer":0,
			"byteLength":624,
			"byteOffset":80712,
			"target":34963
		},
		{
			"buffer":0,
			"byteLength":22584,
			"byteOffset":81336,
			"target":34962
		},
		{
			"buffer":0,
			"byteLength":15056,
			"byteOffset":103920,
			"target":34962
		},
		{
			"buffer":0,
			"byteLength":22584,
			"byteOffset":118976,
			"target":34962
		},
		{
			"buffer":0,
			"byteLength":6024,
			"byteOffset":141560,
			"target":34963
		},
		{
			"buffer":0,
			"byteLength":2016,
			"byteOffset":147584,
			"target":34962
		},
		{
			"buffer":0,
			"byteLength":1344,
			"byteOffset":149600,
			"target":34962
		},
		{
			"buffer":0,
			"byteLength":2016,
			"byteOffset":150944,
			"target":34962
		},
		{
			"buffer":0,
			"byteLength":672,
			"byteOffset":152960,
			"target":34963
		},
		{
			"buffer":0,
			"byteLength":30720,
			"byteOffset":153632,
			"target":34962
		},
		{
			"buffer":0,
			"byteLength":20480,
			"byteOffset":184352,
			"target":34962
		},
		{
			"buffer":0,
			"byteLength":30720,
			"byteOffset":204832,
			"target":34962
		},
		{
			"buffer":0,
			"byteLength":8052,
			"byteOffset":235552,
			"target":34963
		},
		{
			"buffer":0,
			"byteLength":41088,
			"byteOffset":243604,
			"target":34962
		},
		{
			"buffer":0,
			"byteLength":27392,
			"byteOffset":284692,
			"target":34962
		},
		{
			"buffer":0,
			"byteLength":41088,
			"byteOffset":312084,
			"target":34962
		},
		{
			"buffer":0,
			"byteLength":12408,
			"byteOffset":353172,
			"target":34963
		},
		{
			"buffer":0,
			"byteLength":3456,
			"byteOffset":365580,
			"target":34962
		},
		{
			"buffer":0,
			"byteLength":2304,
			"byteOffset":369036,
			"target":34962
		},
		{
			"buffer":0,
			"byteLength":3456,
			"byteOffset":371340,
			"target":34962
		},
		{
			"buffer":0,
			"byteLength":1008,
			"byteOffset":374796,
			"target":34963
		}
	],
	"buffers":[
		{
			"byteLength":375804,
			"uri":"data:application/octet-stream;base64,"
		}
	]
}
