{
	"asset":{
		"generator":"Khronos glTF Blender I/O v3.5.30",
		"version":"2.0"
	},
	"scene":0,
	"scenes":[
		{
			"name":"Scene",
			"nodes":[
				0
			]
		}
	],
	"nodes":[
		{
			"mesh":0,
			"name":"Column_Round"
		}
	],
	"materials":[
		{
			"doubleSided":true,
			"name":"Main",
			"pbrMetallicRoughness":{
				"baseColorFactor":[
					0.15896087884902954,
					0.16202940046787262,
					0.1247718334197998,
					1
				],
				"metallicFactor":0,
				"roughnessFactor":0.5
			}
		}
	],
	"meshes":[
		{
			"name":"Cylinder.023",
			"primitives":[
				{
					"attributes":{
						"POSITION":0,
						"NORMAL":1
					},
					"indices":2,
					"material":0
				}
			]
		}
	],
	"accessors":[
		{
			"bufferView":0,
			"componentType":5126,
			"count":1243,
			"max":[
				0.32829469442367554,
				3.989891290664673,
				0.32829493284225464
			],
			"min":[
				-0.32829469442367554,
				0,
				-0.32829493284225464
			],
			"type":"VEC3"
		},
		{
			"bufferView":1,
			"componentType":5126,
			"count":1243,
			"type":"VEC3"
		},
		{
			"bufferView":2,
			"componentType":5123,
			"count":3030,
			"type":"SCALAR"
		}
	],
	"bufferViews":[
		{
			"buffer":0,
			"byteLength":14916,
			"byteOffset":0,
			"target":34962
		},
		{
			"buffer":0,
			"byteLength":14916,
			"byteOffset":14916,
			"target":34962
		},
		{
			"buffer":0,
			"byteLength":6060,
			"byteOffset":29832,
			"target":34963
		}
	],
	"buffers":[
		{
			"byteLength":35892,
			"uri":"Column_Round.bin"
		}
	]
}
