{
	"asset":{
		"generator":"Khronos glTF Blender I/O v3.5.30",
		"version":"2.0"
	},
	"scene":0,
	"scenes":[
		{
			"name":"Scene",
			"nodes":[
				9
			]
		}
	],
	"nodes":[
		{
			"name":"Propeller.F.R",
			"translation":[
				-0.2475000023841858,
				0,
				0.2475000023841858
			]
		},
		{
			"name":"Propeller.F.L",
			"translation":[
				0.2475000023841858,
				0,
				0.2475000023841858
			]
		},
		{
			"name":"Propeller.B.R",
			"translation":[
				-0.2475000023841858,
				0,
				-0.2475000023841858
			]
		},
		{
			"name":"Propeller.B.L",
			"translation":[
				0.2475000023841858,
				0,
				-0.2475000023841858
			]
		},
		{
			"children":[
				0,
				1,
				2,
				3
			],
			"name":"Root"
		},
		{
			"mesh":0,
			"name":"Drone_Frame",
			"skin":0
		},
		{
			"mesh":1,
			"name":"Drone_Propeller",
			"skin":0
		},
		{
			"mesh":2,
			"name":"Drone_Tank",
			"skin":0
		},
		{
			"mesh":3,
			"name":"Drone_Tank.Gage",
			"skin":0
		},
		{
			"children":[
				5,
				6,
				7,
				8,
				4
			],
			"name":"Dorne"
		}
	],
	"animations":[
		{
			"channels":[
				{
					"sampler":0,
					"target":{
						"node":4,
						"path":"translation"
					}
				},
				{
					"sampler":1,
					"target":{
						"node":4,
						"path":"rotation"
					}
				},
				{
					"sampler":2,
					"target":{
						"node":4,
						"path":"scale"
					}
				},
				{
					"sampler":3,
					"target":{
						"node":0,
						"path":"translation"
					}
				},
				{
					"sampler":4,
					"target":{
						"node":0,
						"path":"rotation"
					}
				},
				{
					"sampler":5,
					"target":{
						"node":0,
						"path":"scale"
					}
				},
				{
					"sampler":6,
					"target":{
						"node":1,
						"path":"translation"
					}
				},
				{
					"sampler":7,
					"target":{
						"node":1,
						"path":"rotation"
					}
				},
				{
					"sampler":8,
					"target":{
						"node":1,
						"path":"scale"
					}
				},
				{
					"sampler":9,
					"target":{
						"node":2,
						"path":"translation"
					}
				},
				{
					"sampler":10,
					"target":{
						"node":2,
						"path":"rotation"
					}
				},
				{
					"sampler":11,
					"target":{
						"node":2,
						"path":"scale"
					}
				},
				{
					"sampler":12,
					"target":{
						"node":3,
						"path":"translation"
					}
				},
				{
					"sampler":13,
					"target":{
						"node":3,
						"path":"rotation"
					}
				},
				{
					"sampler":14,
					"target":{
						"node":3,
						"path":"scale"
					}
				}
			],
			"name":"00_Idle",
			"samplers":[
				{
					"input":25,
					"interpolation":"LINEAR",
					"output":26
				},
				{
					"input":27,
					"interpolation":"LINEAR",
					"output":28
				},
				{
					"input":27,
					"interpolation":"LINEAR",
					"output":29
				},
				{
					"input":27,
					"interpolation":"LINEAR",
					"output":30
				},
				{
					"input":25,
					"interpolation":"LINEAR",
					"output":31
				},
				{
					"input":27,
					"interpolation":"LINEAR",
					"output":32
				},
				{
					"input":27,
					"interpolation":"LINEAR",
					"output":33
				},
				{
					"input":25,
					"interpolation":"LINEAR",
					"output":34
				},
				{
					"input":27,
					"interpolation":"LINEAR",
					"output":35
				},
				{
					"input":27,
					"interpolation":"LINEAR",
					"output":36
				},
				{
					"input":25,
					"interpolation":"LINEAR",
					"output":37
				},
				{
					"input":27,
					"interpolation":"LINEAR",
					"output":38
				},
				{
					"input":27,
					"interpolation":"LINEAR",
					"output":39
				},
				{
					"input":25,
					"interpolation":"LINEAR",
					"output":40
				},
				{
					"input":27,
					"interpolation":"LINEAR",
					"output":41
				}
			]
		}
	],
	"materials":[
		{
			"doubleSided":true,
			"name":"Frame",
			"pbrMetallicRoughness":{
				"baseColorTexture":{
					"index":0
				},
				"metallicFactor":0,
				"roughnessFactor":0.5
			}
		},
		{
			"doubleSided":true,
			"name":"Propeller",
			"pbrMetallicRoughness":{
				"baseColorTexture":{
					"index":1
				},
				"metallicFactor":0,
				"roughnessFactor":0.5
			}
		},
		{
			"doubleSided":true,
			"name":"Tank",
			"pbrMetallicRoughness":{
				"baseColorTexture":{
					"index":2
				},
				"metallicFactor":0,
				"roughnessFactor":0.5
			}
		},
		{
			"doubleSided":true,
			"name":"Gage",
			"pbrMetallicRoughness":{
				"baseColorTexture":{
					"index":3
				},
				"metallicFactor":0,
				"roughnessFactor":0.5
			}
		}
	],
	"meshes":[
		{
			"name":"\u5186\u67f1.003",
			"primitives":[
				{
					"attributes":{
						"POSITION":0,
						"TEXCOORD_0":1,
						"NORMAL":2,
						"JOINTS_0":3,
						"WEIGHTS_0":4
					},
					"indices":5,
					"material":0
				}
			]
		},
		{
			"name":"\u5186\u67f1.005",
			"primitives":[
				{
					"attributes":{
						"POSITION":7,
						"TEXCOORD_0":8,
						"NORMAL":9,
						"JOINTS_0":10,
						"WEIGHTS_0":11
					},
					"indices":12,
					"material":1
				}
			]
		},
		{
			"name":"\u5186\u67f1.007",
			"primitives":[
				{
					"attributes":{
						"POSITION":13,
						"TEXCOORD_0":14,
						"NORMAL":15,
						"JOINTS_0":16,
						"WEIGHTS_0":17
					},
					"indices":18,
					"material":2
				}
			]
		},
		{
			"name":"\u5186\u67f1.008",
			"primitives":[
				{
					"attributes":{
						"POSITION":19,
						"TEXCOORD_0":20,
						"NORMAL":21,
						"JOINTS_0":22,
						"WEIGHTS_0":23
					},
					"indices":24,
					"material":3
				}
			]
		}
	],
	"textures":[
		{
			"sampler":0,
			"source":0
		},
		{
			"sampler":0,
			"source":1
		},
		{
			"sampler":0,
			"source":2
		},
		{
			"sampler":0,
			"source":3
		}
	],
	"images":[
		{
			"mimeType":"image/png",
			"name":"FrameTex",
			"uri":"FrameTex.png"
		},
		{
			"mimeType":"image/png",
			"name":"PropellerTex",
			"uri":"PropellerTex.png"
		},
		{
			"mimeType":"image/png",
			"name":"TankTex",
			"uri":"TankTex.png"
		},
		{
			"mimeType":"image/png",
			"name":"TankGageTex",
			"uri":"TankGageTex.png"
		}
	],
	"skins":[
		{
			"inverseBindMatrices":6,
			"joints":[
				4,
				0,
				1,
				2,
				3
			],
			"name":"Dorne"
		}
	],
	"accessors":[
		{
			"bufferView":0,
			"componentType":5126,
			"count":1020,
			"max":[
				0.42211320996284485,
				0.09899996966123581,
				0.42211320996284485
			],
			"min":[
				-0.42211320996284485,
				-0.1332559883594513,
				-0.42211320996284485
			],
			"type":"VEC3"
		},
		{
			"bufferView":1,
			"componentType":5126,
			"count":1020,
			"type":"VEC2"
		},
		{
			"bufferView":2,
			"componentType":5126,
			"count":1020,
			"type":"VEC3"
		},
		{
			"bufferView":3,
			"componentType":5121,
			"count":1020,
			"type":"VEC4"
		},
		{
			"bufferView":4,
			"componentType":5126,
			"count":1020,
			"type":"VEC4"
		},
		{
			"bufferView":5,
			"componentType":5123,
			"count":1836,
			"type":"SCALAR"
		},
		{
			"bufferView":6,
			"componentType":5126,
			"count":5,
			"type":"MAT4"
		},
		{
			"bufferView":7,
			"componentType":5126,
			"count":824,
			"max":[
				0.27186036109924316,
				0.040500011295080185,
				0.3582873046398163
			],
			"min":[
				-0.27186036109924316,
				-0.040500011295080185,
				-0.3582873046398163
			],
			"type":"VEC3"
		},
		{
			"bufferView":8,
			"componentType":5126,
			"count":824,
			"type":"VEC2"
		},
		{
			"bufferView":9,
			"componentType":5126,
			"count":824,
			"type":"VEC3"
		},
		{
			"bufferView":10,
			"componentType":5121,
			"count":824,
			"type":"VEC4"
		},
		{
			"bufferView":11,
			"componentType":5126,
			"count":824,
			"type":"VEC4"
		},
		{
			"bufferView":12,
			"componentType":5123,
			"count":1464,
			"type":"SCALAR"
		},
		{
			"bufferView":13,
			"componentType":5126,
			"count":424,
			"max":[
				0.18597231805324554,
				-0.07650002092123032,
				0.18597231805324554
			],
			"min":[
				-0.18597231805324554,
				-0.4139999747276306,
				-0.18597234785556793
			],
			"type":"VEC3"
		},
		{
			"bufferView":14,
			"componentType":5126,
			"count":424,
			"type":"VEC2"
		},
		{
			"bufferView":15,
			"componentType":5126,
			"count":424,
			"type":"VEC3"
		},
		{
			"bufferView":16,
			"componentType":5121,
			"count":424,
			"type":"VEC4"
		},
		{
			"bufferView":17,
			"componentType":5126,
			"count":424,
			"type":"VEC4"
		},
		{
			"bufferView":18,
			"componentType":5123,
			"count":732,
			"type":"SCALAR"
		},
		{
			"bufferView":19,
			"componentType":5126,
			"count":16,
			"max":[
				0.1539350301027298,
				-0.15974998474121094,
				0.1539350301027298
			],
			"min":[
				-0.1539350301027298,
				-0.3532499670982361,
				-0.15393505990505219
			],
			"type":"VEC3"
		},
		{
			"bufferView":20,
			"componentType":5126,
			"count":16,
			"type":"VEC2"
		},
		{
			"bufferView":21,
			"componentType":5126,
			"count":16,
			"type":"VEC3"
		},
		{
			"bufferView":22,
			"componentType":5121,
			"count":16,
			"type":"VEC4"
		},
		{
			"bufferView":23,
			"componentType":5126,
			"count":16,
			"type":"VEC4"
		},
		{
			"bufferView":24,
			"componentType":5123,
			"count":24,
			"type":"SCALAR"
		},
		{
			"bufferView":25,
			"componentType":5126,
			"count":31,
			"max":[
				0.5
			],
			"min":[
				0
			],
			"type":"SCALAR"
		},
		{
			"bufferView":26,
			"componentType":5126,
			"count":31,
			"type":"VEC3"
		},
		{
			"bufferView":27,
			"componentType":5126,
			"count":2,
			"max":[
				0.5
			],
			"min":[
				0
			],
			"type":"SCALAR"
		},
		{
			"bufferView":28,
			"componentType":5126,
			"count":2,
			"type":"VEC4"
		},
		{
			"bufferView":29,
			"componentType":5126,
			"count":2,
			"type":"VEC3"
		},
		{
			"bufferView":30,
			"componentType":5126,
			"count":2,
			"type":"VEC3"
		},
		{
			"bufferView":31,
			"componentType":5126,
			"count":31,
			"type":"VEC4"
		},
		{
			"bufferView":32,
			"componentType":5126,
			"count":2,
			"type":"VEC3"
		},
		{
			"bufferView":33,
			"componentType":5126,
			"count":2,
			"type":"VEC3"
		},
		{
			"bufferView":34,
			"componentType":5126,
			"count":31,
			"type":"VEC4"
		},
		{
			"bufferView":35,
			"componentType":5126,
			"count":2,
			"type":"VEC3"
		},
		{
			"bufferView":36,
			"componentType":5126,
			"count":2,
			"type":"VEC3"
		},
		{
			"bufferView":37,
			"componentType":5126,
			"count":31,
			"type":"VEC4"
		},
		{
			"bufferView":38,
			"componentType":5126,
			"count":2,
			"type":"VEC3"
		},
		{
			"bufferView":39,
			"componentType":5126,
			"count":2,
			"type":"VEC3"
		},
		{
			"bufferView":40,
			"componentType":5126,
			"count":31,
			"type":"VEC4"
		},
		{
			"bufferView":41,
			"componentType":5126,
			"count":2,
			"type":"VEC3"
		}
	],
	"bufferViews":[
		{
			"buffer":0,
			"byteLength":12240,
			"byteOffset":0,
			"target":34962
		},
		{
			"buffer":0,
			"byteLength":8160,
			"byteOffset":12240,
			"target":34962
		},
		{
			"buffer":0,
			"byteLength":12240,
			"byteOffset":20400,
			"target":34962
		},
		{
			"buffer":0,
			"byteLength":4080,
			"byteOffset":32640,
			"target":34962
		},
		{
			"buffer":0,
			"byteLength":16320,
			"byteOffset":36720,
			"target":34962
		},
		{
			"buffer":0,
			"byteLength":3672,
			"byteOffset":53040,
			"target":34963
		},
		{
			"buffer":0,
			"byteLength":320,
			"byteOffset":56712
		},
		{
			"buffer":0,
			"byteLength":9888,
			"byteOffset":57032,
			"target":34962
		},
		{
			"buffer":0,
			"byteLength":6592,
			"byteOffset":66920,
			"target":34962
		},
		{
			"buffer":0,
			"byteLength":9888,
			"byteOffset":73512,
			"target":34962
		},
		{
			"buffer":0,
			"byteLength":3296,
			"byteOffset":83400,
			"target":34962
		},
		{
			"buffer":0,
			"byteLength":13184,
			"byteOffset":86696,
			"target":34962
		},
		{
			"buffer":0,
			"byteLength":2928,
			"byteOffset":99880,
			"target":34963
		},
		{
			"buffer":0,
			"byteLength":5088,
			"byteOffset":102808,
			"target":34962
		},
		{
			"buffer":0,
			"byteLength":3392,
			"byteOffset":107896,
			"target":34962
		},
		{
			"buffer":0,
			"byteLength":5088,
			"byteOffset":111288,
			"target":34962
		},
		{
			"buffer":0,
			"byteLength":1696,
			"byteOffset":116376,
			"target":34962
		},
		{
			"buffer":0,
			"byteLength":6784,
			"byteOffset":118072,
			"target":34962
		},
		{
			"buffer":0,
			"byteLength":1464,
			"byteOffset":124856,
			"target":34963
		},
		{
			"buffer":0,
			"byteLength":192,
			"byteOffset":126320,
			"target":34962
		},
		{
			"buffer":0,
			"byteLength":128,
			"byteOffset":126512,
			"target":34962
		},
		{
			"buffer":0,
			"byteLength":192,
			"byteOffset":126640,
			"target":34962
		},
		{
			"buffer":0,
			"byteLength":64,
			"byteOffset":126832,
			"target":34962
		},
		{
			"buffer":0,
			"byteLength":256,
			"byteOffset":126896,
			"target":34962
		},
		{
			"buffer":0,
			"byteLength":48,
			"byteOffset":127152,
			"target":34963
		},
		{
			"buffer":0,
			"byteLength":124,
			"byteOffset":127200
		},
		{
			"buffer":0,
			"byteLength":372,
			"byteOffset":127324
		},
		{
			"buffer":0,
			"byteLength":8,
			"byteOffset":127696
		},
		{
			"buffer":0,
			"byteLength":32,
			"byteOffset":127704
		},
		{
			"buffer":0,
			"byteLength":24,
			"byteOffset":127736
		},
		{
			"buffer":0,
			"byteLength":24,
			"byteOffset":127760
		},
		{
			"buffer":0,
			"byteLength":496,
			"byteOffset":127784
		},
		{
			"buffer":0,
			"byteLength":24,
			"byteOffset":128280
		},
		{
			"buffer":0,
			"byteLength":24,
			"byteOffset":128304
		},
		{
			"buffer":0,
			"byteLength":496,
			"byteOffset":128328
		},
		{
			"buffer":0,
			"byteLength":24,
			"byteOffset":128824
		},
		{
			"buffer":0,
			"byteLength":24,
			"byteOffset":128848
		},
		{
			"buffer":0,
			"byteLength":496,
			"byteOffset":128872
		},
		{
			"buffer":0,
			"byteLength":24,
			"byteOffset":129368
		},
		{
			"buffer":0,
			"byteLength":24,
			"byteOffset":129392
		},
		{
			"buffer":0,
			"byteLength":496,
			"byteOffset":129416
		},
		{
			"buffer":0,
			"byteLength":24,
			"byteOffset":129912
		}
	],
	"samplers":[
		{
			"magFilter":9729,
			"minFilter":9987
		}
	],
	"buffers":[
		{
			"byteLength":129936,
			"uri":"Drone.bin"
		}
	]
}
