{
	"asset":{
		"generator":"Khronos glTF Blender I/O v3.5.30",
		"version":"2.0"
	},
	"scene":0,
	"scenes":[
		{
			"name":"Scene",
			"nodes":[
				0
			]
		}
	],
	"nodes":[
		{
			"mesh":0,
			"name":"Column_Square"
		}
	],
	"materials":[
		{
			"doubleSided":true,
			"name":"Main",
			"pbrMetallicRoughness":{
				"baseColorFactor":[
					0.15896087884902954,
					0.16202940046787262,
					0.1247718334197998,
					1
				],
				"metallicFactor":0,
				"roughnessFactor":0.5
			}
		},
		{
			"doubleSided":true,
			"name":"Highlights",
			"pbrMetallicRoughness":{
				"baseColorFactor":[
					0.289932519197464,
					0.29568690061569214,
					0.22595453262329102,
					1
				],
				"metallicFactor":0,
				"roughnessFactor":0.5
			}
		}
	],
	"meshes":[
		{
			"name":"Cylinder.026",
			"primitives":[
				{
					"attributes":{
						"POSITION":0,
						"NORMAL":1
					},
					"indices":2,
					"material":0
				},
				{
					"attributes":{
						"POSITION":3,
						"NORMAL":4
					},
					"indices":5,
					"material":1
				}
			]
		}
	],
	"accessors":[
		{
			"bufferView":0,
			"componentType":5126,
			"count":1009,
			"max":[
				0.32829469442367554,
				3.989891290664673,
				0.32829493284225464
			],
			"min":[
				-0.32829469442367554,
				0,
				-0.32829493284225464
			],
			"type":"VEC3"
		},
		{
			"bufferView":1,
			"componentType":5126,
			"count":1009,
			"type":"VEC3"
		},
		{
			"bufferView":2,
			"componentType":5123,
			"count":2034,
			"type":"SCALAR"
		},
		{
			"bufferView":3,
			"componentType":5126,
			"count":24,
			"max":[
				0.19888274371623993,
				3.288228750228882,
				0.20620030164718628
			],
			"min":[
				-0.20851220190525055,
				1.4513577222824097,
				-0.1919132024049759
			],
			"type":"VEC3"
		},
		{
			"bufferView":4,
			"componentType":5126,
			"count":24,
			"type":"VEC3"
		},
		{
			"bufferView":5,
			"componentType":5123,
			"count":36,
			"type":"SCALAR"
		}
	],
	"bufferViews":[
		{
			"buffer":0,
			"byteLength":12108,
			"byteOffset":0,
			"target":34962
		},
		{
			"buffer":0,
			"byteLength":12108,
			"byteOffset":12108,
			"target":34962
		},
		{
			"buffer":0,
			"byteLength":4068,
			"byteOffset":24216,
			"target":34963
		},
		{
			"buffer":0,
			"byteLength":288,
			"byteOffset":28284,
			"target":34962
		},
		{
			"buffer":0,
			"byteLength":288,
			"byteOffset":28572,
			"target":34962
		},
		{
			"buffer":0,
			"byteLength":72,
			"byteOffset":28860,
			"target":34963
		}
	],
	"buffers":[
		{
			"byteLength":28932,
			"uri":"Column_Square.bin"
		}
	]
}
