{
	"asset":{
		"generator":"Khronos glTF Blender I/O v3.5.30",
		"version":"2.0"
	},
	"scene":0,
	"scenes":[
		{
			"name":"Scene",
			"nodes":[
				0
			]
		}
	],
	"nodes":[
		{
			"mesh":0,
			"name":"Wall_Broken",
			"rotation":[
				-0.7071068286895752,
				0,
				0,
				0.7071068286895752
			],
			"scale":[
				1,
				0.05973000079393387,
				1
			]
		}
	],
	"materials":[
		{
			"doubleSided":true,
			"name":"Main",
			"pbrMetallicRoughness":{
				"baseColorFactor":[
					0.15896087884902954,
					0.16202940046787262,
					0.1247718334197998,
					1
				],
				"metallicFactor":0,
				"roughnessFactor":0.5
			}
		},
		{
			"doubleSided":true,
			"name":"Highlights",
			"pbrMetallicRoughness":{
				"baseColorFactor":[
					0.289932519197464,
					0.29568690061569214,
					0.22595453262329102,
					1
				],
				"metallicFactor":0,
				"roughnessFactor":0.5
			}
		}
	],
	"meshes":[
		{
			"name":"Cube.014",
			"primitives":[
				{
					"attributes":{
						"POSITION":0,
						"NORMAL":1
					},
					"indices":2,
					"material":0
				},
				{
					"attributes":{
						"POSITION":3,
						"NORMAL":4
					},
					"indices":5,
					"material":1
				}
			]
		}
	],
	"accessors":[
		{
			"bufferView":0,
			"componentType":5126,
			"count":1718,
			"max":[
				0.9970556497573853,
				4.382712364196777,
				1.9598863124847412
			],
			"min":[
				-0.993330180644989,
				-0.4045504331588745,
				0.012562750838696957
			],
			"type":"VEC3"
		},
		{
			"bufferView":1,
			"componentType":5126,
			"count":1718,
			"type":"VEC3"
		},
		{
			"bufferView":2,
			"componentType":5123,
			"count":2748,
			"type":"SCALAR"
		},
		{
			"bufferView":3,
			"componentType":5126,
			"count":124,
			"max":[
				0.8424635529518127,
				4.245983600616455,
				1.6821707487106323
			],
			"min":[
				-0.9160181879997253,
				-0.2678212523460388,
				0.295421838760376
			],
			"type":"VEC3"
		},
		{
			"bufferView":4,
			"componentType":5126,
			"count":124,
			"type":"VEC3"
		},
		{
			"bufferView":5,
			"componentType":5123,
			"count":180,
			"type":"SCALAR"
		}
	],
	"bufferViews":[
		{
			"buffer":0,
			"byteLength":20616,
			"byteOffset":0,
			"target":34962
		},
		{
			"buffer":0,
			"byteLength":20616,
			"byteOffset":20616,
			"target":34962
		},
		{
			"buffer":0,
			"byteLength":5496,
			"byteOffset":41232,
			"target":34963
		},
		{
			"buffer":0,
			"byteLength":1488,
			"byteOffset":46728,
			"target":34962
		},
		{
			"buffer":0,
			"byteLength":1488,
			"byteOffset":48216,
			"target":34962
		},
		{
			"buffer":0,
			"byteLength":360,
			"byteOffset":49704,
			"target":34963
		}
	],
	"buffers":[
		{
			"byteLength":50064,
			"uri":"Wall_Broken.bin"
		}
	]
}
