{
	"asset":{
		"generator":"Khronos glTF Blender I/O v3.5.30",
		"version":"2.0"
	},
	"extensionsUsed":[
		"KHR_materials_specular",
		"KHR_materials_ior"
	],
	"scene":0,
	"scenes":[
		{
			"name":"Scene",
			"nodes":[
				0
			]
		}
	],
	"nodes":[
		{
			"mesh":0,
			"name":"Truck"
		}
	],
	"materials":[
		{
			"doubleSided":true,
			"extensions":{
				"KHR_materials_specular":{
					"specularColorFactor":[
						0,
						0,
						0
					]
				},
				"KHR_materials_ior":{
					"ior":1.4500000476837158
				}
			},
			"name":"Atlas",
			"pbrMetallicRoughness":{
				"baseColorTexture":{
					"index":0
				},
				"metallicFactor":0
			}
		},
		{
			"doubleSided":true,
			"name":"BrakeLight",
			"pbrMetallicRoughness":{}
		},
		{
			"doubleSided":true,
			"name":"Headlights",
			"pbrMetallicRoughness":{}
		}
	],
	"meshes":[
		{
			"name":"Cylinder.030",
			"primitives":[
				{
					"attributes":{
						"POSITION":0,
						"TEXCOORD_0":1,
						"NORMAL":2
					},
					"indices":3,
					"material":0
				},
				{
					"attributes":{
						"POSITION":4,
						"TEXCOORD_0":5,
						"NORMAL":6
					},
					"indices":7,
					"material":1
				},
				{
					"attributes":{
						"POSITION":8,
						"TEXCOORD_0":9,
						"NORMAL":10
					},
					"indices":11,
					"material":2
				}
			]
		}
	],
	"textures":[
		{
			"sampler":0,
			"source":0
		}
	],
	"images":[
		{
			"mimeType":"image/png",
			"name":"Zombie_Atlas",
			"uri":"Zombie_Atlas.png"
		}
	],
	"accessors":[
		{
			"bufferView":0,
			"componentType":5126,
			"count":6279,
			"max":[
				1.3546411991119385,
				2.884641647338867,
				2.1925766468048096
			],
			"min":[
				-1.3546411991119385,
				0.0006736948271282017,
				-3.0528857707977295
			],
			"type":"VEC3"
		},
		{
			"bufferView":1,
			"componentType":5126,
			"count":6279,
			"type":"VEC2"
		},
		{
			"bufferView":2,
			"componentType":5126,
			"count":6279,
			"type":"VEC3"
		},
		{
			"bufferView":3,
			"componentType":5123,
			"count":21780,
			"type":"SCALAR"
		},
		{
			"bufferView":4,
			"componentType":5126,
			"count":122,
			"max":[
				1.1505595445632935,
				0.9570065140724182,
				-3.0386176109313965
			],
			"min":[
				-1.1505595445632935,
				0.8131115436553955,
				-3.0629913806915283
			],
			"type":"VEC3"
		},
		{
			"bufferView":5,
			"componentType":5126,
			"count":122,
			"type":"VEC2"
		},
		{
			"bufferView":6,
			"componentType":5126,
			"count":122,
			"type":"VEC3"
		},
		{
			"bufferView":7,
			"componentType":5123,
			"count":600,
			"type":"SCALAR"
		},
		{
			"bufferView":8,
			"componentType":5126,
			"count":32,
			"max":[
				1.1350438594818115,
				1.0745176076889038,
				2.0902702808380127
			],
			"min":[
				-1.1350438594818115,
				0.77531498670578,
				1.9068092107772827
			],
			"type":"VEC3"
		},
		{
			"bufferView":9,
			"componentType":5126,
			"count":32,
			"type":"VEC2"
		},
		{
			"bufferView":10,
			"componentType":5126,
			"count":32,
			"type":"VEC3"
		},
		{
			"bufferView":11,
			"componentType":5123,
			"count":48,
			"type":"SCALAR"
		}
	],
	"bufferViews":[
		{
			"buffer":0,
			"byteLength":75348,
			"byteOffset":0,
			"target":34962
		},
		{
			"buffer":0,
			"byteLength":50232,
			"byteOffset":75348,
			"target":34962
		},
		{
			"buffer":0,
			"byteLength":75348,
			"byteOffset":125580,
			"target":34962
		},
		{
			"buffer":0,
			"byteLength":43560,
			"byteOffset":200928,
			"target":34963
		},
		{
			"buffer":0,
			"byteLength":1464,
			"byteOffset":244488,
			"target":34962
		},
		{
			"buffer":0,
			"byteLength":976,
			"byteOffset":245952,
			"target":34962
		},
		{
			"buffer":0,
			"byteLength":1464,
			"byteOffset":246928,
			"target":34962
		},
		{
			"buffer":0,
			"byteLength":1200,
			"byteOffset":248392,
			"target":34963
		},
		{
			"buffer":0,
			"byteLength":384,
			"byteOffset":249592,
			"target":34962
		},
		{
			"buffer":0,
			"byteLength":256,
			"byteOffset":249976,
			"target":34962
		},
		{
			"buffer":0,
			"byteLength":384,
			"byteOffset":250232,
			"target":34962
		},
		{
			"buffer":0,
			"byteLength":96,
			"byteOffset":250616,
			"target":34963
		}
	],
	"samplers":[
		{
			"magFilter":9729,
			"minFilter":9987
		}
	],
	"buffers":[
		{
			"byteLength":250712,
			"uri":"Vehicle_Truck.bin"
		}
	]
}
