{
	"asset":{
		"generator":"Khronos glTF Blender I/O v3.5.30",
		"version":"2.0"
	},
	"extensionsUsed":[
		"KHR_materials_specular",
		"KHR_materials_ior"
	],
	"scene":0,
	"scenes":[
		{
			"name":"Scene",
			"nodes":[
				0
			]
		}
	],
	"nodes":[
		{
			"mesh":0,
			"name":"Sports"
		}
	],
	"materials":[
		{
			"doubleSided":true,
			"extensions":{
				"KHR_materials_specular":{
					"specularColorFactor":[
						0,
						0,
						0
					]
				},
				"KHR_materials_ior":{
					"ior":1.4500000476837158
				}
			},
			"name":"Atlas",
			"pbrMetallicRoughness":{
				"baseColorTexture":{
					"index":0
				},
				"metallicFactor":0
			}
		},
		{
			"doubleSided":true,
			"name":"Headlights",
			"pbrMetallicRoughness":{}
		},
		{
			"doubleSided":true,
			"name":"BrakeLight",
			"pbrMetallicRoughness":{}
		}
	],
	"meshes":[
		{
			"name":"Cube.009",
			"primitives":[
				{
					"attributes":{
						"POSITION":0,
						"TEXCOORD_0":1,
						"NORMAL":2
					},
					"indices":3,
					"material":0
				},
				{
					"attributes":{
						"POSITION":4,
						"TEXCOORD_0":5,
						"NORMAL":6
					},
					"indices":7,
					"material":1
				},
				{
					"attributes":{
						"POSITION":8,
						"TEXCOORD_0":9,
						"NORMAL":10
					},
					"indices":11,
					"material":2
				}
			]
		}
	],
	"textures":[
		{
			"sampler":0,
			"source":0
		}
	],
	"images":[
		{
			"mimeType":"image/png",
			"name":"Zombie_Atlas",
			"uri":"Zombie_Atlas.png"
		}
	],
	"accessors":[
		{
			"bufferView":0,
			"componentType":5126,
			"count":6379,
			"max":[
				1.3353089094161987,
				1.8529654741287231,
				2.9393157958984375
			],
			"min":[
				-1.3353098630905151,
				-0.011760711669921875,
				-2.715784788131714
			],
			"type":"VEC3"
		},
		{
			"bufferView":1,
			"componentType":5126,
			"count":6379,
			"type":"VEC2"
		},
		{
			"bufferView":2,
			"componentType":5126,
			"count":6379,
			"type":"VEC3"
		},
		{
			"bufferView":3,
			"componentType":5123,
			"count":17286,
			"type":"SCALAR"
		},
		{
			"bufferView":4,
			"componentType":5126,
			"count":42,
			"max":[
				0.9744892120361328,
				1.02634596824646,
				2.7878119945526123
			],
			"min":[
				-0.9744921922683716,
				0.7720491886138916,
				-2.427476167678833
			],
			"type":"VEC3"
		},
		{
			"bufferView":5,
			"componentType":5126,
			"count":42,
			"type":"VEC2"
		},
		{
			"bufferView":6,
			"componentType":5126,
			"count":42,
			"type":"VEC3"
		},
		{
			"bufferView":7,
			"componentType":5123,
			"count":78,
			"type":"SCALAR"
		},
		{
			"bufferView":8,
			"componentType":5126,
			"count":20,
			"max":[
				0.9376619458198547,
				1.1855183839797974,
				-2.1648738384246826
			],
			"min":[
				-0.9376596808433533,
				1.036515235900879,
				-2.4063706398010254
			],
			"type":"VEC3"
		},
		{
			"bufferView":9,
			"componentType":5126,
			"count":20,
			"type":"VEC2"
		},
		{
			"bufferView":10,
			"componentType":5126,
			"count":20,
			"type":"VEC3"
		},
		{
			"bufferView":11,
			"componentType":5123,
			"count":48,
			"type":"SCALAR"
		}
	],
	"bufferViews":[
		{
			"buffer":0,
			"byteLength":76548,
			"byteOffset":0,
			"target":34962
		},
		{
			"buffer":0,
			"byteLength":51032,
			"byteOffset":76548,
			"target":34962
		},
		{
			"buffer":0,
			"byteLength":76548,
			"byteOffset":127580,
			"target":34962
		},
		{
			"buffer":0,
			"byteLength":34572,
			"byteOffset":204128,
			"target":34963
		},
		{
			"buffer":0,
			"byteLength":504,
			"byteOffset":238700,
			"target":34962
		},
		{
			"buffer":0,
			"byteLength":336,
			"byteOffset":239204,
			"target":34962
		},
		{
			"buffer":0,
			"byteLength":504,
			"byteOffset":239540,
			"target":34962
		},
		{
			"buffer":0,
			"byteLength":156,
			"byteOffset":240044,
			"target":34963
		},
		{
			"buffer":0,
			"byteLength":240,
			"byteOffset":240200,
			"target":34962
		},
		{
			"buffer":0,
			"byteLength":160,
			"byteOffset":240440,
			"target":34962
		},
		{
			"buffer":0,
			"byteLength":240,
			"byteOffset":240600,
			"target":34962
		},
		{
			"buffer":0,
			"byteLength":96,
			"byteOffset":240840,
			"target":34963
		}
	],
	"samplers":[
		{
			"magFilter":9729,
			"minFilter":9987
		}
	],
	"buffers":[
		{
			"byteLength":240936,
			"uri":"Vehicle_Sports.bin"
		}
	]
}
