{
	"asset":{
		"generator":"Khronos glTF Blender I/O v4.3.47",
		"version":"2.0"
	},
	"scene":0,
	"scenes":[
		{
			"name":"Scene",
			"nodes":[
				0
			]
		}
	],
	"nodes":[
		{
			"mesh":0,
			"name":"Building"
		}
	],
	"meshes":[
		{
			"name":"\u7acb\u65b9\u4f53.006",
			"primitives":[
				{
					"attributes":{
						"POSITION":0,
						"NORMAL":1,
						"TEXCOORD_0":2
					},
					"indices":3
				}
			]
		}
	],
	"accessors":[
		{
			"bufferView":0,
			"componentType":5126,
			"count":7299,
			"max":[
				1.8788964748382568,
				10.699999809265137,
				2.088388442993164
			],
			"min":[
				-1.1319072246551514,
				0,
				-2.088388442993164
			],
			"type":"VEC3"
		},
		{
			"bufferView":1,
			"componentType":5126,
			"count":7299,
			"type":"VEC3"
		},
		{
			"bufferView":2,
			"componentType":5126,
			"count":7299,
			"type":"VEC2"
		},
		{
			"bufferView":3,
			"componentType":5123,
			"count":13296,
			"type":"SCALAR"
		}
	],
	"bufferViews":[
		{
			"buffer":0,
			"byteLength":87588,
			"byteOffset":0,
			"target":34962
		},
		{
			"buffer":0,
			"byteLength":87588,
			"byteOffset":87588,
			"target":34962
		},
		{
			"buffer":0,
			"byteLength":58392,
			"byteOffset":175176,
			"target":34962
		},
		{
			"buffer":0,
			"byteLength":26592,
			"byteOffset":233568,
			"target":34963
		}
	],
	"buffers":[
		{
			"byteLength":260160,
			"uri":"Building1.bin"
		}
	]
}
