# Blender 3.6.2
# www.blender.org
mtllib enemy.mtl
o 立方体
v 0.020450 0.011396 -0.078907
v -0.027312 0.563343 -0.068253
v -0.067581 0.056981 -0.416246
v -0.035948 -0.126606 -0.420340
v 0.020450 0.011396 0.067926
v -0.035948 -0.055337 -0.420340
v -0.039965 0.554556 0.077769
v -0.120817 0.051436 -0.078907
v -0.160813 0.504112 -0.083385
v -0.101960 -0.196869 -0.420340
v -0.120817 0.051436 0.067926
v -0.101960 -0.125600 -0.420340
v -0.192384 0.071153 -0.416246
v -0.160518 -0.042757 -0.420340
v -0.173465 0.495326 0.062637
v -0.160518 -0.114025 -0.420340
v -0.167492 0.142207 -0.416246
v 0.078811 0.294368 -0.073061
v 0.064251 0.289340 0.072961
v 0.012530 -0.222635 -0.420340
v -0.080307 0.268515 0.057829
v 0.177224 0.210352 -0.396920
v -0.065747 0.273543 -0.088193
v 0.012530 -0.151366 -0.420340
v 0.153352 0.150670 -0.396920
v 0.117271 -0.120876 -0.368022
v 0.081065 0.183737 0.067926
v -0.063154 0.211312 0.067926
v 0.117271 -0.049607 -0.368022
v -0.063154 0.211312 -0.078907
v 0.186793 0.080769 -0.395108
v 0.161447 -0.232914 -0.368022
v 0.081065 0.183737 -0.078907
v 0.064005 0.061730 -0.394694
v 0.161447 -0.161646 -0.368022
v 0.039840 0.412816 -0.071492
v 0.027187 0.404030 0.074530
v 0.236173 -0.075069 -0.368022
v -0.106314 0.344799 0.059398
v -0.093661 0.353586 -0.086624
v 0.000000 -0.244720 0.489440
v 0.236173 -0.003800 -0.368022
v 0.000000 0.244720 -0.489440
v -0.197820 -0.142221 -0.420340
v -0.197820 -0.213489 -0.420340
v 0.000000 -0.244720 -0.489440
v 0.000000 0.244720 0.489440
v 0.489440 -0.244720 0.000000
v -0.489440 0.244720 0.000000
v -0.241923 0.067511 -0.420340
v 0.489440 0.244720 0.000000
v -0.241923 -0.003757 -0.420340
v -0.489440 -0.244720 0.000000
v 0.000000 -0.293420 0.000000
v 0.000000 0.293420 0.000000
v 0.489440 0.244720 0.244720
v -0.489440 -0.244720 0.244720
v 0.489440 -0.244720 0.244720
v -0.489440 0.244720 0.244720
v 0.000000 -0.360747 0.244720
v 0.000000 0.360747 0.244720
v 0.489440 -0.244720 -0.244720
v -0.489440 0.244720 -0.244720
v 0.000000 -0.360747 -0.244720
v 0.000000 0.360747 -0.244720
v 0.489440 0.244720 -0.244720
v -0.489440 -0.244720 -0.244720
v 0.244720 -0.244720 0.489440
v 0.244720 0.244720 -0.489440
v 0.244720 -0.244720 -0.489440
v 0.244720 0.244720 0.489440
v 0.244720 -0.360747 0.000000
v 0.244720 0.360747 0.000000
v 0.244720 0.360747 0.244720
v 0.244720 -0.360747 0.244720
v 0.244720 -0.360747 -0.244720
v 0.244720 0.360747 -0.244720
v -0.244720 -0.244720 -0.489440
v -0.244720 0.244720 0.489440
v -0.244720 -0.244720 0.489440
v -0.244720 0.244720 -0.489440
v -0.244720 0.360747 0.000000
v -0.244720 -0.360747 0.000000
v -0.244720 -0.360747 0.244720
v -0.244720 0.360747 0.244720
v -0.244720 0.360747 -0.244720
v -0.244720 -0.360747 -0.244720
v -0.086010 0.072701 -0.489440
v -0.192384 0.071153 -0.489440
v -0.167492 0.142207 -0.489440
v -0.001898 0.046142 -0.489440
v 0.000000 0.049721 -0.489440
v 0.000000 -0.006071 -0.489440
v -0.027838 -0.002758 -0.489440
v -0.067581 0.056981 -0.489440
v 0.183372 0.127089 -0.489440
v 0.162222 0.172166 -0.489440
v 0.153393 0.150093 -0.489440
v 0.064048 0.061139 -0.489440
v 0.013474 -0.007674 -0.489440
v 0.006168 0.061349 -0.489440
v 0.186836 0.080180 -0.489440
v 0.000000 -0.197814 -0.489440
v 0.000000 -0.126546 -0.489440
v -0.035948 -0.055337 -0.489440
v -0.035948 -0.126606 -0.489440
v -0.197820 -0.213489 -0.489440
v -0.101960 -0.196869 -0.489440
v -0.101960 -0.125600 -0.489440
v -0.241923 -0.003757 -0.489440
v -0.241923 0.067511 -0.489440
v -0.160518 -0.114025 -0.489440
v -0.160518 -0.042757 -0.489440
v -0.197820 -0.142221 -0.489440
v 0.161447 -0.232914 -0.489440
v 0.117271 -0.120876 -0.489440
v 0.012530 -0.222635 -0.489440
v 0.012530 -0.151366 -0.489440
v 0.161447 -0.161646 -0.489440
v 0.236173 -0.075069 -0.489440
v 0.236173 -0.003800 -0.489440
v 0.117271 -0.049607 -0.489440
vn 0.9092 0.4034 0.1031
vn -0.0862 -0.0598 0.9945
vn -0.9092 -0.4034 -0.1031
vn 0.0862 0.0598 -0.9945
vn -0.2727 -0.9621 -0.0000
vn -0.4073 0.9131 0.0196
vn 0.0101 0.0530 -0.9985
vn -0.9579 -0.2872 -0.0000
vn -0.0094 -0.0491 0.9987
vn 0.9998 0.0204 -0.0000
vn 0.9434 -0.3318 -0.0000
vn -0.0000 -0.0000 1.0000
vn -0.9407 0.3393 -0.0000
vn -0.0000 -0.0000 -1.0000
vn 0.0975 0.0453 -0.9942
vn -0.9397 -0.3256 -0.1049
vn -0.0976 -0.0451 0.9942
vn 0.9467 0.3045 0.1049
vn 0.3938 -0.8306 -0.3938
vn 0.3938 0.8306 -0.3938
vn 0.3938 0.8306 0.3938
vn -0.3938 0.8306 -0.3938
vn -0.3938 0.8306 0.3938
vn -0.0000 -0.9036 -0.4284
vn -0.0000 0.9036 -0.4284
vn -0.0000 1.0000 -0.0000
vn -0.0000 -1.0000 -0.0000
vn -1.0000 -0.0000 -0.0000
vn -0.4284 -0.9036 -0.0000
vn 1.0000 -0.0000 -0.0000
vn 0.4284 0.9036 -0.0000
vn 0.3938 -0.8306 0.3938
vn -0.0000 -0.9036 0.4284
vn -0.0000 0.9036 0.4284
vn -0.2564 0.9319 0.2564
vn 0.4284 -0.9036 -0.0000
vn -0.2564 0.9319 -0.2564
vn 0.2564 -0.9319 0.2564
vn -0.4284 0.9036 -0.0000
vn -0.3938 -0.8306 0.3938
vn 0.2564 -0.9319 -0.2564
vn -0.3938 -0.8306 -0.3938
vn 0.7071 -0.0000 0.7071
vn 0.7071 -0.0000 -0.7071
vn -0.7071 -0.0000 -0.7071
vn -0.7071 -0.0000 0.7071
vn 0.9438 -0.3306 -0.0000
vn 0.1128 0.9936 -0.0000
vn -0.6490 -0.7608 -0.0000
vn 0.9285 -0.3714 0.0027
vn 0.0006 -0.0256 -0.9997
vn -0.1532 0.9882 -0.0062
vn -0.8617 -0.4043 0.3066
vn 0.7055 -0.7087 0.0047
vn 0.8927 0.4507 -0.0000
vn -0.7288 0.6847 -0.0000
vn 0.7288 -0.6847 -0.0000
vn 0.9363 -0.3512 -0.0000
vn 0.8166 0.5772 -0.0000
vn -0.8166 -0.5772 -0.0000
vn 0.6968 -0.7172 -0.0000
vn -0.8927 -0.4507 -0.0000
vn -0.6968 0.7172 -0.0000
vn 0.4469 -0.0000 -0.8946
vn 0.9038 -0.4279 -0.0000
vn -0.9303 -0.3668 -0.0000
vn 0.9303 0.3668 -0.0000
vn -0.9038 0.4279 -0.0000
vn -0.9363 0.3512 -0.0000
vn 0.9786 0.2058 -0.0000
vn -0.9786 -0.2058 -0.0000
vn 0.1232 -0.1414 -0.9823
vn -0.9933 -0.0564 -0.1010
vn -0.1226 0.1367 0.9830
vn 0.9830 0.1516 0.1032
vn 0.0901 0.0509 -0.9946
vn -0.9423 -0.3192 -0.1009
vn -0.0900 -0.0512 0.9946
vn 0.9455 0.3098 0.1006
vn 0.2564 0.9319 -0.2564
vn -0.2564 -0.9319 -0.2564
vn 0.2564 0.9319 0.2564
vn -0.2564 -0.9319 0.2564
vn 0.0295 -0.0118 -0.9995
vn -0.9973 -0.0736 -0.0000
vt 0.625000 0.000000
vt 0.540793 0.250000
vt 0.540793 0.000000
vt 0.625000 0.250000
vt 0.540793 0.500000
vt 0.625000 0.500000
vt 0.540793 0.750000
vt 0.625000 1.000000
vt 0.540793 1.000000
vt 0.375000 0.500000
vt 0.125000 0.750000
vt 0.125000 0.500000
vt 0.875000 0.750000
vt 0.625000 0.750000
vt 0.464609 0.750000
vt 0.500000 1.000000
vt 0.464609 1.000000
vt 0.500000 0.500000
vt 0.464609 0.500000
vt 0.500000 0.250000
vt 0.464609 0.250000
vt 0.500000 0.000000
vt 0.464609 0.000000
vt 0.375000 0.250000
vt 0.375000 0.000000
vt 0.375000 0.750000
vt 0.375000 1.000000
vt 0.500000 0.750000
vt 0.000000 0.000000
vt 0.625000 0.624622
vt 0.125000 0.624622
vt 0.375000 0.624622
vt 0.828887 0.624622
vt 0.375000 0.092460
vt 0.625000 0.092460
vt 0.625000 0.661331
vt 0.375000 0.660625
vt 0.125000 0.657540
vt 0.250257 0.657119
vt 0.875000 0.500000
vt 0.875000 0.657540
vt 0.125000 0.659855
vt 0.125000 0.659855
vt 0.375000 0.659855
vt 0.875000 0.659855
vt 0.625000 0.659855
vt 0.625000 0.659855
vt 0.875000 0.689261
vt 0.875000 0.659855
vt 0.125000 0.689261
vt 0.875000 0.689261
vt 0.375000 0.060739
vt 0.375000 0.659855
vt 0.875000 0.624622
vt 0.125000 0.659855
vt 0.625000 0.060739
vt 0.125000 0.689261
s 0
usemtl Material
f 2/1/1 37/2/1 36/3/1
f 7/4/2 39/5/2 37/2/2
f 15/6/3 40/7/3 39/5/3
f 40/7/4 2/8/4 36/9/4
f 11/10/5 1/11/5 5/12/5
f 15/6/6 2/13/6 9/14/6
f 30/15/7 18/16/7 33/17/7
f 21/18/8 30/15/8 28/19/8
f 19/20/9 28/19/9 27/21/9
f 18/22/10 27/21/10 33/23/10
f 33/23/11 5/24/11 1/25/11
f 5/24/12 28/19/12 11/10/12
f 28/19/13 8/26/13 11/10/13
f 30/15/14 1/27/14 8/26/14
f 23/28/15 36/9/15 18/16/15
f 21/18/16 40/7/16 23/28/16
f 37/2/17 21/18/17 19/20/17
f 18/22/18 37/2/18 19/20/18
f 62/29/19 76/29/19 70/29/19
f 66/29/20 69/29/20 77/29/20
f 56/29/21 74/29/21 71/29/21
f 86/29/22 81/29/22 63/29/22
f 79/29/23 85/29/23 59/29/23
f 71/29/12 41/29/12 68/29/12
f 64/29/24 70/29/24 76/29/24
f 91/29/14 93/29/14 94/29/14
f 110/29/14 78/29/14 81/29/14
f 95/29/14 92/29/14 91/29/14
f 65/29/25 81/29/25 86/29/25
f 61/29/26 82/29/26 85/29/26
f 60/29/27 72/29/27 75/29/27
f 59/29/28 53/29/28 57/29/28
f 57/29/29 83/29/29 84/29/29
f 66/29/30 48/29/30 62/29/30
f 56/29/31 73/29/31 74/29/31
f 58/29/32 68/29/32 75/29/32
f 41/29/33 75/29/33 68/29/33
f 47/29/34 85/29/34 79/29/34
f 51/29/30 58/29/30 48/29/30
f 82/29/26 65/29/26 86/29/26
f 72/29/27 64/29/27 76/29/27
f 49/29/28 67/29/28 53/29/28
f 53/29/29 87/29/29 83/29/29
f 51/29/31 77/29/31 73/29/31
f 73/29/35 65/29/35 55/29/35
f 72/29/36 62/29/36 48/29/36
f 71/29/34 61/29/34 47/29/34
f 61/29/37 73/29/37 55/29/37
f 75/29/36 48/29/36 58/29/36
f 100/29/14 92/29/14 101/29/14
f 70/29/14 115/29/14 120/29/14
f 99/29/14 101/29/14 43/29/14
f 77/29/25 43/29/25 65/29/25
f 83/29/38 64/29/38 54/29/38
f 82/29/39 63/29/39 49/29/39
f 80/29/40 57/29/40 84/29/40
f 80/29/33 60/29/33 41/29/33
f 60/29/41 83/29/41 54/29/41
f 85/29/39 49/29/39 59/29/39
f 87/29/42 67/29/42 78/29/42
f 47/29/12 80/29/12 41/29/12
f 87/29/24 46/29/24 64/29/24
f 68/29/43 56/29/43 71/29/43
f 69/29/44 62/29/44 70/29/44
f 78/29/45 63/29/45 81/29/45
f 57/29/46 79/29/46 59/29/46
f 17/6/14 3/24/14 13/10/14
f 13/10/47 90/30/47 17/6/47
f 13/10/48 95/31/48 89/32/48
f 17/6/49 90/30/49 88/33/49
f 97/34/50 25/4/50 98/35/50
f 25/4/51 31/10/51 34/6/51
f 99/36/52 31/10/52 102/37/52
f 22/12/53 97/38/53 96/39/53
f 25/40/54 99/36/54 98/41/54
f 20/12/55 117/42/55 103/43/55
f 4/24/14 12/6/14 6/4/14
f 4/12/56 108/44/56 10/10/56
f 12/6/57 105/45/57 6/40/57
f 14/6/58 114/46/58 113/47/58
f 16/10/59 108/44/59 112/44/59
f 14/6/60 109/46/60 12/6/60
f 16/10/14 12/6/14 10/10/14
f 24/40/61 122/48/61 29/40/61
f 24/4/14 4/24/14 6/4/14
f 6/40/62 105/45/62 104/49/62
f 35/4/14 26/24/14 29/4/14
f 20/12/63 116/50/63 117/42/63
f 24/4/64 26/24/64 20/24/64
f 35/40/65 121/51/65 42/40/65
f 29/40/66 119/48/66 35/40/66
f 26/12/67 115/50/67 116/50/67
f 42/4/28 120/52/28 38/24/28
f 38/12/68 115/50/68 32/12/68
f 35/4/14 38/24/14 32/24/14
f 52/10/14 44/6/14 45/10/14
f 16/10/14 44/6/14 14/6/14
f 16/10/69 107/44/69 45/10/69
f 52/10/30 111/47/30 50/6/30
f 52/10/70 107/44/70 110/53/70
f 50/6/71 114/46/71 44/6/71
f 2/1/1 7/4/1 37/2/1
f 7/4/2 15/6/2 39/5/2
f 15/6/3 9/14/3 40/7/3
f 40/7/4 9/14/4 2/8/4
f 11/10/5 8/26/5 1/11/5
f 15/6/6 7/40/6 2/13/6
f 30/15/72 23/28/72 18/16/72
f 21/18/73 23/28/73 30/15/73
f 19/20/74 21/18/74 28/19/74
f 18/22/75 19/20/75 27/21/75
f 33/23/11 27/21/11 5/24/11
f 5/24/12 27/21/12 28/19/12
f 28/19/13 30/15/13 8/26/13
f 30/15/14 33/17/14 1/27/14
f 23/28/76 40/7/76 36/9/76
f 21/18/77 39/5/77 40/7/77
f 37/2/78 39/5/78 21/18/78
f 18/22/79 36/3/79 37/2/79
f 71/29/12 47/29/12 41/29/12
f 64/29/24 46/29/24 70/29/24
f 91/29/14 92/29/14 93/29/14
f 107/29/14 112/29/14 108/29/14
f 108/29/14 106/29/14 103/29/14
f 103/29/14 46/29/14 108/29/14
f 46/29/14 78/29/14 107/29/14
f 108/29/14 46/29/14 107/29/14
f 81/29/14 43/29/14 90/29/14
f 43/29/14 92/29/14 88/29/14
f 90/29/14 43/29/14 88/29/14
f 89/29/14 95/29/14 113/29/14
f 95/29/14 91/29/14 94/29/14
f 95/29/14 94/29/14 113/29/14
f 81/29/14 90/29/14 111/29/14
f 90/29/14 89/29/14 111/29/14
f 94/29/14 93/29/14 105/29/14
f 93/29/14 104/29/14 105/29/14
f 105/29/14 109/29/14 113/29/14
f 94/29/14 105/29/14 113/29/14
f 113/29/14 114/29/14 111/29/14
f 110/29/14 107/29/14 78/29/14
f 89/29/14 113/29/14 111/29/14
f 111/29/14 110/29/14 81/29/14
f 95/29/14 88/29/14 92/29/14
f 65/29/25 43/29/25 81/29/25
f 61/29/80 55/29/80 82/29/80
f 60/29/81 54/29/81 72/29/81
f 59/29/28 49/29/28 53/29/28
f 57/29/29 53/29/29 83/29/29
f 66/29/30 51/29/30 48/29/30
f 56/29/31 51/29/31 73/29/31
f 41/29/33 60/29/33 75/29/33
f 47/29/34 61/29/34 85/29/34
f 51/29/30 56/29/30 58/29/30
f 82/29/82 55/29/82 65/29/82
f 72/29/83 54/29/83 64/29/83
f 49/29/28 63/29/28 67/29/28
f 53/29/29 67/29/29 87/29/29
f 51/29/31 66/29/31 77/29/31
f 73/29/26 77/29/26 65/29/26
f 72/29/36 76/29/36 62/29/36
f 71/29/34 74/29/34 61/29/34
f 61/29/26 74/29/26 73/29/26
f 75/29/36 72/29/36 48/29/36
f 100/29/14 93/29/14 92/29/14
f 122/29/14 118/29/14 104/29/14
f 104/29/14 93/29/14 100/29/14
f 100/29/14 101/29/14 99/29/14
f 100/29/14 99/29/14 122/29/14
f 99/29/14 102/29/14 122/29/14
f 122/29/14 104/29/14 100/29/14
f 121/29/14 119/29/14 122/29/14
f 121/29/14 122/29/14 102/29/14
f 121/29/14 102/29/14 96/29/14
f 96/29/14 97/29/14 69/29/14
f 46/29/14 103/29/14 117/29/14
f 117/29/14 116/29/14 115/29/14
f 46/29/14 117/29/14 115/29/14
f 121/29/14 96/29/14 69/29/14
f 120/29/14 121/29/14 70/29/14
f 121/29/14 69/29/14 70/29/14
f 70/29/14 46/29/14 115/29/14
f 101/29/14 92/29/14 43/29/14
f 43/29/14 69/29/14 97/29/14
f 97/29/14 98/29/14 43/29/14
f 98/29/14 99/29/14 43/29/14
f 77/29/25 69/29/25 43/29/25
f 83/29/27 87/29/27 64/29/27
f 82/29/39 86/29/39 63/29/39
f 80/29/33 84/29/33 60/29/33
f 60/29/27 84/29/27 83/29/27
f 85/29/39 82/29/39 49/29/39
f 47/29/12 79/29/12 80/29/12
f 87/29/24 78/29/24 46/29/24
f 68/29/43 58/29/43 56/29/43
f 69/29/44 66/29/44 62/29/44
f 78/29/45 67/29/45 63/29/45
f 57/29/46 80/29/46 79/29/46
f 13/10/47 89/32/47 90/30/47
f 13/10/48 3/12/48 95/31/48
f 88/33/49 95/54/49 3/40/49
f 3/40/49 17/6/49 88/33/49
f 97/34/50 22/24/50 25/4/50
f 25/4/84 22/24/84 31/10/84
f 99/36/52 34/6/52 31/10/52
f 96/39/85 102/37/85 31/10/85
f 31/10/85 22/12/85 96/39/85
f 25/40/54 34/6/54 99/36/54
f 103/43/55 106/55/55 4/12/55
f 4/12/55 20/12/55 103/43/55
f 4/24/14 10/10/14 12/6/14
f 4/12/56 106/55/56 108/44/56
f 12/6/57 109/46/57 105/45/57
f 14/6/58 44/6/58 114/46/58
f 16/10/59 10/10/59 108/44/59
f 14/6/60 113/47/60 109/46/60
f 16/10/14 14/6/14 12/6/14
f 24/40/61 118/49/61 122/48/61
f 24/4/14 20/24/14 4/24/14
f 118/49/62 24/40/62 104/49/62
f 24/40/62 6/40/62 104/49/62
f 35/4/14 32/24/14 26/24/14
f 20/12/63 26/12/63 116/50/63
f 24/4/64 29/4/64 26/24/64
f 35/40/65 119/48/65 121/51/65
f 29/40/66 122/48/66 119/48/66
f 26/12/67 32/12/67 115/50/67
f 42/4/28 121/56/28 120/52/28
f 38/12/68 120/57/68 115/50/68
f 35/4/14 42/4/14 38/24/14
f 52/10/14 50/6/14 44/6/14
f 16/10/14 45/10/14 44/6/14
f 16/10/69 112/44/69 107/44/69
f 52/10/30 110/53/30 111/47/30
f 52/10/70 45/10/70 107/44/70
f 50/6/71 111/47/71 114/46/71
