# Blender 3.5.0
# www.blender.org
mtllib switchFoundation.mtl
o Cube
v -1.000000 0.000000 1.000000
v -1.000000 0.000000 -1.000000
v 1.000000 0.000000 1.000000
v 1.000000 0.000000 -1.000000
v -0.637125 0.699969 0.637125
v -1.000000 0.337093 1.000000
v -0.637125 0.699969 -0.637125
v -1.000000 0.337093 -1.000000
v 0.637125 0.699969 0.637125
v 1.000000 0.337093 1.000000
v 0.637125 0.699969 -0.637125
v 1.000000 0.337093 -1.000000
vn -0.0000 -0.0000 -1.0000
vn 1.0000 -0.0000 -0.0000
vn -0.0000 -1.0000 -0.0000
vn -0.0000 1.0000 -0.0000
vn -1.0000 -0.0000 -0.0000
vn -0.0000 0.7071 -0.7071
vn -0.7071 0.7071 -0.0000
vn 0.7071 0.7071 -0.0000
vn -0.0000 0.7071 0.7071
vn -0.0000 -0.0000 1.0000
vt 0.375000 0.500000
vt 0.375000 0.750000
vt 0.125000 0.500000
vt 0.375000 0.250000
vt 0.375000 0.000000
vt 0.375000 1.000000
vt 0.125000 0.750000
vt 0.670359 0.545359
vt 0.625000 0.500000
vt 0.579641 0.500000
vt 0.670359 0.704641
vt 0.625000 0.750000
vt 0.579641 0.750000
vt 0.829641 0.545359
vt 0.875000 0.500000
vt 0.579641 0.250000
vt 0.829641 0.704641
vt 0.579641 1.000000
vt 0.579641 0.000000
vt 0.875000 0.750000
s 0
usemtl switchFoundationMaterial
f 8/13/1 4/6/1 2/2/1
f 12/19/2 3/4/2 4/5/2
f 1/1/3 4/7/3 3/3/3
f 9/14/4 7/11/4 5/8/4
f 6/10/5 2/2/5 1/1/5
f 11/17/6 8/12/6 7/11/6
f 7/11/7 6/10/7 5/8/7
f 9/14/8 12/20/8 11/17/8
f 5/8/9 10/15/9 9/14/9
f 10/16/10 1/1/10 3/4/10
f 8/13/1 12/18/1 4/6/1
f 12/19/2 10/16/2 3/4/2
f 1/1/3 2/2/3 4/7/3
f 9/14/4 11/17/4 7/11/4
f 6/10/5 8/13/5 2/2/5
f 11/17/6 12/20/6 8/12/6
f 7/11/7 8/13/7 6/10/7
f 9/14/8 10/15/8 12/20/8
f 5/8/9 6/9/9 10/15/9
f 10/16/10 6/10/10 1/1/10
